{
.appVersion = "1286";
classes = (
{
automatic = 1;
code = "A Aacute Abreve Abreveacute Abrevedotbelow Abrevegrave Abrevehookabove Abrevetilde Acaron Acircumflex Acircumflexacute Acircumflexdotbelow Acircumflexgrave Acircumflexhookabove Acircumflextilde Adieresis Adotbelow Agrave Ahookabove Amacron Aogonek Aring Aringacute Atilde AE AEacute B C Cacute Ccaron Ccedilla Cdotaccent D Eth Dcaron Dcroat E Eacute Ecaron Ecircumflex Ecircumflexacute Ecircumflexdotbelow Ecircumflexgrave Ecircumflexhookabove Ecircumflextilde Edieresis Edotaccent Edotbelow Egrave Ehookabove Emacron Eogonek Etilde F G Gbreve Gcommaaccent Gdotaccent H Hbar I IJ Iacute Icaron Icircumflex Idieresis Idotaccent Idotbelow Igrave Ihookabove Imacron Iogonek Itilde J K Kcommaaccent L Lacute Lcaron Lcommaaccent Ldot Lslash M N Nacute Ncaron Ncommaaccent Eng Ntilde O Oacute Ocaron Ocircumflex Ocircumflexacute Ocircumflexdotbelow Ocircumflexgrave Ocircumflexhookabove Ocircumflextilde Odieresis Odotbelow Ograve Ohookabove Ohorn Ohornacute Ohorndotbelow Ohorngrave Ohornhookabove Ohorntilde Ohungarumlaut Omacron Oslash Oslashacute Otilde OE P Thorn Q R Racute Rcaron Rcommaaccent S Sacute Scaron Scedilla Scommaaccent Germandbls T Tbar Tcaron Tcedilla Tcommaaccent U Uacute Ubreve Ucaron Ucircumflex Udieresis Udieresisacute Udieresiscaron Udieresisgrave Udieresismacron Udotbelow Ugrave Uhookabove Uhorn Uhornacute Uhorndotbelow Uhorngrave Uhornhookabove Uhorntilde Uhungarumlaut Umacron Uogonek Uring Utilde V W Wacute Wcircumflex Wdieresis Wgrave X Y Yacute Ycircumflex Ydieresis Ydotbelow Ygrave Yhookabove Ytilde Z Zacute Zcaron Zdotaccent B.ss02 D.ss02 Eth.ss02 Dcaron.ss02 Dcroat.ss02 IJ.ss02 J.ss02 I.ss03 Iacute.ss03 Icaron.ss03 Icircumflex.ss03 Idieresis.ss03 Idotaccent.ss03 Idotbelow.ss03 Igrave.ss03 Ihookabove.ss03 Imacron.ss03 Iogonek.ss03 Itilde.ss03";
name = Uppercase;
},
{

glyphs = (
{
glyphname = A;
lastChange = "2020-05-14 19:26:35 +0000";
layers = (
{
anchors = (
{
name = bottom;
position = "{312, 0}";
},
{
name = ogonek;
position = "{567, 0}";
},
{
name = top;
position = "{312, 700}";
}
);
layerId = "A285862E-BE3D-4D67-A40D-0E28E121AD88";
paths = (
{
closed = 1;
nodes = (
"28 0 LINE",
"87 0 LINE",
"149 190 LINE",
"475 190 LINE",
"537 0 LINE",
"596 0 LINE",
"360 700 LINE",
"264 700 LINE"
);
},
{
closed = 1;
nodes = (
"307 670 LINE",
"317 670 LINE",
"459 238 LINE",
"165 238 LINE"
);
}
);
width = 624;
}
);
leftKerningGroup = A;
note = A;
rightKerningGroup = A;
unicode = 0041;
},
{
glyphname = AE;
lastChange = "2020-05-14 19:19:34 +0000";
layers = (
{
anchors = (
{
name = top;
position = "{398, 700}";
}
);
layerId = "A285862E-BE3D-4D67-A40D-0E28E121AD88";
paths = (
{
closed = 1;
nodes = (
"364 238 LINE",
"182 238 LINE",
"354 670 LINE",
"364 670 LINE",
"364 700 LINE",
"312 700 LINE",
"28 0 LINE",
"88 0 LINE",
"163 190 LINE",
"364 190 LINE"
);
},
{
closed = 1;
nodes = (
"364 0 LINE",
"712 0 LINE",
"712 48 LINE",
"418 48 LINE",
"418 327 LINE",
"680 327 LINE",
"680 375 LINE",
"418 375 LINE",
"418 652 LINE",
"708 652 LINE",
"708 700 LINE",
"364 700 LINE"
);
}
);
width = 768;
}
);
leftKerningGroup = A;
leftMetricsKey = A;
note = AE;
rightKerningGroup = E;
rightMetricsKey = E;
unicode = 00C6;
},
{
glyphname = B;
lastChange = "2020-05-14 19:31:00 +0000";
layers = (
{
layerId = "A285862E-BE3D-4D67-A40D-0E28E121AD88";
paths = (
{
closed = 1;
nodes = (
"388 0 LINE SMOOTH",
"507 0 OFFCURVE",
"598 68 OFFCURVE",
"598 182 CURVE SMOOTH",
"598 192 LINE SMOOTH",
"598 289 OFFCURVE",
"533 334 OFFCURVE",
"480 348 CURVE",
"480 358 LINE",
"532 374 OFFCURVE",
"598 419 OFFCURVE",
"598 517 CURVE SMOOTH",
"598 525 LINE SMOOTH",
"598 629 OFFCURVE",
"512 700 OFFCURVE",
"392 700 CURVE SMOOTH",
"48 700 LINE",
"48 652 LINE",
"148 652 LINE",
"148 48 LINE",
"48 48 LINE",
"48 0 LINE"
);
},
{
closed = 1;
nodes = (
"202 328 LINE",
"384 328 LINE SMOOTH",
"490 328 OFFCURVE",
"544 275 OFFCURVE",
"544 192 CURVE SMOOTH",
"544 184 LINE SMOOTH",
"544 101 OFFCURVE",
"490 48 OFFCURVE",
"384 48 CURVE SMOOTH",
"202 48 LINE"
);
},
{
closed = 1;
nodes = (
"202 652 LINE",
"388 652 LINE SMOOTH",
"486 652 OFFCURVE",
"544 598 OFFCURVE",
"544 519 CURVE SMOOTH",
"544 509 LINE SMOOTH",
"544 430 OFFCURVE",
"486 376 OFFCURVE",
"388 376 CURVE SMOOTH",
"202 376 LINE"
);
}
);
width = 658;
}
);
leftKerningGroup = Serif;
leftMetricsKey = I.ss03;
note = B.alt;
rightKerningGroup = B;
unicode = 0042;
},
{
glyphname = C;
lastChange = "2020-05-14 19:16:40 +0000";
layers = (
{
anchors = (
{
name = bottom;
position = "{331, 0}";
},
{
name = top;
position = "{334, 700}";
}
);
layerId = "A285862E-BE3D-4D67-A40D-0E28E121AD88";
paths = (
{
closed = 1;
nodes = (
"66 95 OFFCURVE",
"166 -14 OFFCURVE",
"334 -14 CURVE SMOOTH",
"486 -14 OFFCURVE",
"582 79 OFFCURVE",
"582 233 CURVE SMOOTH",
"582 256 LINE",
"528 256 LINE",
"528 233 LINE SMOOTH",
"528 107 OFFCURVE",
"467 34 OFFCURVE",
"334 34 CURVE SMOOTH",
"200 34 OFFCURVE",
"120 125 OFFCURVE",
"120 281 CURVE SMOOTH",
"120 419 LINE SMOOTH",
"120 575 OFFCURVE",
"198 666 OFFCURVE",
"334 666 CURVE SMOOTH",
"458 666 OFFCURVE",
"528 590 OFFCURVE",
"528 464 CURVE SMOOTH",
"528 444 LINE",
"582 444 LINE",
"582 464 LINE SMOOTH",
"582 618 OFFCURVE",
"495 714 OFFCURVE",
"334 714 CURVE SMOOTH",
"169 714 OFFCURVE",
"66 605 OFFCURVE",
"66 417 CURVE SMOOTH",
"66 283 LINE SMOOTH"
);
}
);
width = 640;
}
);
leftKerningGroup = O;
leftMetricsKey = O;
note = C;
rightKerningGroup = O;
rightMetricsKey = "=O-8";
unicode = 0043;
},
{
glyphname = D;
lastChange = "2020-05-14 19:30:30 +0000";
layers = (
{
anchors = (
{
name = stroke;
position = "{148, 484}";
},
{
name = top;
position = "{315, 700}";
}
);
layerId = "A285862E-BE3D-4D67-A40D-0E28E121AD88";
paths = (
{
closed = 1;
nodes = (
"48 652 LINE",
"148 652 LINE",
"148 48 LINE",
"48 48 LINE",
"48 0 LINE",
"310 0 LINE SMOOTH",
"492 0 OFFCURVE",
"600 90 OFFCURVE",
"600 287 CURVE SMOOTH",
"600 413 LINE SMOOTH",
"600 610 OFFCURVE",
"492 700 OFFCURVE",
"310 700 CURVE SMOOTH",
"48 700 LINE"
);
},
{
closed = 1;
nodes = (
"310 652 LINE SMOOTH",
"461 652 OFFCURVE",
"546 582 OFFCURVE",
"546 416 CURVE SMOOTH",
"546 284 LINE SMOOTH",
"546 118 OFFCURVE",
"465 48 OFFCURVE",
"310 48 CURVE SMOOTH",
"202 48 LINE",
"202 652 LINE"
);
}
);
width = 660;
}
);
leftKerningGroup = Serif;
leftMetricsKey = I.ss03;
note = D.alt;
rightKerningGroup = O;
rightMetricsKey = "=O-6";
unicode = 0044;
},
{
glyphname = E;
lastChange = "2020-05-14 19:14:28 +0000";
layers = (
{
anchors = (
{
name = bottom;
position = "{299, 0}";
},
{
name = ogonek;
position = "{440, 0}";
},
{
name = top;
position = "{304, 700}";
}
);
layerId = "A285862E-BE3D-4D67-A40D-0E28E121AD88";
paths = (
{
closed = 1;
nodes = (
"88 0 LINE",
"510 0 LINE",
"510 48 LINE",
"142 48 LINE",
"142 327 LINE",
"478 327 LINE",
"478 375 LINE",
"142 375 LINE",
"142 652 LINE",
"506 652 LINE",
"506 700 LINE",
"88 700 LINE"
);
}
);
width = 566;
}
);
leftKerningGroup = H;
leftMetricsKey = I;
note = E;
rightKerningGroup = E;
unicode = 0045;
},
{
glyphname = F;
lastChange = "2020-05-14 19:15:40 +0000";
layers = (
{
layerId = "A285862E-BE3D-4D67-A40D-0E28E121AD88";
paths = (
{
closed = 1;
nodes = (
"88 0 LINE",
"142 0 LINE",
"142 327 LINE",
"470 327 LINE",
"470 375 LINE",
"142 375 LINE",
"142 652 LINE",
"500 652 LINE",
"500 700 LINE",
"88 700 LINE"
);
}
);
width = 542;
}
);
leftKerningGroup = H;
leftMetricsKey = I;
note = F;
rightKerningGroup = F;
unicode = 0046;
},
{
glyphname = G;
lastChange = "2020-05-14 19:17:08 +0000";
layers = (
{
anchors = (
{
name = bottom;
position = "{337, 0}";
},
{
name = top;
position = "{335, 700}";
}
);
layerId = "A285862E-BE3D-4D67-A40D-0E28E121AD88";
paths = (
{
closed = 1;
nodes = (
"66 95 OFFCURVE",
"169 -14 OFFCURVE",
"333 -14 CURVE SMOOTH",
"441 -14 OFFCURVE",
"490 29 OFFCURVE",
"518 78 CURVE",
"528 78 LINE",
"528 0 LINE",
"578 0 LINE",
"578 319 LINE",
"288 319 LINE",
"288 271 LINE",
"524 271 LINE",
"524 233 LINE SMOOTH",
"524 107 OFFCURVE",
"461 34 OFFCURVE",
"335 34 CURVE SMOOTH",
"198 34 OFFCURVE",
"120 125 OFFCURVE",
"120 281 CURVE SMOOTH",
"120 419 LINE SMOOTH",
"120 575 OFFCURVE",
"198 666 OFFCURVE",
"336 666 CURVE SMOOTH",
"461 666 OFFCURVE",
"524 590 OFFCURVE",
"524 468 CURVE SMOOTH",
"524 455 LINE",
"578 455 LINE",
"578 468 LINE SMOOTH",
"578 618 OFFCURVE",
"498 714 OFFCURVE",
"335 714 CURVE SMOOTH",
"169 714 OFFCURVE",
"66 605 OFFCURVE",
"66 417 CURVE SMOOTH",
"66 282 LINE SMOOTH"
);
}
);
width = 658;
}
);
leftKerningGroup = O;
leftMetricsKey = O;
note = G;
rightKerningGroup = G;
unicode = 0047;
},
{
glyphname = H;
lastChange = "2020-05-14 19:11:37 +0000";
layers = (
{
anchors = (
{
name = stroke;
position = "{327, 496}";
}
);
layerId = "A285862E-BE3D-4D67-A40D-0E28E121AD88";
paths = (
{
closed = 1;
nodes = (
"88 0 LINE",
"142 0 LINE",
"142 327 LINE",
"512 327 LINE",
"512 0 LINE",
"566 0 LINE",
"566 700 LINE",
"512 700 LINE",
"512 375 LINE",
"142 375 LINE",
"142 700 LINE",
"88 700 LINE"
);
}
);
width = 654;
}
);
leftKerningGroup = H;
leftMetricsKey = I;
note = H;
rightKerningGroup = H;
rightMetricsKey = I;
unicode = 0048;
},
{
glyphname = I;
lastChange = "2020-05-12 12:10:49 +0000";
layers = (
{
anchors = (
{
name = bottom;
position = "{115, 0}";
},
{
name = ogonek;
position = "{115, 0}";
},
{
name = top;
position = "{115, 700}";
}
);
layerId = "A285862E-BE3D-4D67-A40D-0E28E121AD88";
paths = (
{
closed = 1;
nodes = (
"88 0 LINE",
"142 0 LINE",
"142 700 LINE",
"88 700 LINE"
);
}
);
width = 230;
}
);
leftKerningGroup = H;
note = I;
rightKerningGroup = H;
unicode = 0049;
},
{
glyphname = IJ;
lastChange = "2020-04-26 14:25:24 +0000";
layers = (
{
layerId = "A285862E-BE3D-4D67-A40D-0E28E121AD88";
paths = (
{
closed = 1;
nodes = (
"48 652 LINE",
"138 652 LINE",
"138 343 LINE",
"192 343 LINE",
"192 652 LINE",
"282 652 LINE",
"282 700 LINE",
"48 700 LINE"
);
},
{
closed = 1;
nodes = (
"412 652 LINE",
"522 652 LINE",
"522 210 LINE SMOOTH",
"522 108 OFFCURVE",
"485 34 OFFCURVE",
"364 34 CURVE SMOOTH",
"247 34 OFFCURVE",
"192 107 OFFCURVE",
"192 210 CURVE SMOOTH",
"192 227 LINE",
"138 227 LINE",
"138 210 LINE SMOOTH",
"138 63 OFFCURVE",
"223 -14 OFFCURVE",
"362 -14 CURVE SMOOTH",
"506 -14 OFFCURVE",
"576 65 OFFCURVE",
"576 210 CURVE SMOOTH",
"576 652 LINE",
"666 652 LINE",
"666 700 LINE",
"412 700 LINE"
);
}
);
width = 716;
}
);
leftKerningGroup = JSerif;
note = IJ;
rightKerningGroup = JSerif;
rightMetricsKey = J;
unicode = 0132;
},
{
glyphname = J;
lastChange = "2020-04-27 08:42:59 +0000";
layers = (
{
layerId = "A285862E-BE3D-4D67-A40D-0E28E121AD88";
paths = (
{
closed = 1;
nodes = (
"286 652 LINE",
"410 652 LINE",
"410 210 LINE SMOOTH",
"410 108 OFFCURVE",
"375 34 OFFCURVE",
"262 34 CURVE SMOOTH",
"152 34 OFFCURVE",
"100 107 OFFCURVE",
"100 210 CURVE SMOOTH",
"100 257 LINE",
"46 257 LINE",
"46 210 LINE SMOOTH",
"46 63 OFFCURVE",
"127 -14 OFFCURVE",
"260 -14 CURVE SMOOTH",
"397 -14 OFFCURVE",
"464 65 OFFCURVE",
"464 210 CURVE SMOOTH",
"464 652 LINE",
"534 652 LINE",
"534 700 LINE",
"286 700 LINE"
);
}
);
width = 584;
}
);
leftKerningGroup = J;
note = J;
rightKerningGroup = JSerif;
unicode = 004A;
},
{
glyphname = K;
lastChange = "2020-04-26 14:23:56 +0000";
layers = (
{
anchors = (
{
name = bottom;
position = "{311, 0}";
}
);
layerId = "A285862E-BE3D-4D67-A40D-0E28E121AD88";
paths = (
{
closed = 1;
nodes = (
"142 0 LINE",
"142 328 LINE",
"152 328 LINE",
"505 0 LINE",
"582 0 LINE",
"194 353 LINE",
"568 700 LINE",
"491 700 LINE",
"152 378 LINE",
"142 378 LINE",
"142 700 LINE",
"88 700 LINE",
"88 0 LINE"
);
}
);
width = 598;
}
);
leftKerningGroup = H;
leftMetricsKey = I;
note = K;
rightKerningGroup = K;
unicode = 004B;
},
{
glyphname = L;
lastChange = "2020-05-14 19:15:14 +0000";
layers = (
{
anchors = (
{
name = bottom;
position = "{313, 0}";
},
{
name = caron;
position = "{141, 700}";
},
{
name = sidecaron;
position = "{142, 700}";
},
{
name = top;
position = "{114, 700}";
}
);
layerId = "A285862E-BE3D-4D67-A40D-0E28E121AD88";
paths = (
{
closed = 1;
nodes = (
"88 0 LINE",
"518 0 LINE",
"518 48 LINE",
"142 48 LINE",
"142 700 LINE",
"88 700 LINE"
);
}
);
width = 546;
}
);
leftKerningGroup = H;
leftMetricsKey = I;
note = L;
rightKerningGroup = L;
unicode = 004C;
},
{
glyphname = Lslash;
lastChange = "2020-05-14 19:19:49 +0000";
layers = (
{
layerId = "A285862E-BE3D-4D67-A40D-0E28E121AD88";
paths = (
{
closed = 1;
nodes = (
"134 0 LINE",
"564 0 LINE",
"564 48 LINE",
"188 48 LINE",
"188 700 LINE",
"134 700 LINE"
);
},
{
closed = 1;
nodes = (
"43 252 LINE",
"300 393 LINE",
"279 432 LINE",
"22 291 LINE"
);
}
);
width = 592;
}
);
note = Lslash;
rightKerningGroup = L;
rightMetricsKey = L;
unicode = 0141;
},
{
glyphname = M;
lastChange = "2020-05-14 19:12:13 +0000";
layers = (
{
layerId = "A285862E-BE3D-4D67-A40D-0E28E121AD88";
paths = (
{
closed = 1;
nodes = (
"88 0 LINE",
"142 0 LINE",
"142 670 LINE",
"152 670 LINE",
"378 0 LINE",
"478 0 LINE",
"704 670 LINE",
"714 670 LINE",
"714 0 LINE",
"768 0 LINE",
"768 700 LINE",
"659 700 LINE",
"433 30 LINE",
"423 30 LINE",
"197 700 LINE",
"88 700 LINE"
);
}
);
width = 856;
}
);
leftKerningGroup = H;
leftMetricsKey = I;
note = M;
rightKerningGroup = H;
rightMetricsKey = I;
unicode = 004D;
},
{
glyphname = N;
lastChange = "2020-05-14 19:11:05 +0000";
layers = (
{
anchors = (
{
name = bottom;
position = "{332, 0}";
},
{
name = top;
position = "{334, 700}";
}
);
layerId = "A285862E-BE3D-4D67-A40D-0E28E121AD88";
paths = (
{
closed = 1;
nodes = (
"88 0 LINE",
"142 0 LINE",
"142 670 LINE",
"152 670 LINE",
"462 0 LINE",
"570 0 LINE",
"570 700 LINE",
"516 700 LINE",
"516 30 LINE",
"506 30 LINE",
"196 700 LINE",
"88 700 LINE"
);
}
);
width = 658;
}
);
leftKerningGroup = H;
leftMetricsKey = I;
note = N;
rightKerningGroup = H;
rightMetricsKey = I;
unicode = 004E;
},
{
glyphname = Eng;
lastChange = "2020-05-14 19:11:25 +0000";
layers = (
{
layerId = "A285862E-BE3D-4D67-A40D-0E28E121AD88";
paths = (
{
closed = 1;
nodes = (
"88 0 LINE",
"142 0 LINE",
"142 670 LINE",
"152 670 LINE",
"458 0 LINE",
"566 0 LINE",
"566 700 LINE",
"512 700 LINE",
"512 30 LINE",
"502 30 LINE",
"196 700 LINE",
"88 700 LINE"
);
},
{
closed = 1;
nodes = (
"514 0 LINE",
"514 -124 LINE SMOOTH",
"514 -144 OFFCURVE",
"504 -154 OFFCURVE",
"486 -154 CURVE SMOOTH",
"374 -154 LINE",
"374 -200 LINE",
"502 -200 LINE SMOOTH",
"542 -200 OFFCURVE",
"566 -176 OFFCURVE",
"566 -134 CURVE SMOOTH",
"566 0 LINE"
);
}
);
width = 654;
}
);
leftKerningGroup = H;
leftMetricsKey = N;
note = Eng;
rightKerningGroup = H;
rightMetricsKey = N;
unicode = 014A;
},
{
glyphname = O;
lastChange = "2020-05-14 19:31:07 +0000";
layers = (
{
anchors = (
{
name = bottom;
position = "{335, 0}";
},
{
name = horn;
position = "{438, 700}";
},
{
name = top;
position = "{332, 700}";
}
);
layerId = "A285862E-BE3D-4D67-A40D-0E28E121AD88";
paths = (
{
closed = 1;
nodes = (
"66 272 LINE SMOOTH",
"66 84 OFFCURVE",
"170 -14 OFFCURVE",
"332 -14 CURVE SMOOTH",
"494 -14 OFFCURVE",
"598 84 OFFCURVE",
"598 272 CURVE SMOOTH",
"598 428 LINE SMOOTH",
"598 616 OFFCURVE",
"494 714 OFFCURVE",
"332 714 CURVE SMOOTH",
"170 714 OFFCURVE",
"66 616 OFFCURVE",
"66 428 CURVE SMOOTH"
);
},
{
closed = 1;
nodes = (
"120 578 OFFCURVE",
"198 666 OFFCURVE",
"332 666 CURVE SMOOTH",
"466 666 OFFCURVE",
"544 578 OFFCURVE",
"544 432 CURVE SMOOTH",
"544 268 LINE SMOOTH",
"544 122 OFFCURVE",
"466 34 OFFCURVE",
"332 34 CURVE SMOOTH",
"198 34 OFFCURVE",
"120 122 OFFCURVE",
"120 268 CURVE SMOOTH",
"120 432 LINE SMOOTH"
);
}
);
width = 664;
}
);
leftKerningGroup = O;
note = O;
rightKerningGroup = O;
unicode = 004F;
},
{
glyphname = OE;
lastChange = "2020-05-14 19:19:34 +0000";
layers = (
{
layerId = "A285862E-BE3D-4D67-A40D-0E28E121AD88";
paths = (
{
closed = 1;
nodes = (
"384 46 LINE",
"209 46 OFFCURVE",
"120 145 OFFCURVE",
"120 310 CURVE SMOOTH",
"120 390 LINE SMOOTH",
"120 555 OFFCURVE",
"209 654 OFFCURVE",
"384 654 CURVE",
"384 700 LINE",
"183 700 OFFCURVE",
"66 592 OFFCURVE",
"66 384 CURVE SMOOTH",
"66 316 LINE SMOOTH",
"66 108 OFFCURVE",
"183 0 OFFCURVE",
"384 0 CURVE"
);
},
{
closed = 1;
nodes = (
"384 0 LINE",
"732 0 LINE",
"732 48 LINE",
"438 48 LINE",
"438 327 LINE",
"700 327 LINE",
"700 375 LINE",
"438 375 LINE",
"438 652 LINE",
"728 652 LINE",
"728 700 LINE",
"384 700 LINE"
);
}
);
width = 788;
}
);
leftKerningGroup = O;
leftMetricsKey = O;
note = OE;
rightKerningGroup = E;
rightMetricsKey = E;
unicode = 0152;
},
{
glyphname = P;
lastChange = "2020-04-26 14:21:35 +0000";
layers = (
{
layerId = "A285862E-BE3D-4D67-A40D-0E28E121AD88";
paths = (
{
closed = 1;
nodes = (
"88 0 LINE",
"142 0 LINE",
"142 298 LINE",
"342 298 LINE SMOOTH",
"463 298 OFFCURVE",
"560 368 OFFCURVE",
"560 494 CURVE SMOOTH",
"560 504 LINE SMOOTH",
"560 630 OFFCURVE",
"464 700 OFFCURVE",
"342 700 CURVE SMOOTH",
"88 700 LINE"
);
},
{
closed = 1;
nodes = (
"336 652 LINE SMOOTH",
"444 652 OFFCURVE",
"506 599 OFFCURVE",
"506 503 CURVE SMOOTH",
"506 495 LINE SMOOTH",
"506 399 OFFCURVE",
"442 346 OFFCURVE",
"336 346 CURVE SMOOTH",
"142 346 LINE",
"142 652 LINE"
);
}
);
width = 598;
}
);
leftKerningGroup = H;
leftMetricsKey = I;
note = P;
rightKerningGroup = P;
unicode = 0050;
},
{
glyphname = Thorn;
lastChange = "2020-04-26 14:25:24 +0000";
layers = (
{
layerId = "A285862E-BE3D-4D67-A40D-0E28E121AD88";
paths = (
{
closed = 1;
nodes = (
"142 700 LINE",
"88 700 LINE",
"88 0 LINE",
"142 0 LINE"
);
},
{
closed = 1;
nodes = (
"142 513 LINE",
"336 513 LINE SMOOTH",
"444 513 OFFCURVE",
"506 460 OFFCURVE",
"506 364 CURVE SMOOTH",
"506 356 LINE SMOOTH",
"506 260 OFFCURVE",
"442 207 OFFCURVE",
"336 207 CURVE SMOOTH",
"142 207 LINE",
"142 159 LINE",
"342 159 LINE SMOOTH",
"463 159 OFFCURVE",
"560 229 OFFCURVE",
"560 355 CURVE SMOOTH",
"560 365 LINE SMOOTH",
"560 491 OFFCURVE",
"464 561 OFFCURVE",
"342 561 CURVE SMOOTH",
"142 561 LINE"
);
}
);
width = 598;
}
);
leftKerningGroup = H;
leftMetricsKey = I;
note = Thorn;
rightMetricsKey = P;
unicode = 00DE;
},
{
glyphname = Q;
lastChange = "2020-04-26 14:20:43 +0000";
layers = (
{
layerId = "A285862E-BE3D-4D67-A40D-0E28E121AD88";
paths = (
{
closed = 1;
nodes = (
"66 272 LINE SMOOTH",
"66 84 OFFCURVE",
"170 -14 OFFCURVE",
"332 -14 CURVE SMOOTH",
"494 -14 OFFCURVE",
"598 84 OFFCURVE",
"598 272 CURVE SMOOTH",
"598 428 LINE SMOOTH",
"598 616 OFFCURVE",
"494 714 OFFCURVE",
"332 714 CURVE SMOOTH",
"170 714 OFFCURVE",
"66 616 OFFCURVE",
"66 428 CURVE SMOOTH"
);
},
{
closed = 1;
nodes = (
"120 578 OFFCURVE",
"198 666 OFFCURVE",
"332 666 CURVE SMOOTH",
"466 666 OFFCURVE",
"544 578 OFFCURVE",
"544 432 CURVE SMOOTH",
"544 268 LINE SMOOTH",
"544 122 OFFCURVE",
"466 34 OFFCURVE",
"332 34 CURVE SMOOTH",
"198 34 OFFCURVE",
"120 122 OFFCURVE",
"120 268 CURVE SMOOTH",
"120 432 LINE SMOOTH"
);
},
{
closed = 1;
nodes = (
"305 -84 LINE SMOOTH",
"305 -126 OFFCURVE",
"329 -150 OFFCURVE",
"369 -150 CURVE SMOOTH",
"457 -150 LINE",
"457 -102 LINE",
"387 -102 LINE SMOOTH",
"369 -102 OFFCURVE",
"359 -92 OFFCURVE",
"359 -72 CURVE SMOOTH",
"359 0 LINE",
"305 0 LINE"
);
}
);
width = 664;
}
);
leftKerningGroup = O;
leftMetricsKey = O;
note = Q;
rightKerningGroup = O;
rightMetricsKey = O;
unicode = 0051;
},
{
glyphname = R;
lastChange = "2020-05-14 19:16:06 +0000";
layers = (
{
anchors = (
{
name = bottom;
position = "{319, 0}";
},
{
name = top;
position = "{310, 700}";
}
);
layerId = "A285862E-BE3D-4D67-A40D-0E28E121AD88";
paths = (
{
closed = 1;
nodes = (
"88 0 LINE",
"142 0 LINE",
"142 302 LINE",
"420 302 LINE SMOOTH",
"468 302 OFFCURVE",
"492 278 OFFCURVE",
"492 234 CURVE SMOOTH",
"492 0 LINE",
"546 0 LINE",
"546 240 LINE SMOOTH",
"546 302 OFFCURVE",
"506 326 OFFCURVE",
"463 327 CURVE",
"463 339 LINE",
"525 355 OFFCURVE",
"580 407 OFFCURVE",
"580 503 CURVE SMOOTH",
"580 511 LINE SMOOTH",
"580 632 OFFCURVE",
"486 700 OFFCURVE",
"357 700 CURVE SMOOTH",
"88 700 LINE"
);
},
{
closed = 1;
nodes = (
"353 652 LINE SMOOTH",
"464 652 OFFCURVE",
"524 599 OFFCURVE",
"524 503 CURVE SMOOTH",
"524 499 LINE SMOOTH",
"524 403 OFFCURVE",
"462 350 OFFCURVE",
"353 350 CURVE SMOOTH",
"142 350 LINE",
"142 652 LINE"
);
}
);
width = 630;
}
);
leftKerningGroup = H;
leftMetricsKey = I;
note = R;
rightKerningGroup = R;
unicode = 0052;
},
{
glyphname = S;
lastChange = "2020-05-14 19:24:54 +0000";
layers = (
{
anchors = (
{
name = bottom;
position = "{319, 0}";
},
{
name = top;
position = "{307, 700}";
}
);
layerId = "A285862E-BE3D-4D67-A40D-0E28E121AD88";
paths = (
{
closed = 1;
nodes = (
"168 714 OFFCURVE",
"73 643 OFFCURVE",
"73 531 CURVE SMOOTH",
"73 419 OFFCURVE",
"156 371 OFFCURVE",
"266 344 CURVE SMOOTH",
"336 327 LINE SMOOTH",
"433 303 OFFCURVE",
"502 272 OFFCURVE",
"502 184 CURVE SMOOTH",
"502 96 OFFCURVE",
"432 34 OFFCURVE",
"313 34 CURVE SMOOTH",
"194 34 OFFCURVE",
"110 96 OFFCURVE",
"110 232 CURVE SMOOTH",
"110 250 LINE",
"56 250 LINE",
"56 232 LINE SMOOTH",
"56 64 OFFCURVE",
"166 -14 OFFCURVE",
"313 -14 CURVE SMOOTH",
"459 -14 OFFCURVE",
"556 64 OFFCURVE",
"556 184 CURVE SMOOTH",
"556 304 OFFCURVE",
"466 347 OFFCURVE",
"359 373 CURVE SMOOTH",
"290 390 LINE SMOOTH",
"191 414 OFFCURVE",
"127 441 OFFCURVE",
"127 531 CURVE SMOOTH",
"127 619 OFFCURVE",
"202 666 OFFCURVE",
"303 666 CURVE SMOOTH",
"408 666 OFFCURVE",
"491 619 OFFCURVE",
"491 505 CURVE SMOOTH",
"491 456 LINE",
"545 456 LINE",
"545 505 LINE SMOOTH",
"545 643 OFFCURVE",
"438 714 OFFCURVE",
"303 714 CURVE SMOOTH"
);
}
);
width = 616;
}
);
leftKerningGroup = S;
note = S;
rightKerningGroup = S;
unicode = 0053;
},
{
glyphname = Germandbls;
lastChange = "2020-04-26 14:25:45 +0000";
layers = (
{
layerId = "A285862E-BE3D-4D67-A40D-0E28E121AD88";
paths = (
{
closed = 1;
nodes = (
"138 0 LINE",
"138 456 LINE SMOOTH",
"138 597 OFFCURVE",
"213 652 OFFCURVE",
"320 652 CURVE SMOOTH",
"522 652 LINE",
"522 644 LINE",
"367 496 LINE SMOOTH",
"331 462 OFFCURVE",
"304 432 OFFCURVE",
"304 388 CURVE SMOOTH",
"304 339 OFFCURVE",
"328 310 OFFCURVE",
"388 282 CURVE SMOOTH",
"435 260 LINE SMOOTH",
"490 234 OFFCURVE",
"532 207 OFFCURVE",
"532 145 CURVE SMOOTH",
"532 85 OFFCURVE",
"483 34 OFFCURVE",
"410 34 CURVE SMOOTH",
"314 34 OFFCURVE",
"272 95 OFFCURVE",
"272 168 CURVE",
"218 168 LINE",
"218 60 OFFCURVE",
"292 -14 OFFCURVE",
"410 -14 CURVE SMOOTH",
"518 -14 OFFCURVE",
"582 58 OFFCURVE",
"582 145 CURVE SMOOTH",
"582 229 OFFCURVE",
"529 271 OFFCURVE",
"454 306 CURVE SMOOTH",
"409 327 LINE SMOOTH",
"377 342 OFFCURVE",
"354 357 OFFCURVE",
"354 389 CURVE SMOOTH",
"354 415 OFFCURVE",
"369 433 OFFCURVE",
"387 451 CURVE SMOOTH",
"570 626 LINE",
"570 700 LINE",
"320 700 LINE SMOOTH",
"178 700 OFFCURVE",
"84 620 OFFCURVE",
"84 452 CURVE SMOOTH",
"84 0 LINE"
);
}
);
width = 622;
}
);
leftMetricsKey = U;
note = uni1E9E;
unicode = 1E9E;
},
{
glyphname = T;
lastChange = "2020-05-14 19:24:01 +0000";
layers = (
{
anchors = (
{
name = bottom;
position = "{295, 0}";
},
{
name = strokeC;
position = "{294, 484}";
},
{
name = top;
position = "{294, 700}";
}
);
layerId = "A285862E-BE3D-4D67-A40D-0E28E121AD88";
paths = (
{
closed = 1;
nodes = (
"28 652 LINE",
"267 652 LINE",
"267 0 LINE",
"321 0 LINE",
"321 652 LINE",
"560 652 LINE",
"560 700 LINE",
"28 700 LINE"
);
}
);
width = 588;
}
);
leftKerningGroup = T;
note = T;
rightKerningGroup = T;
unicode = 0054;
},
{
glyphname = U;
lastChange = "2020-05-14 19:26:38 +0000";
layers = (
{
anchors = (
{
name = bottom;
position = "{335, 0}";
},
{
name = horn;
position = "{580, 700}";
},
{
name = ogonek;
position = "{396, 0}";
},
{
name = top;
position = "{332, 700}";
}
);
layerId = "A285862E-BE3D-4D67-A40D-0E28E121AD88";
paths = (
{
closed = 1;
nodes = (
"84 227 LINE SMOOTH",
"84 62 OFFCURVE",
"186 -14 OFFCURVE",
"332 -14 CURVE SMOOTH",
"478 -14 OFFCURVE",
"580 62 OFFCURVE",
"580 227 CURVE SMOOTH",
"580 700 LINE",
"526 700 LINE",
"526 227 LINE SMOOTH",
"526 96 OFFCURVE",
"454 34 OFFCURVE",
"332 34 CURVE SMOOTH",
"210 34 OFFCURVE",
"138 96 OFFCURVE",
"138 227 CURVE SMOOTH",
"138 700 LINE",
"84 700 LINE"
);
}
);
width = 664;
}
);
leftKerningGroup = U;
note = U;
rightKerningGroup = U;
unicode = 0055;
},
{
glyphname = V;
lastChange = "2020-05-14 19:26:12 +0000";
layers = (
{
layerId = "A285862E-BE3D-4D67-A40D-0E28E121AD88";
paths = (
{
closed = 1;
nodes = (
"257 0 LINE",
"357 0 LINE",
"586 700 LINE",
"528 700 LINE",
"312 30 LINE",
"302 30 LINE",
"86 700 LINE",
"28 700 LINE"
);
}
);
width = 614;
}
);
leftKerningGroup = V;
note = V;
rightKerningGroup = V;
unicode = 0056;
},
{
glyphname = W;
lastChange = "2020-05-14 19:25:11 +0000";
layers = (
{
anchors = (
{
name = top;
position = "{430, 700}";
}
);
layerId = "A285862E-BE3D-4D67-A40D-0E28E121AD88";
paths = (
{
closed = 1;
nodes = (
"169 0 LINE",
"273 0 LINE",
"425 670 LINE",
"435 670 LINE",
"587 0 LINE",
"691 0 LINE",
"818 700 LINE",
"762 700 LINE",
"644 30 LINE",
"634 30 LINE",
"482 700 LINE",
"378 700 LINE",
"226 30 LINE",
"216 30 LINE",
"98 700 LINE",
"42 700 LINE"
);
}
);
width = 860;
}
);
leftKerningGroup = W;
note = W;
rightKerningGroup = W;
unicode = 0057;
},
{
glyphname = X;
lastChange = "2020-04-27 08:34:20 +0000";
layers = (
{
layerId = "A285862E-BE3D-4D67-A40D-0E28E121AD88";
paths = (
{
closed = 1;
nodes = (
"276 353 LINE",
"38 0 LINE",
"105 0 LINE",
"311 316 LINE",
"321 316 LINE",
"527 0 LINE",
"594 0 LINE",
"356 353 LINE",
"590 700 LINE",
"523 700 LINE",
"321 390 LINE",
"311 390 LINE",
"109 700 LINE",
"42 700 LINE"
);
}
);
width = 632;
}
);
leftKerningGroup = X;
note = X;
rightKerningGroup = X;
unicode = 0058;
},
{
glyphname = Y;
lastChange = "2020-05-14 19:22:07 +0000";
layers = (
{
anchors = (
{
name = bottom;
position = "{302, 0}";
},
{
name = top;
position = "{302, 700}";
}
);
layerId = "A285862E-BE3D-4D67-A40D-0E28E121AD88";
paths = (
{
closed = 1;
nodes = (
"275 281 LINE",
"275 0 LINE",
"329 0 LINE",
"329 281 LINE",
"584 700 LINE",
"519 700 LINE",
"307 341 LINE",
"297 341 LINE",
"85 700 LINE",
"20 700 LINE"
);
}
);
width = 604;
}
);
leftKerningGroup = Y;
note = Y;
rightKerningGroup = Y;
unicode = 0059;
},
{
glyphname = Z;
lastChange = "2020-05-14 19:28:31 +0000";
layers = (
{
anchors = (
{
name = bottom;
position = "{284, 0}";
},
{
name = top;
position = "{283, 700}";
}
);
layerId = "A285862E-BE3D-4D67-A40D-0E28E121AD88";
paths = (
{
closed = 1;
nodes = (
"66 652 LINE",
"473 652 LINE",
"473 644 LINE",
"54 75 LINE",
"54 0 LINE",
"531 0 LINE",
"531 48 LINE",
"102 48 LINE",
"102 56 LINE",
"521 625 LINE",
"521 700 LINE",
"66 700 LINE"
);
}
);
width = 581;
}
);
leftKerningGroup = Z;
note = Z;
rightKerningGroup = Z;
unicode = 005A;
},
{
glyphname = B.ss02;
lastChange = "2020-04-26 14:26:01 +0000";
layers = (
{
layerId = "A285862E-BE3D-4D67-A40D-0E28E121AD88";
paths = (
{
closed = 1;
nodes = (
"88 0 LINE",
"360 0 LINE SMOOTH",
"479 0 OFFCURVE",
"570 68 OFFCURVE",
"570 182 CURVE SMOOTH",
"570 192 LINE SMOOTH",
"570 289 OFFCURVE",
"505 334 OFFCURVE",
"452 348 CURVE",
"452 358 LINE",
"504 374 OFFCURVE",
"570 419 OFFCURVE",
"570 517 CURVE SMOOTH",
"570 525 LINE SMOOTH",
"570 629 OFFCURVE",
"484 700 OFFCURVE",
"364 700 CURVE SMOOTH",
"88 700 LINE"
);
},
{
closed = 1;
nodes = (
"356 328 LINE SMOOTH",
"462 328 OFFCURVE",
"516 275 OFFCURVE",
"516 192 CURVE SMOOTH",
"516 184 LINE SMOOTH",
"516 101 OFFCURVE",
"462 48 OFFCURVE",
"356 48 CURVE SMOOTH",
"142 48 LINE",
"142 328 LINE"
);
},
{
closed = 1;
nodes = (
"360 652 LINE SMOOTH",
"458 652 OFFCURVE",
"516 598 OFFCURVE",
"516 519 CURVE SMOOTH",
"516 509 LINE SMOOTH",
"516 430 OFFCURVE",
"458 376 OFFCURVE",
"360 376 CURVE SMOOTH",
"142 376 LINE",
"142 652 LINE"
);
}
);
width = 630;
}
);
leftKerningGroup = H;
leftMetricsKey = I;
note = B.alt;
rightKerningGroup = B;
rightMetricsKey = B;
},
{
glyphname = D.ss02;
lastChange = "2020-05-14 19:29:01 +0000";
layers = (
{
anchors = (
{
name = stroke;
position = "{88, 484}";
},
{
name = top;
position = "{293, 700}";
}
);
layerId = "A285862E-BE3D-4D67-A40D-0E28E121AD88";
paths = (
{
closed = 1;
nodes = (
"88 0 LINE",
"286 0 LINE SMOOTH",
"468 0 OFFCURVE",
"576 90 OFFCURVE",
"576 287 CURVE SMOOTH",
"576 413 LINE SMOOTH",
"576 610 OFFCURVE",
"468 700 OFFCURVE",
"286 700 CURVE SMOOTH",
"88 700 LINE"
);
},
{
closed = 1;
nodes = (
"286 652 LINE SMOOTH",
"437 652 OFFCURVE",
"522 582 OFFCURVE",
"522 416 CURVE SMOOTH",
"522 284 LINE SMOOTH",
"522 118 OFFCURVE",
"441 48 OFFCURVE",
"286 48 CURVE SMOOTH",
"142 48 LINE",
"142 652 LINE"
);
}
);
width = 642;
}
);
leftKerningGroup = H;
leftMetricsKey = I;
note = D.alt;
rightKerningGroup = O;
rightMetricsKey = O;
},
{
glyphname = IJ.ss02;
lastChange = "2020-04-26 14:25:24 +0000";
layers = (
{
layerId = "A285862E-BE3D-4D67-A40D-0E28E121AD88";
paths = (
{
closed = 1;
nodes = (
"84 374 LINE",
"138 374 LINE",
"138 700 LINE",
"84 700 LINE"
);
},
{
closed = 1;
nodes = (
"448 210 LINE SMOOTH",
"448 108 OFFCURVE",
"413 34 OFFCURVE",
"300 34 CURVE SMOOTH",
"190 34 OFFCURVE",
"138 107 OFFCURVE",
"138 210 CURVE SMOOTH",
"138 227 LINE",
"84 227 LINE",
"84 210 LINE SMOOTH",
"84 63 OFFCURVE",
"165 -14 OFFCURVE",
"298 -14 CURVE SMOOTH",
"435 -14 OFFCURVE",
"502 65 OFFCURVE",
"502 210 CURVE SMOOTH",
"502 700 LINE",
"448 700 LINE"
);
}
);
width = 586;
}
);
leftKerningGroup = U;
leftMetricsKey = U;
note = IJ;
rightKerningGroup = U;
rightMetricsKey = U;
},
{
glyphname = J.ss02;
lastChange = "2020-04-26 14:25:24 +0000";
layers = (
{
layerId = "A285862E-BE3D-4D67-A40D-0E28E121AD88";
paths = (
{
closed = 1;
nodes = (
"410 700 LINE",
"410 210 LINE SMOOTH",
"410 108 OFFCURVE",
"375 34 OFFCURVE",
"262 34 CURVE SMOOTH",
"152 34 OFFCURVE",
"100 107 OFFCURVE",
"100 210 CURVE SMOOTH",
"100 257 LINE",
"46 257 LINE",
"46 210 LINE SMOOTH",
"46 63 OFFCURVE",
"127 -14 OFFCURVE",
"260 -14 CURVE SMOOTH",
"397 -14 OFFCURVE",
"464 65 OFFCURVE",
"464 210 CURVE SMOOTH",
"464 700 LINE"
);
}
);
width = 548;
}
);
leftKerningGroup = J;
leftMetricsKey = J;
note = J;
rightKerningGroup = U;
rightMetricsKey = U;
},
{
glyphname = I.ss03;
lastChange = "2020-05-13 20:55:20 +0000";
layers = (
{
anchors = (
{
name = bottom;
position = "{195, 0}";
},
{
name = ogonek;
position = "{195, 0}";
},
{
name = top;
position = "{195, 700}";
}
);
layerId = "A285862E-BE3D-4D67-A40D-0E28E121AD88";
paths = (
{
closed = 1;
nodes = (
"48 652 LINE",
"168 652 LINE",
"168 48 LINE",
"48 48 LINE",
"48 0 LINE",
"342 0 LINE",
"342 48 LINE",
"222 48 LINE",
"222 652 LINE",
"342 652 LINE",
"342 700 LINE",
"48 700 LINE"
);
}
);
width = 390;
}
);
leftKerningGroup = Serif;
note = I;
rightKerningGroup = Serif;
},
{
glyphname = a;
lastChange = "2020-05-14 20:06:42 +0000";
layers = (
{
anchors = (
{
name = bottom;
position = "{288, 0}";
},
{
name = ogonek;
position = "{476, 0}";
},
{
name = top;
position = "{280, 484}";
}
);
layerId = "A285862E-BE3D-4D67-A40D-0E28E121AD88";
paths = (
{
closed = 1;
nodes = (
"121 330 LINE",
"139 403 OFFCURVE",
"191 452 OFFCURVE",
"281 452 CURVE SMOOTH",
"371 452 OFFCURVE",
"420 403 OFFCURVE",
"420 320 CURVE SMOOTH",
"420 278 LINE",
"236 278 LINE SMOOTH",
"136 278 OFFCURVE",
"58 232 OFFCURVE",
"58 136 CURVE SMOOTH",
"58 40 OFFCURVE",
"136 -14 OFFCURVE",
"238 -14 CURVE SMOOTH",
"336 -14 OFFCURVE",
"383 29 OFFCURVE",
"412 77 CURVE",
"470 77 LINE",
"470 318 LINE SMOOTH",
"470 430 OFFCURVE",
"401 498 OFFCURVE",
"281 498 CURVE SMOOTH",
"161 498 OFFCURVE",
"95 430 OFFCURVE",
"72 344 CURVE"
);
},
{
closed = 1;
nodes = (
"108 202 OFFCURVE",
"164 234 OFFCURVE",
"236 234 CURVE SMOOTH",
"420 234 LINE",
"420 220 LINE SMOOTH",
"420 100 OFFCURVE",
"348 30 OFFCURVE",
"240 30 CURVE SMOOTH",
"164 30 OFFCURVE",
"108 70 OFFCURVE",
"108 136 CURVE SMOOTH"
);
},
{
closed = 1;
nodes = (
"422 87 LINE",
"422 66 LINE SMOOTH",
"422 24 OFFCURVE",
"446 0 OFFCURVE",
"486 0 CURVE SMOOTH",
"546 0 LINE",
"546 42 LINE",
"498 42 LINE SMOOTH",
"480 42 OFFCURVE",
"470 52 OFFCURVE",
"470 72 CURVE SMOOTH",
"470 87 LINE"
);
}
);
width = 574;
},
{
anchors = (
{
name = bottom;
position = "{282, 0}";
},
{
name = ogonek;
position = "{473, 0}";
},
{
name = top;
position = "{277, 491}";
}
);
associatedMasterId = "A285862E-BE3D-4D67-A40D-0E28E121AD88";
layerId = "FD3E7DFE-38A9-437D-80B0-3567753E73EB";
name = "Medium {530}";
paths = (
{
closed = 1;
nodes = (
"152 331 LINE",
"165 387 OFFCURVE",
"203 427 OFFCURVE",
"277 427 CURVE SMOOTH",
"352 427 OFFCURVE",
"389 386 OFFCURVE",
"389 325 CURVE SMOOTH",
"389 294 LINE",
"233 294 LINE SMOOTH",
"126 294 OFFCURVE",
"47 243 OFFCURVE",
"47 141 CURVE SMOOTH",
"47 42 OFFCURVE",
"126 -14 OFFCURVE",
"232 -14 CURVE SMOOTH",
"339 -14 OFFCURVE",
"376 36 OFFCURVE",
"389 71 CURVE",
"481 71 LINE",
"481 319 LINE SMOOTH",
"481 437 OFFCURVE",
"404 505 OFFCURVE",
"278 505 CURVE SMOOTH",
"153 505 OFFCURVE",
"88 439 OFFCURVE",
"64 359 CURVE"
);
},
{
closed = 1;
nodes = (
"141 191 OFFCURVE",
"180 216 OFFCURVE",
"238 216 CURVE SMOOTH",
"389 216 LINE",
"389 206 LINE SMOOTH",
"389 118 OFFCURVE",
"330 64 OFFCURVE",
"244 64 CURVE SMOOTH",
"180 64 OFFCURVE",
"141 95 OFFCURVE",
"141 143 CURVE SMOOTH"
);
},
{
closed = 1;
nodes = (
"400 130 LINE",
"400 81 LINE SMOOTH",
"400 31 OFFCURVE",
"430 0 OFFCURVE",
"478 0 CURVE SMOOTH",
"552 0 LINE",
"552 78 LINE",
"509 78 LINE SMOOTH",
"491 78 OFFCURVE",
"481 88 OFFCURVE",
"481 108 CURVE SMOOTH",
"481 130 LINE"
);
}
);
width = 576;
}
);
leftKerningGroup = a;
note = a.alt;
rightKerningGroup = a;
unicode = 0061;
},
{
glyphname = ae;
lastChange = "2020-05-14 20:05:45 +0000";
layers = (
{
anchors = (
{
name = top;
position = "{486, 484}";
}
);
layerId = "A285862E-BE3D-4D67-A40D-0E28E121AD88";
paths = (
{
closed = 1;
nodes = (
"121 332 LINE",
"140 405 OFFCURVE",
"196 452 OFFCURVE",
"288 452 CURVE SMOOTH",
"378 452 OFFCURVE",
"434 403 OFFCURVE",
"434 320 CURVE SMOOTH",
"434 275 LINE",
"244 275 LINE SMOOTH",
"139 275 OFFCURVE",
"58 230 OFFCURVE",
"58 134 CURVE SMOOTH",
"58 38 OFFCURVE",
"140 -14 OFFCURVE",
"252 -14 CURVE SMOOTH",
"368 -14 OFFCURVE",
"430 44 OFFCURVE",
"457 115 CURVE",
"482 115 LINE",
"466 252 LINE",
"488 390 LINE",
"468 390 LINE",
"444 457 OFFCURVE",
"379 498 OFFCURVE",
"288 498 CURVE SMOOTH",
"166 498 OFFCURVE",
"95 430 OFFCURVE",
"72 346 CURVE"
);
},
{
closed = 1;
nodes = (
"108 200 OFFCURVE",
"168 231 OFFCURVE",
"244 231 CURVE SMOOTH",
"434 231 LINE",
"434 220 LINE SMOOTH",
"434 99 OFFCURVE",
"360 30 OFFCURVE",
"252 30 CURVE SMOOTH",
"170 30 OFFCURVE",
"108 68 OFFCURVE",
"108 134 CURVE SMOOTH"
);
},
{
closed = 1;
nodes = (
"439 99 OFFCURVE",
"532 -14 OFFCURVE",
"679 -14 CURVE SMOOTH",
"797 -14 OFFCURVE",
"850 51 OFFCURVE",
"885 122 CURVE",
"839 144 LINE",
"812 83 OFFCURVE",
"768 32 OFFCURVE",
"679 32 CURVE SMOOTH",
"568 32 OFFCURVE",
"493 107 OFFCURVE",
"486 231 CURVE",
"895 231 LINE",
"895 263 LINE SMOOTH",
"895 411 OFFCURVE",
"802 498 OFFCURVE",
"670 498 CURVE SMOOTH",
"535 498 OFFCURVE",
"439 389 OFFCURVE",
"439 246 CURVE SMOOTH"
);
},
{
closed = 1;
nodes = (
"498 385 OFFCURVE",
"570 452 OFFCURVE",
"670 452 CURVE SMOOTH",
"771 452 OFFCURVE",
"839 391 OFFCURVE",
"843 275 CURVE",
"486 275 LINE"
);
}
);
width = 957;
},
{
anchors = (
{
name = top;
position = "{462, 491}";
}
);
associatedMasterId = "A285862E-BE3D-4D67-A40D-0E28E121AD88";
layerId = "E352CCE6-A533-42B6-BA97-53E88B97EC6F";
name = "Medium {530}";
paths = (
{
closed = 1;
nodes = (
"146 331 LINE",
"161 387 OFFCURVE",
"203 425 OFFCURVE",
"278 425 CURVE SMOOTH",
"353 425 OFFCURVE",
"396 385 OFFCURVE",
"396 325 CURVE SMOOTH",
"396 290 LINE",
"238 290 LINE SMOOTH",
"127 290 OFFCURVE",
"47 240 OFFCURVE",
"47 140 CURVE SMOOTH",
"47 40 OFFCURVE",
"129 -14 OFFCURVE",
"243 -14 CURVE SMOOTH",
"361 -14 OFFCURVE",
"413 45 OFFCURVE",
"434 92 CURVE",
"461 92 LINE",
"449 257 LINE",
"471 420 LINE",
"446 420 LINE",
"418 471 OFFCURVE",
"363 505 OFFCURVE",
"278 505 CURVE SMOOTH",
"154 505 OFFCURVE",
"86 439 OFFCURVE",
"61 360 CURVE"
);
},
{
closed = 1;
nodes = (
"139 188 OFFCURVE",
"182 212 OFFCURVE",
"243 212 CURVE SMOOTH",
"396 212 LINE",
"396 207 LINE SMOOTH",
"396 119 OFFCURVE",
"337 64 OFFCURVE",
"251 64 CURVE SMOOTH",
"183 64 OFFCURVE",
"139 95 OFFCURVE",
"139 143 CURVE SMOOTH"
);
},
{
closed = 1;
nodes = (
"404 103 OFFCURVE",
"498 -14 OFFCURVE",
"642 -14 CURVE SMOOTH",
"756 -14 OFFCURVE",
"810 44 OFFCURVE",
"847 106 CURVE",
"774 154 LINE",
"752 111 OFFCURVE",
"716 70 OFFCURVE",
"639 70 CURVE SMOOTH",
"551 70 OFFCURVE",
"494 125 OFFCURVE",
"489 212 CURVE",
"859 212 LINE",
"859 265 LINE SMOOTH",
"859 405 OFFCURVE",
"773 505 OFFCURVE",
"634 505 CURVE SMOOTH",
"499 505 OFFCURVE",
"404 394 OFFCURVE",
"404 249 CURVE SMOOTH"
);
},
{
closed = 1;
nodes = (
"496 371 OFFCURVE",
"550 421 OFFCURVE",
"631 421 CURVE SMOOTH",
"710 421 OFFCURVE",
"763 374 OFFCURVE",
"765 290 CURVE",
"489 290 LINE"
);
}
);
width = 909;
}
);
leftKerningGroup = a;
leftMetricsKey = a;
note = ae;
rightKerningGroup = o;
rightMetricsKey = e;
unicode = 00E6;
},
{
glyphname = b;
lastChange = "2020-05-14 19:45:50 +0000";
layers = (
{
layerId = "A285862E-BE3D-4D67-A40D-0E28E121AD88";
paths = (
{
closed = 1;
nodes = (
"90 0 LINE",
"138 0 LINE",
"138 91 LINE",
"148 91 LINE",
"178 38 OFFCURVE",
"234 -14 OFFCURVE",
"344 -14 CURVE SMOOTH",
"476 -14 OFFCURVE",
"578 83 OFFCURVE",
"578 236 CURVE SMOOTH",
"578 248 LINE SMOOTH",
"578 401 OFFCURVE",
"477 498 OFFCURVE",
"344 498 CURVE SMOOTH",
"234 498 OFFCURVE",
"178 447 OFFCURVE",
"150 396 CURVE",
"140 396 LINE",
"140 700 LINE",
"90 700 LINE"
);
},
{
closed = 1;
nodes = (
"449 452 OFFCURVE",
"526 374 OFFCURVE",
"526 246 CURVE SMOOTH",
"526 238 LINE SMOOTH",
"526 110 OFFCURVE",
"448 32 OFFCURVE",
"335 32 CURVE SMOOTH",
"222 32 OFFCURVE",
"140 110 OFFCURVE",
"140 238 CURVE SMOOTH",
"140 246 LINE SMOOTH",
"140 374 OFFCURVE",
"221 452 OFFCURVE",
"335 452 CURVE SMOOTH"
);
}
);
width = 644;
}
);
leftKerningGroup = l;
leftMetricsKey = l;
note = b;
rightKerningGroup = o;
rightMetricsKey = o;
unicode = 0062;
},
{
glyphname = c;
lastChange = "2020-05-14 19:45:57 +0000";
layers = (
{
anchors = (
{
name = bottom;
position = "{315, 0}";
},
{
name = top;
position = "{314, 484}";
}
);
layerId = "A285862E-BE3D-4D67-A40D-0E28E121AD88";
rightMetricsKey = "=o-12";
paths = (
{
closed = 1;
nodes = (
"66 237 LINE SMOOTH",
"66 83 OFFCURVE",
"171 -14 OFFCURVE",
"312 -14 CURVE SMOOTH",
"449 -14 OFFCURVE",
"523 74 OFFCURVE",
"542 170 CURVE",
"492 180 LINE",
"477 97 OFFCURVE",
"418 32 OFFCURVE",
"312 32 CURVE SMOOTH",
"201 32 OFFCURVE",
"118 112 OFFCURVE",
"118 238 CURVE SMOOTH",
"118 246 LINE SMOOTH",
"118 372 OFFCURVE",
"200 452 OFFCURVE",
"311 452 CURVE SMOOTH",
"413 452 OFFCURVE",
"478 387 OFFCURVE",
"489 305 CURVE",
"539 315 LINE",
"525 409 OFFCURVE",
"445 498 OFFCURVE",
"311 498 CURVE SMOOTH",
"170 498 OFFCURVE",
"66 401 OFFCURVE",
"66 247 CURVE SMOOTH"
);
}
);
width = 596;
}
);
leftKerningGroup = o;
leftMetricsKey = o;
note = c;
rightKerningGroup = o;
rightMetricsKey = "=o-4";
unicode = 0063;
},
{
glyphname = d;
lastChange = "2020-05-14 19:44:31 +0000";
layers = (
{
anchors = (
{
name = sidecaron;
position = "{554, 700}";
},
{
name = strokeB;
position = "{554, 484}";
}
);
layerId = "A285862E-BE3D-4D67-A40D-0E28E121AD88";
paths = (
{
closed = 1;
nodes = (
"504 700 LINE",
"504 396 LINE",
"494 396 LINE",
"466 447 OFFCURVE",
"410 498 OFFCURVE",
"300 498 CURVE SMOOTH",
"167 498 OFFCURVE",
"66 401 OFFCURVE",
"66 248 CURVE SMOOTH",
"66 236 LINE SMOOTH",
"66 83 OFFCURVE",
"168 -14 OFFCURVE",
"300 -14 CURVE SMOOTH",
"410 -14 OFFCURVE",
"466 38 OFFCURVE",
"496 91 CURVE",
"506 91 LINE",
"506 0 LINE",
"554 0 LINE",
"554 700 LINE"
);
},
{
closed = 1;
nodes = (
"423 452 OFFCURVE",
"504 374 OFFCURVE",
"504 246 CURVE SMOOTH",
"504 238 LINE SMOOTH",
"504 110 OFFCURVE",
"422 32 OFFCURVE",
"309 32 CURVE SMOOTH",
"196 32 OFFCURVE",
"118 110 OFFCURVE",
"118 238 CURVE SMOOTH",
"118 246 LINE SMOOTH",
"118 374 OFFCURVE",
"195 452 OFFCURVE",
"309 452 CURVE SMOOTH"
);
}
);
width = 644;
}
);
leftKerningGroup = o;
leftMetricsKey = o;
note = d;
rightKerningGroup = l;
rightMetricsKey = l;
unicode = 0064;
},
{
glyphname = eth;
lastChange = "2020-05-14 19:46:05 +0000";
layers = (
{
layerId = "A285862E-BE3D-4D67-A40D-0E28E121AD88";
paths = (
{
closed = 1;
nodes = (
"370 629 OFFCURVE",
"451 526 OFFCURVE",
"481 427 CURVE",
"471 427 LINE",
"436 469 OFFCURVE",
"382 498 OFFCURVE",
"304 498 CURVE SMOOTH",
"162 498 OFFCURVE",
"66 398 OFFCURVE",
"66 248 CURVE SMOOTH",
"66 236 LINE SMOOTH",
"66 86 OFFCURVE",
"163 -14 OFFCURVE",
"310 -14 CURVE SMOOTH",
"458 -14 OFFCURVE",
"554 90 OFFCURVE",
"554 247 CURVE SMOOTH",
"554 514 OFFCURVE",
"425 663 OFFCURVE",
"185 705 CURVE",
"177 662 LINE"
);
},
{
closed = 1;
nodes = (
"116 369 OFFCURVE",
"191 452 OFFCURVE",
"310 452 CURVE SMOOTH",
"428 452 OFFCURVE",
"504 369 OFFCURVE",
"504 246 CURVE SMOOTH",
"504 238 LINE SMOOTH",
"504 115 OFFCURVE",
"427 32 OFFCURVE",
"310 32 CURVE SMOOTH",
"192 32 OFFCURVE",
"116 115 OFFCURVE",
"116 238 CURVE SMOOTH",
"116 246 LINE SMOOTH"
);
},
{
closed = 1;
nodes = (
"264 568 LINE",
"301 549 LINE",
"385 707 LINE",
"348 726 LINE"
);
}
);
width = 614;
}
);
leftKerningGroup = o;
leftMetricsKey = o;
note = eth;
rightKerningGroup = o;
unicode = 00F0;
},
{
glyphname = e;
lastChange = "2020-05-14 19:48:37 +0000";
layers = (
{
anchors = (
{
name = bottom;
position = "{314, 0}";
},
{
name = ogonek;
position = "{369, 0}";
},
{
name = top;
position = "{307, 484}";
}
);
layerId = "A285862E-BE3D-4D67-A40D-0E28E121AD88";
paths = (
{
closed = 1;
nodes = (
"66 236 LINE SMOOTH",
"66 88 OFFCURVE",
"164 -14 OFFCURVE",
"314 -14 CURVE SMOOTH",
"443 -14 OFFCURVE",
"498 57 OFFCURVE",
"531 125 CURVE",
"483 144 LINE",
"455 81 OFFCURVE",
"408 32 OFFCURVE",
"314 32 CURVE SMOOTH",
"201 32 OFFCURVE",
"121 104 OFFCURVE",
"117 235 CURVE",
"538 235 LINE",
"538 263 LINE SMOOTH",
"538 411 OFFCURVE",
"441 498 OFFCURVE",
"307 498 CURVE SMOOTH",
"168 498 OFFCURVE",
"66 396 OFFCURVE",
"66 248 CURVE SMOOTH"
);
},
{
closed = 1;
nodes = (
"130 385 OFFCURVE",
"205 452 OFFCURVE",
"307 452 CURVE SMOOTH",
"410 452 OFFCURVE",
"482 391 OFFCURVE",
"486 279 CURVE",
"118 279 LINE"
);
}
);
width = 600;
},
{
anchors = (
{
name = bottom;
position = "{304, 0}";
},
{
name = ogonek;
position = "{378, 0}";
},
{
name = top;
position = "{300, 491}";
}
);
associatedMasterId = "A285862E-BE3D-4D67-A40D-0E28E121AD88";
layerId = "ED94B97C-BE62-435C-81F1-549793FB848B";
name = "Medium {530}";
paths = (
{
closed = 1;
nodes = (
"55 239 LINE SMOOTH",
"55 87 OFFCURVE",
"154 -14 OFFCURVE",
"304 -14 CURVE SMOOTH",
"437 -14 OFFCURVE",
"494 60 OFFCURVE",
"524 120 CURVE",
"444 159 LINE",
"423 110 OFFCURVE",
"386 70 OFFCURVE",
"306 70 CURVE SMOOTH",
"218 70 OFFCURVE",
"153 125 OFFCURVE",
"150 217 CURVE",
"536 217 LINE",
"536 258 LINE SMOOTH",
"536 408 OFFCURVE",
"440 505 OFFCURVE",
"300 505 CURVE SMOOTH",
"155 505 OFFCURVE",
"55 404 OFFCURVE",
"55 251 CURVE SMOOTH"
);
},
{
closed = 1;
nodes = (
"160 371 OFFCURVE",
"217 421 OFFCURVE",
"299 421 CURVE SMOOTH",
"380 421 OFFCURVE",
"435 374 OFFCURVE",
"441 295 CURVE",
"151 295 LINE"
);
}
);
width = 586;
}
);
leftKerningGroup = o;
leftMetricsKey = o;
note = e;
rightKerningGroup = o;
rightMetricsKey = "=o-4";
unicode = 0065;
},
{
glyphname = f;
lastChange = "2020-05-14 19:51:42 +0000";
layers = (
{
layerId = "A285862E-BE3D-4D67-A40D-0E28E121AD88";
paths = (
{
closed = 1;
nodes = (
"32 440 LINE",
"198 440 LINE",
"198 0 LINE",
"248 0 LINE",
"248 440 LINE",
"416 440 LINE",
"416 484 LINE",
"248 484 LINE",
"248 626 LINE SMOOTH",
"248 646 OFFCURVE",
"258 656 OFFCURVE",
"276 656 CURVE SMOOTH",
"390 656 LINE",
"390 700 LINE",
"262 700 LINE SMOOTH",
"222 700 OFFCURVE",
"198 676 OFFCURVE",
"198 634 CURVE SMOOTH",
"198 484 LINE",
"32 484 LINE"
);
}
);
width = 454;
}
);
leftKerningGroup = t;
note = f;
rightKerningGroup = f;
unicode = 0066;
},
{
glyphname = g;
lastChange = "2020-05-14 19:52:16 +0000";
layers = (
{
anchors = (
{
name = top;
position = "{328, 484}";
}
);
layerId = "A285862E-BE3D-4D67-A40D-0E28E121AD88";
paths = (
{
closed = 1;
nodes = (
"506 484 LINE",
"506 396 LINE",
"496 396 LINE",
"466 447 OFFCURVE",
"409 498 OFFCURVE",
"300 498 CURVE SMOOTH",
"167 498 OFFCURVE",
"66 401 OFFCURVE",
"66 252 CURVE SMOOTH",
"66 240 LINE SMOOTH",
"66 90 OFFCURVE",
"168 -6 OFFCURVE",
"300 -6 CURVE SMOOTH",
"409 -6 OFFCURVE",
"466 45 OFFCURVE",
"494 92 CURVE",
"504 92 LINE",
"504 0 LINE",
"554 0 LINE",
"554 484 LINE"
);
},
{
closed = 1;
nodes = (
"423 452 OFFCURVE",
"504 375 OFFCURVE",
"504 250 CURVE SMOOTH",
"504 242 LINE SMOOTH",
"504 117 OFFCURVE",
"422 40 OFFCURVE",
"309 40 CURVE SMOOTH",
"196 40 OFFCURVE",
"118 117 OFFCURVE",
"118 242 CURVE SMOOTH",
"118 250 LINE SMOOTH",
"118 375 OFFCURVE",
"195 452 OFFCURVE",
"309 452 CURVE SMOOTH"
);
},
{
closed = 1;
nodes = (
"150 -200 LINE",
"490 -200 LINE SMOOTH",
"530 -200 OFFCURVE",
"554 -176 OFFCURVE",
"554 -134 CURVE SMOOTH",
"554 0 LINE",
"504 0 LINE",
"504 -125 LINE SMOOTH",
"504 -145 OFFCURVE",
"494 -155 OFFCURVE",
"476 -155 CURVE SMOOTH",
"150 -155 LINE"
);
}
);
width = 644;
}
);
leftKerningGroup = o;
leftMetricsKey = o;
note = g;
rightKerningGroup = u;
rightMetricsKey = u;
unicode = 0067;
},
{
glyphname = h;
lastChange = "2020-05-14 19:55:09 +0000";
layers = (
{
anchors = (
{
name = strokeA;
position = "{90, 484}";
}
);
layerId = "A285862E-BE3D-4D67-A40D-0E28E121AD88";
paths = (
{
closed = 1;
nodes = (
"90 0 LINE",
"140 0 LINE",
"140 242 LINE SMOOTH",
"140 380 OFFCURVE",
"219 448 OFFCURVE",
"322 448 CURVE SMOOTH",
"415 448 OFFCURVE",
"476 402 OFFCURVE",
"476 292 CURVE SMOOTH",
"476 0 LINE",
"526 0 LINE",
"526 296 LINE SMOOTH",
"526 431 OFFCURVE",
"434 494 OFFCURVE",
"332 494 CURVE SMOOTH",
"226 494 OFFCURVE",
"177 447 OFFCURVE",
"150 402 CURVE",
"140 402 LINE",
"140 700 LINE",
"90 700 LINE"
);
}
);
width = 610;
}
);
leftKerningGroup = l;
leftMetricsKey = l;
note = h;
rightKerningGroup = n;
rightMetricsKey = n;
unicode = 0068;
},
{
glyphname = idotless;
lastChange = "2020-05-12 12:12:50 +0000";
layers = (
{
anchors = (
{
name = bottom;
position = "{115, 0}";
},
{
name = ogonek;
position = "{115, 0}";
},
{
name = top;
position = "{115, 484}";
}
);
layerId = "A285862E-BE3D-4D67-A40D-0E28E121AD88";
paths = (
{
closed = 1;
nodes = (
"90 484 LINE",
"90 0 LINE",
"140 0 LINE",
"140 484 LINE"
);
}
);
width = 230;
}
);
leftKerningGroup = n;
leftMetricsKey = l;
note = dotlessi;
rightKerningGroup = u;
rightMetricsKey = l;
unicode = 0131;
},
{
glyphname = jdotless;
lastChange = "2020-05-14 19:52:26 +0000";
layers = (
{
anchors = (
{
name = top;
position = "{117, 484}";
}
);
layerId = "A285862E-BE3D-4D67-A40D-0E28E121AD88";
paths = (
{
closed = 1;
nodes = (
"92 484 LINE",
"92 -126 LINE SMOOTH",
"92 -146 OFFCURVE",
"82 -156 OFFCURVE",
"64 -156 CURVE SMOOTH",
"-8 -156 LINE",
"-8 -200 LINE",
"78 -200 LINE SMOOTH",
"118 -200 OFFCURVE",
"142 -176 OFFCURVE",
"142 -134 CURVE SMOOTH",
"142 484 LINE"
);
}
);
width = 232;
}
);
leftKerningGroup = n;
note = uni0237;
rightKerningGroup = u;
rightMetricsKey = idotless;
unicode = 0237;
},
{
glyphname = k;
lastChange = "2020-04-26 18:00:02 +0000";
layers = (
{
anchors = (
{
name = bottom;
position = "{276, 0}";
}
);
layerId = "A285862E-BE3D-4D67-A40D-0E28E121AD88";
paths = (
{
closed = 1;
nodes = (
"140 0 LINE",
"140 227 LINE",
"150 227 LINE",
"420 0 LINE",
"496 0 LINE",
"192 252 LINE",
"480 484 LINE",
"403 484 LINE",
"150 277 LINE",
"140 277 LINE",
"140 700 LINE",
"90 700 LINE",
"90 0 LINE"
);
}
);
width = 520;
}
);
leftKerningGroup = l;
leftMetricsKey = l;
note = k;
rightKerningGroup = k;
unicode = 006B;
},
{
glyphname = l;
lastChange = "2020-04-26 18:01:11 +0000";
layers = (
{
anchors = (
{
name = bottom;
position = "{115, 0}";
},
{
name = sidecaron;
position = "{140, 700}";
},
{
name = top;
position = "{115, 700}";
}
);
layerId = "A285862E-BE3D-4D67-A40D-0E28E121AD88";
paths = (
{
closed = 1;
nodes = (
"90 700 LINE",
"90 0 LINE",
"140 0 LINE",
"140 700 LINE"
);
}
);
width = 230;
}
);
leftKerningGroup = l;
note = l;
rightKerningGroup = l;
unicode = 006C;
},
{
glyphname = lslash;
lastChange = "2020-04-26 21:40:54 +0000";
layers = (
{
layerId = "A285862E-BE3D-4D67-A40D-0E28E121AD88";
paths = (
{
closed = 1;
nodes = (
"144 700 LINE",
"144 0 LINE",
"194 0 LINE",
"194 700 LINE"
);
},
{
closed = 1;
nodes = (
"50 206 LINE",
"308 347 LINE",
"288 384 LINE",
"30 243 LINE"
);
}
);
width = 338;
}
);
leftKerningGroup = lslash;
note = lslash;
rightKerningGroup = lslash;
unicode = 0142;
},
{
glyphname = m;
lastChange = "2020-05-14 19:46:28 +0000";
layers = (
{
layerId = "A285862E-BE3D-4D67-A40D-0E28E121AD88";
paths = (
{
closed = 1;
nodes = (
"90 0 LINE",
"140 0 LINE",
"140 295 LINE SMOOTH",
"140 395 OFFCURVE",
"203 448 OFFCURVE",
"282 448 CURVE SMOOTH",
"362 448 OFFCURVE",
"408 399 OFFCURVE",
"408 328 CURVE SMOOTH",
"408 0 LINE",
"458 0 LINE",
"458 295 LINE SMOOTH",
"458 395 OFFCURVE",
"521 448 OFFCURVE",
"600 448 CURVE SMOOTH",
"680 448 OFFCURVE",
"726 399 OFFCURVE",
"726 328 CURVE SMOOTH",
"726 0 LINE",
"776 0 LINE",
"776 334 LINE SMOOTH",
"776 428 OFFCURVE",
"710 494 OFFCURVE",
"611 494 CURVE SMOOTH",
"534 494 OFFCURVE",
"482 460 OFFCURVE",
"453 400 CURVE",
"443 400 LINE",
"422 452 OFFCURVE",
"373 494 OFFCURVE",
"294 494 CURVE SMOOTH",
"220 494 OFFCURVE",
"174 465 OFFCURVE",
"148 419 CURVE",
"138 419 LINE",
"138 484 LINE",
"90 484 LINE"
);
}
);
width = 860;
}
);
leftKerningGroup = n;
leftMetricsKey = idotless;
note = m;
rightKerningGroup = n;
rightMetricsKey = n;
unicode = 006D;
},
{
glyphname = n;
lastChange = "2020-05-14 19:46:36 +0000";
layers = (
{
anchors = (
{
name = bottom;
position = "{308, 0}";
},
{
name = top;
position = "{309, 484}";
}
);
layerId = "A285862E-BE3D-4D67-A40D-0E28E121AD88";
paths = (
{
closed = 1;
nodes = (
"90 0 LINE",
"140 0 LINE",
"140 242 LINE SMOOTH",
"140 380 OFFCURVE",
"219 448 OFFCURVE",
"322 448 CURVE SMOOTH",
"415 448 OFFCURVE",
"476 402 OFFCURVE",
"476 292 CURVE SMOOTH",
"476 0 LINE",
"526 0 LINE",
"526 296 LINE SMOOTH",
"526 431 OFFCURVE",
"434 494 OFFCURVE",
"332 494 CURVE SMOOTH",
"226 494 OFFCURVE",
"174 446 OFFCURVE",
"148 398 CURVE",
"138 398 LINE",
"138 484 LINE",
"90 484 LINE"
);
}
);
width = 610;
}
);
leftKerningGroup = n;
leftMetricsKey = idotless;
note = n;
rightKerningGroup = n;
unicode = 006E;
},
{
glyphname = eng;
lastChange = "2020-05-14 19:52:31 +0000";
layers = (
{
layerId = "A285862E-BE3D-4D67-A40D-0E28E121AD88";
paths = (
{
closed = 1;
nodes = (
"90 0 LINE",
"140 0 LINE",
"140 242 LINE SMOOTH",
"140 380 OFFCURVE",
"219 448 OFFCURVE",
"322 448 CURVE SMOOTH",
"415 448 OFFCURVE",
"476 402 OFFCURVE",
"476 292 CURVE SMOOTH",
"476 0 LINE",
"526 0 LINE",
"526 296 LINE SMOOTH",
"526 431 OFFCURVE",
"434 494 OFFCURVE",
"332 494 CURVE SMOOTH",
"226 494 OFFCURVE",
"174 446 OFFCURVE",
"148 398 CURVE",
"138 398 LINE",
"138 484 LINE",
"90 484 LINE"
);
},
{
closed = 1;
nodes = (
"476 0 LINE",
"476 -126 LINE SMOOTH",
"476 -146 OFFCURVE",
"466 -156 OFFCURVE",
"448 -156 CURVE SMOOTH",
"346 -156 LINE",
"346 -200 LINE",
"462 -200 LINE SMOOTH",
"502 -200 OFFCURVE",
"526 -176 OFFCURVE",
"526 -134 CURVE SMOOTH",
"526 0 LINE"
);
}
);
width = 610;
}
);
leftKerningGroup = n;
leftMetricsKey = n;
note = eng;
rightKerningGroup = n;
rightMetricsKey = n;
unicode = 014B;
},
{
glyphname = o;
lastChange = "2020-05-14 19:47:53 +0000";
layers = (
{
anchors = (
{
name = bottom;
position = "{310, 0}";
},
{
name = horn;
position = "{399, 484}";
},
{
name = top;
position = "{310, 484}";
}
);
layerId = "A285862E-BE3D-4D67-A40D-0E28E121AD88";
paths = (
{
closed = 1;
nodes = (
"66 236 LINE SMOOTH",
"66 88 OFFCURVE",
"162 -14 OFFCURVE",
"310 -14 CURVE SMOOTH",
"458 -14 OFFCURVE",
"554 88 OFFCURVE",
"554 236 CURVE SMOOTH",
"554 248 LINE SMOOTH",
"554 396 OFFCURVE",
"458 498 OFFCURVE",
"310 498 CURVE SMOOTH",
"162 498 OFFCURVE",
"66 396 OFFCURVE",
"66 248 CURVE SMOOTH"
);
},
{
closed = 1;
nodes = (
"116 369 OFFCURVE",
"191 452 OFFCURVE",
"310 452 CURVE SMOOTH",
"428 452 OFFCURVE",
"504 369 OFFCURVE",
"504 246 CURVE SMOOTH",
"504 238 LINE SMOOTH",
"504 115 OFFCURVE",
"427 32 OFFCURVE",
"310 32 CURVE SMOOTH",
"192 32 OFFCURVE",
"116 115 OFFCURVE",
"116 238 CURVE SMOOTH",
"116 246 LINE SMOOTH"
);
}
);
width = 620;
}
);
leftKerningGroup = o;
note = o;
rightKerningGroup = o;
unicode = 006F;
},
{
glyphname = oe;
lastChange = "2020-05-14 20:04:28 +0000";
layers = (
{
layerId = "A285862E-BE3D-4D67-A40D-0E28E121AD88";
paths = (
{
closed = 1;
nodes = (
"66 236 LINE SMOOTH",
"66 88 OFFCURVE",
"162 -14 OFFCURVE",
"310 -14 CURVE SMOOTH",
"413 -14 OFFCURVE",
"491 38 OFFCURVE",
"525 128 CURVE",
"537 128 LINE",
"573 42 OFFCURVE",
"654 -14 OFFCURVE",
"760 -14 CURVE SMOOTH",
"888 -14 OFFCURVE",
"942 57 OFFCURVE",
"975 125 CURVE",
"927 144 LINE",
"899 81 OFFCURVE",
"852 32 OFFCURVE",
"758 32 CURVE SMOOTH",
"645 32 OFFCURVE",
"567 108 OFFCURVE",
"561 235 CURVE",
"982 235 LINE",
"982 263 LINE SMOOTH",
"982 411 OFFCURVE",
"886 498 OFFCURVE",
"753 498 CURVE SMOOTH",
"654 498 OFFCURVE",
"574 443 OFFCURVE",
"537 356 CURVE",
"525 356 LINE",
"491 446 OFFCURVE",
"413 498 OFFCURVE",
"310 498 CURVE SMOOTH",
"162 498 OFFCURVE",
"66 396 OFFCURVE",
"66 248 CURVE SMOOTH"
);
},
{
closed = 1;
nodes = (
"116 369 OFFCURVE",
"191 452 OFFCURVE",
"310 452 CURVE SMOOTH",
"428 452 OFFCURVE",
"504 369 OFFCURVE",
"504 246 CURVE SMOOTH",
"504 238 LINE SMOOTH",
"504 115 OFFCURVE",
"427 32 OFFCURVE",
"310 32 CURVE SMOOTH",
"192 32 OFFCURVE",
"116 115 OFFCURVE",
"116 238 CURVE SMOOTH",
"116 246 LINE SMOOTH"
);
},
{
closed = 1;
nodes = (
"574 385 OFFCURVE",
"649 452 OFFCURVE",
"751 452 CURVE SMOOTH",
"854 452 OFFCURVE",
"926 391 OFFCURVE",
"930 279 CURVE",
"562 279 LINE"
);
}
);
width = 1044;
},
{
associatedMasterId = "A285862E-BE3D-4D67-A40D-0E28E121AD88";
layerId = "47D8E10F-F4CB-4DE1-BD52-540D5A768CC3";
name = "Medium {530}";
paths = (
{
closed = 1;
nodes = (
"55 238 LINE SMOOTH",
"55 83 OFFCURVE",
"159 -14 OFFCURVE",
"304 -14 CURVE SMOOTH",
"402 -14 OFFCURVE",
"472 30 OFFCURVE",
"509 103 CURVE",
"524 103 LINE",
"559 32 OFFCURVE",
"633 -14 OFFCURVE",
"730 -14 CURVE SMOOTH",
"860 -14 OFFCURVE",
"917 60 OFFCURVE",
"947 120 CURVE",
"867 159 LINE",
"846 110 OFFCURVE",
"809 70 OFFCURVE",
"729 70 CURVE SMOOTH",
"640 70 OFFCURVE",
"577 126 OFFCURVE",
"573 217 CURVE",
"959 217 LINE",
"959 258 LINE SMOOTH",
"959 408 OFFCURVE",
"864 505 OFFCURVE",
"723 505 CURVE SMOOTH",
"635 505 OFFCURVE",
"563 460 OFFCURVE",
"524 388 CURVE",
"509 388 LINE",
"472 461 OFFCURVE",
"402 505 OFFCURVE",
"304 505 CURVE SMOOTH",
"159 505 OFFCURVE",
"55 408 OFFCURVE",
"55 253 CURVE SMOOTH"
);
},
{
closed = 1;
nodes = (
"148 356 OFFCURVE",
"212 421 OFFCURVE",
"308 421 CURVE SMOOTH",
"403 421 OFFCURVE",
"467 356 OFFCURVE",
"467 250 CURVE SMOOTH",
"467 241 LINE SMOOTH",
"467 135 OFFCURVE",
"402 70 OFFCURVE",
"308 70 CURVE SMOOTH",
"213 70 OFFCURVE",
"148 135 OFFCURVE",
"148 241 CURVE SMOOTH",
"148 250 LINE SMOOTH"
);
},
{
closed = 1;
nodes = (
"583 371 OFFCURVE",
"639 421 OFFCURVE",
"722 421 CURVE SMOOTH",
"803 421 OFFCURVE",
"858 374 OFFCURVE",
"863 295 CURVE",
"574 295 LINE"
);
}
);
width = 1009;
}
);
leftKerningGroup = o;
leftMetricsKey = o;
note = oe;
rightKerningGroup = o;
rightMetricsKey = e;
unicode = 0153;
},
{
glyphname = p;
lastChange = "2020-05-14 19:46:52 +0000";
layers = (
{
layerId = "A285862E-BE3D-4D67-A40D-0E28E121AD88";
paths = (
{
closed = 1;
nodes = (
"140 -200 LINE",
"140 88 LINE",
"150 88 LINE",
"178 37 OFFCURVE",
"234 -14 OFFCURVE",
"344 -14 CURVE SMOOTH",
"477 -14 OFFCURVE",
"578 83 OFFCURVE",
"578 236 CURVE SMOOTH",
"578 248 LINE SMOOTH",
"578 401 OFFCURVE",
"476 498 OFFCURVE",
"344 498 CURVE SMOOTH",
"234 498 OFFCURVE",
"178 446 OFFCURVE",
"148 393 CURVE",
"138 393 LINE",
"138 484 LINE",
"90 484 LINE",
"90 -200 LINE"
);
},
{
closed = 1;
nodes = (
"221 32 OFFCURVE",
"140 110 OFFCURVE",
"140 238 CURVE SMOOTH",
"140 246 LINE SMOOTH",
"140 374 OFFCURVE",
"222 452 OFFCURVE",
"335 452 CURVE SMOOTH",
"448 452 OFFCURVE",
"526 374 OFFCURVE",
"526 246 CURVE SMOOTH",
"526 238 LINE SMOOTH",
"526 110 OFFCURVE",
"449 32 OFFCURVE",
"335 32 CURVE SMOOTH"
);
}
);
width = 644;
}
);
leftKerningGroup = n;
leftMetricsKey = idotless;
note = p;
rightKerningGroup = o;
rightMetricsKey = o;
unicode = 0070;
},
{
glyphname = thorn;
lastChange = "2020-05-14 19:46:56 +0000";
layers = (
{
layerId = "A285862E-BE3D-4D67-A40D-0E28E121AD88";
paths = (
{
closed = 1;
nodes = (
"140 -200 LINE",
"140 88 LINE",
"150 88 LINE",
"178 37 OFFCURVE",
"234 -14 OFFCURVE",
"344 -14 CURVE SMOOTH",
"477 -14 OFFCURVE",
"578 83 OFFCURVE",
"578 236 CURVE SMOOTH",
"578 248 LINE SMOOTH",
"578 401 OFFCURVE",
"477 498 OFFCURVE",
"344 498 CURVE SMOOTH",
"234 498 OFFCURVE",
"178 447 OFFCURVE",
"150 396 CURVE",
"140 396 LINE",
"140 700 LINE",
"90 700 LINE",
"90 -200 LINE"
);
},
{
closed = 1;
nodes = (
"221 32 OFFCURVE",
"140 110 OFFCURVE",
"140 238 CURVE SMOOTH",
"140 246 LINE SMOOTH",
"140 374 OFFCURVE",
"221 452 OFFCURVE",
"335 452 CURVE SMOOTH",
"449 452 OFFCURVE",
"526 374 OFFCURVE",
"526 246 CURVE SMOOTH",
"526 238 LINE SMOOTH",
"526 110 OFFCURVE",
"449 32 OFFCURVE",
"335 32 CURVE SMOOTH"
);
}
);
width = 644;
}
);
leftKerningGroup = l;
leftMetricsKey = l;
note = thorn;
rightKerningGroup = o;
rightMetricsKey = o;
unicode = 00FE;
},
{
glyphname = q;
lastChange = "2020-05-14 19:47:01 +0000";
layers = (
{
layerId = "A285862E-BE3D-4D67-A40D-0E28E121AD88";
paths = (
{
closed = 1;
nodes = (
"554 484 LINE",
"506 484 LINE",
"506 393 LINE",
"496 393 LINE",
"466 446 OFFCURVE",
"410 498 OFFCURVE",
"300 498 CURVE SMOOTH",
"168 498 OFFCURVE",
"66 401 OFFCURVE",
"66 248 CURVE SMOOTH",
"66 236 LINE SMOOTH",
"66 83 OFFCURVE",
"167 -14 OFFCURVE",
"300 -14 CURVE SMOOTH",
"410 -14 OFFCURVE",
"466 37 OFFCURVE",
"494 88 CURVE",
"504 88 LINE",
"504 -200 LINE",
"554 -200 LINE"
);
},
{
closed = 1;
nodes = (
"195 32 OFFCURVE",
"118 110 OFFCURVE",
"118 238 CURVE SMOOTH",
"118 246 LINE SMOOTH",
"118 374 OFFCURVE",
"196 452 OFFCURVE",
"309 452 CURVE SMOOTH",
"422 452 OFFCURVE",
"504 374 OFFCURVE",
"504 246 CURVE SMOOTH",
"504 238 LINE SMOOTH",
"504 110 OFFCURVE",
"423 32 OFFCURVE",
"309 32 CURVE SMOOTH"
);
}
);
width = 644;
}
);
leftKerningGroup = o;
leftMetricsKey = o;
note = q;
rightKerningGroup = u;
rightMetricsKey = idotless;
unicode = 0071;
},
{
glyphname = r;
lastChange = "2020-05-14 19:51:48 +0000";
layers = (
{
anchors = (
{
name = bottom;
position = "{114, 0}";
},
{
name = top;
position = "{209, 484}";
}
);
layerId = "A285862E-BE3D-4D67-A40D-0E28E121AD88";
paths = (
{
closed = 1;
nodes = (
"90 484 LINE",
"90 0 LINE",
"140 0 LINE",
"140 307 LINE SMOOTH",
"140 398 OFFCURVE",
"187 440 OFFCURVE",
"263 440 CURVE SMOOTH",
"338 440 LINE",
"338 486 LINE",
"270 486 LINE SMOOTH",
"203 486 OFFCURVE",
"168 467 OFFCURVE",
"148 423 CURVE",
"138 423 LINE",
"138 484 LINE"
);
}
);
width = 376;
}
);
leftKerningGroup = n;
leftMetricsKey = idotless;
note = r;
rightKerningGroup = r;
unicode = 0072;
},
{
glyphname = s;
lastChange = "2020-05-14 19:51:04 +0000";
layers = (
{
anchors = (
{
name = bottom;
position = "{272, 0}";
},
{
name = top;
position = "{261, 484}";
}
);
layerId = "A285862E-BE3D-4D67-A40D-0E28E121AD88";
paths = (
{
closed = 1;
nodes = (
"82 283 OFFCURVE",
"148 243 OFFCURVE",
"233 231 CURVE SMOOTH",
"296 222 LINE SMOOTH",
"372 211 OFFCURVE",
"422 188 OFFCURVE",
"422 130 CURVE SMOOTH",
"422 68 OFFCURVE",
"364 30 OFFCURVE",
"280 30 CURVE SMOOTH",
"196 30 OFFCURVE",
"123 65 OFFCURVE",
"106 180 CURVE",
"56 170 LINE",
"75 40 OFFCURVE",
"164 -14 OFFCURVE",
"280 -14 CURVE SMOOTH",
"396 -14 OFFCURVE",
"472 40 OFFCURVE",
"472 130 CURVE SMOOTH",
"472 222 OFFCURVE",
"400 254 OFFCURVE",
"307 267 CURVE SMOOTH",
"244 276 LINE SMOOTH",
"182 285 OFFCURVE",
"132 309 OFFCURVE",
"132 364 CURVE SMOOTH",
"132 422 OFFCURVE",
"184 454 OFFCURVE",
"260 454 CURVE SMOOTH",
"336 454 OFFCURVE",
"393 422 OFFCURVE",
"408 340 CURVE",
"456 351 LINE",
"439 446 OFFCURVE",
"370 498 OFFCURVE",
"260 498 CURVE SMOOTH",
"150 498 OFFCURVE",
"82 446 OFFCURVE",
"82 364 CURVE SMOOTH"
);
}
);
width = 530;
},
{
anchors = (
{
name = bottom;
position = "{281, 0}";
},
{
name = top;
position = "{268, 484}";
}
);
associatedMasterId = "A285862E-BE3D-4D67-A40D-0E28E121AD88";
layerId = "975F05D0-480C-47FB-BB21-37C8741BEED8";
name = "1.1";
paths = (
{
closed = 1;
nodes = (
"73 274 OFFCURVE",
"147 244 OFFCURVE",
"247 229 CURVE SMOOTH",
"301 221 LINE SMOOTH",
"383 209 OFFCURVE",
"442 193 OFFCURVE",
"442 135 CURVE SMOOTH",
"442 73 OFFCURVE",
"380 32 OFFCURVE",
"284 32 CURVE SMOOTH",
"184 32 OFFCURVE",
"115 83 OFFCURVE",
"81 174 CURVE",
"35 155 LINE",
"68 71 OFFCURVE",
"147 -14 OFFCURVE",
"284 -14 CURVE SMOOTH",
"412 -14 OFFCURVE",
"492 48 OFFCURVE",
"492 136 CURVE SMOOTH",
"492 218 OFFCURVE",
"424 250 OFFCURVE",
"309 267 CURVE SMOOTH",
"255 275 LINE SMOOTH",
"182 286 OFFCURVE",
"123 302 OFFCURVE",
"123 366 CURVE SMOOTH",
"123 425 OFFCURVE",
"177 454 OFFCURVE",
"252 454 CURVE SMOOTH",
"330 454 OFFCURVE",
"402 416 OFFCURVE",
"451 339 CURVE",
"492 364 LINE",
"423 459 OFFCURVE",
"347 498 OFFCURVE",
"251 498 CURVE SMOOTH",
"152 498 OFFCURVE",
"73 449 OFFCURVE",
"73 364 CURVE SMOOTH"
);
}
);
width = 536;
}
);
leftKerningGroup = s;
note = s;
rightKerningGroup = s;
unicode = 0073;
},
{
glyphname = germandbls;
lastChange = "2020-05-14 19:54:36 +0000";
layers = (
{
layerId = "A285862E-BE3D-4D67-A40D-0E28E121AD88";
paths = (
{
closed = 1;
nodes = (
"140 0 LINE",
"140 452 LINE SMOOTH",
"140 609 OFFCURVE",
"243 668 OFFCURVE",
"330 668 CURVE SMOOTH",
"403 668 OFFCURVE",
"462 632 OFFCURVE",
"462 567 CURVE SMOOTH",
"462 507 OFFCURVE",
"419 474 OFFCURVE",
"369 448 CURVE SMOOTH",
"331 428 OFFCURVE",
"301 407 OFFCURVE",
"301 363 CURVE SMOOTH",
"301 330 OFFCURVE",
"323 303 OFFCURVE",
"367 282 CURVE SMOOTH",
"402 265 LINE SMOOTH",
"465 235 OFFCURVE",
"531 205 OFFCURVE",
"531 137 CURVE SMOOTH",
"531 69 OFFCURVE",
"481 32 OFFCURVE",
"398 32 CURVE SMOOTH",
"316 32 OFFCURVE",
"255 69 OFFCURVE",
"238 161 CURVE",
"190 152 LINE",
"204 42 OFFCURVE",
"285 -14 OFFCURVE",
"398 -14 CURVE SMOOTH",
"509 -14 OFFCURVE",
"581 43 OFFCURVE",
"581 137 CURVE SMOOTH",
"581 231 OFFCURVE",
"506 266 OFFCURVE",
"431 302 CURVE SMOOTH",
"385 324 LINE SMOOTH",
"363 334 OFFCURVE",
"351 348 OFFCURVE",
"351 363 CURVE SMOOTH",
"351 379 OFFCURVE",
"360 391 OFFCURVE",
"384 404 CURVE SMOOTH",
"454 441 OFFCURVE",
"512 483 OFFCURVE",
"512 567 CURVE SMOOTH",
"512 647 OFFCURVE",
"442 714 OFFCURVE",
"330 714 CURVE SMOOTH",
"189 714 OFFCURVE",
"90 614 OFFCURVE",
"90 448 CURVE SMOOTH",
"90 0 LINE"
);
}
);
width = 613;
}
);
leftMetricsKey = n;
note = germandbls;
unicode = 00DF;
},
{
glyphname = t;
lastChange = "2020-05-14 20:02:21 +0000";
layers = (
{
anchors = (
{
name = bottom;
position = "{265, 0}";
},
{
name = sidecaron;
position = "{246, 748}";
}
);
layerId = "A285862E-BE3D-4D67-A40D-0E28E121AD88";
paths = (
{
closed = 1;
nodes = (
"192 440 LINE",
"192 66 LINE SMOOTH",
"192 24 OFFCURVE",
"216 0 OFFCURVE",
"256 0 CURVE SMOOTH",
"388 0 LINE",
"388 44 LINE",
"270 44 LINE SMOOTH",
"252 44 OFFCURVE",
"242 54 OFFCURVE",
"242 74 CURVE SMOOTH",
"242 440 LINE",
"416 440 LINE",
"416 484 LINE",
"242 484 LINE",
"242 670 LINE",
"192 670 LINE",
"192 484 LINE",
"32 484 LINE",
"32 440 LINE"
);
}
);
width = 462;
}
);
leftKerningGroup = t;
note = t;
rightKerningGroup = t;
unicode = 0074;
},
{
glyphname = tbar;
lastChange = "2020-05-14 19:53:54 +0000";
layers = (
{
layerId = "A285862E-BE3D-4D67-A40D-0E28E121AD88";
paths = (
{
closed = 1;
nodes = (
"192 440 LINE",
"192 66 LINE SMOOTH",
"192 24 OFFCURVE",
"216 0 OFFCURVE",
"256 0 CURVE SMOOTH",
"388 0 LINE",
"388 44 LINE",
"270 44 LINE SMOOTH",
"252 44 OFFCURVE",
"242 54 OFFCURVE",
"242 74 CURVE SMOOTH",
"242 440 LINE",
"416 440 LINE",
"416 484 LINE",
"242 484 LINE",
"242 670 LINE",
"192 670 LINE",
"192 484 LINE",
"32 484 LINE",
"32 440 LINE"
);
},
{
closed = 1;
nodes = (
"32 268 LINE",
"32 226 LINE",
"416 226 LINE",
"416 268 LINE"
);
}
);
width = 462;
}
);
leftKerningGroup = t;
leftMetricsKey = t;
note = tbar;
rightKerningGroup = t;
rightMetricsKey = t;
unicode = 0167;
},
{
glyphname = u;
lastChange = "2020-05-14 19:47:13 +0000";
layers = (
{
anchors = (
{
name = bottom;
position = "{294, 0}";
},
{
name = horn;
position = "{520, 484}";
},
{
name = ogonek;
position = "{496, 0}";
},
{
name = top;
position = "{304, 484}";
}
);
layerId = "A285862E-BE3D-4D67-A40D-0E28E121AD88";
paths = (
{
closed = 1;
nodes = (
"520 484 LINE",
"470 484 LINE",
"470 242 LINE SMOOTH",
"470 104 OFFCURVE",
"391 36 OFFCURVE",
"288 36 CURVE SMOOTH",
"195 36 OFFCURVE",
"134 82 OFFCURVE",
"134 192 CURVE SMOOTH",
"134 484 LINE",
"84 484 LINE",
"84 188 LINE SMOOTH",
"84 53 OFFCURVE",
"176 -10 OFFCURVE",
"278 -10 CURVE SMOOTH",
"384 -10 OFFCURVE",
"436 38 OFFCURVE",
"462 86 CURVE",
"472 86 LINE",
"472 0 LINE",
"520 0 LINE"
);
}
);
width = 610;
}
);
leftKerningGroup = u;
note = u;
rightKerningGroup = u;
rightMetricsKey = idotless;
unicode = 0075;
},
{
glyphname = v;
lastChange = "2020-05-14 20:02:34 +0000";
layers = (
{
layerId = "A285862E-BE3D-4D67-A40D-0E28E121AD88";
paths = (
{
closed = 1;
nodes = (
"229 0 LINE",
"307 0 LINE",
"496 484 LINE",
"441 484 LINE",
"273 40 LINE",
"263 40 LINE",
"95 484 LINE",
"40 484 LINE"
);
}
);
width = 536;
}
);
leftKerningGroup = v;
note = v;
rightKerningGroup = v;
unicode = 0076;
},
{
glyphname = w;
lastChange = "2020-05-12 11:42:31 +0000";
layers = (
{
anchors = (
{
name = top;
position = "{406, 484}";
}
);
layerId = "A285862E-BE3D-4D67-A40D-0E28E121AD88";
paths = (
{
closed = 1;
nodes = (
"177 0 LINE",
"266 0 LINE",
"400 449 LINE",
"412 449 LINE",
"546 0 LINE",
"635 0 LINE",
"752 484 LINE",
"699 484 LINE",
"596 35 LINE",
"584 35 LINE",
"450 484 LINE",
"362 484 LINE",
"228 35 LINE",
"216 35 LINE",
"113 484 LINE",
"60 484 LINE"
);
}
);
width = 812;
}
);
leftKerningGroup = w;
note = w;
rightKerningGroup = w;
unicode = 0077;
},
{
glyphname = x;
lastChange = "2020-04-26 21:47:48 +0000";
layers = (
{
layerId = "A285862E-BE3D-4D67-A40D-0E28E121AD88";
paths = (
{
closed = 1;
nodes = (
"260 247 LINE",
"54 0 LINE",
"120 0 LINE",
"292 213 LINE",
"302 213 LINE",
"474 0 LINE",
"540 0 LINE",
"334 247 LINE",
"532 484 LINE",
"467 484 LINE",
"302 281 LINE",
"292 281 LINE",
"127 484 LINE",
"62 484 LINE"
);
}
);
width = 594;
}
);
leftKerningGroup = x;
note = x;
rightKerningGroup = x;
unicode = 0078;
},
{
glyphname = y;
lastChange = "2020-05-14 19:52:40 +0000";
layers = (
{
anchors = (
{
name = bottom;
position = "{602, -48}";
},
{
name = top;
position = "{302, 484}";
}
);
layerId = "A285862E-BE3D-4D67-A40D-0E28E121AD88";
paths = (
{
closed = 1;
nodes = (
"520 484 LINE",
"470 484 LINE",
"470 242 LINE SMOOTH",
"470 104 OFFCURVE",
"391 36 OFFCURVE",
"288 36 CURVE SMOOTH",
"195 36 OFFCURVE",
"134 82 OFFCURVE",
"134 192 CURVE SMOOTH",
"134 484 LINE",
"84 484 LINE",
"84 188 LINE SMOOTH",
"84 53 OFFCURVE",
"176 -10 OFFCURVE",
"278 -10 CURVE SMOOTH",
"384 -10 OFFCURVE",
"436 38 OFFCURVE",
"462 86 CURVE",
"472 86 LINE",
"472 0 LINE",
"520 0 LINE"
);
},
{
closed = 1;
nodes = (
"154 -200 LINE",
"456 -200 LINE SMOOTH",
"496 -200 OFFCURVE",
"520 -176 OFFCURVE",
"520 -134 CURVE SMOOTH",
"520 0 LINE",
"472 0 LINE",
"472 -125 LINE SMOOTH",
"472 -145 OFFCURVE",
"462 -155 OFFCURVE",
"444 -155 CURVE SMOOTH",
"154 -155 LINE"
);
}
);
width = 610;
},
{
anchors = (
{
name = top;
position = "{274, 484}";
}
);
associatedMasterId = "A285862E-BE3D-4D67-A40D-0E28E121AD88";
layerId = "B72CDA94-854A-4073-A7E2-F6A336532C55";
name = "Sep 28 19, 01:54";
paths = (
{
closed = 1;
nodes = (
"231 0 LINE",
"289 0 LINE",
"236 -200 LINE",
"514 484 LINE",
"458 484 LINE",
"279 30 LINE",
"269 30 LINE",
"90 484 LINE",
"34 484 LINE"
);
},
{
closed = 1;
nodes = (
"236 -200 LINE",
"514 484 LINE",
"458 484 LINE",
"279 30 LINE",
"268 0 LINE",
"180 -200 LINE"
);
}
);
width = 548;
}
);
leftKerningGroup = u;
leftMetricsKey = u;
note = y;
rightKerningGroup = u;
rightMetricsKey = u;
unicode = 0079;
},
{
glyphname = z;
lastChange = "2020-05-14 19:52:46 +0000";
layers = (
{
anchors = (
{
name = top;
position = "{252, 484}";
}
);
layerId = "A285862E-BE3D-4D67-A40D-0E28E121AD88";
paths = (
{
closed = 1;
nodes = (
"76 440 LINE",
"401 440 LINE",
"401 432 LINE",
"66 70 LINE",
"66 0 LINE",
"458 0 LINE",
"458 44 LINE",
"115 44 LINE",
"115 52 LINE",
"450 414 LINE",
"450 484 LINE",
"76 484 LINE"
);
}
);
width = 522;
}
);
leftKerningGroup = z;
note = z;
rightKerningGroup = z;
unicode = 007A;
},
{
glyphname = a.ss01;
lastChange = "2020-05-14 19:53:19 +0000";
layers = (
{
anchors = (
{
name = bottom;
position = "{317, 0}";
},
{
name = ogonek;
position = "{560, 0}";
},
{
name = top;
position = "{328, 484}";
}
);
layerId = "A285862E-BE3D-4D67-A40D-0E28E121AD88";
paths = (
{
closed = 1;
nodes = (
"554 484 LINE",
"506 484 LINE",
"506 393 LINE",
"496 393 LINE",
"466 446 OFFCURVE",
"410 498 OFFCURVE",
"300 498 CURVE SMOOTH",
"168 498 OFFCURVE",
"66 401 OFFCURVE",
"66 248 CURVE SMOOTH",
"66 236 LINE SMOOTH",
"66 83 OFFCURVE",
"167 -14 OFFCURVE",
"300 -14 CURVE SMOOTH",
"410 -14 OFFCURVE",
"466 38 OFFCURVE",
"496 91 CURVE",
"554 91 LINE"
);
},
{
closed = 1;
nodes = (
"195 32 OFFCURVE",
"118 110 OFFCURVE",
"118 238 CURVE SMOOTH",
"118 246 LINE SMOOTH",
"118 374 OFFCURVE",
"196 452 OFFCURVE",
"309 452 CURVE SMOOTH",
"422 452 OFFCURVE",
"504 374 OFFCURVE",
"504 246 CURVE SMOOTH",
"504 238 LINE SMOOTH",
"504 110 OFFCURVE",
"423 32 OFFCURVE",
"309 32 CURVE SMOOTH"
);
},
{
closed = 1;
nodes = (
"506 104 LINE",
"506 66 LINE SMOOTH",
"506 24 OFFCURVE",
"530 0 OFFCURVE",
"570 0 CURVE SMOOTH",
"630 0 LINE",
"630 42 LINE",
"582 42 LINE SMOOTH",
"564 42 OFFCURVE",
"554 52 OFFCURVE",
"554 72 CURVE SMOOTH",
"554 104 LINE"
);
}
);
width = 662;
}
);
leftKerningGroup = o;
leftMetricsKey = o;
note = a;
rightKerningGroup = a.ss01;
},
{
glyphname = f_f.liga;
lastChange = "2020-04-26 17:05:06 +0000";
layers = (
{
anchors = (
{
name = caret_1;
position = "{373, 0}";
}
);
layerId = "A285862E-BE3D-4D67-A40D-0E28E121AD88";
paths = (
{
closed = 1;
nodes = (
"32 440 LINE",
"198 440 LINE",
"198 0 LINE",
"248 0 LINE",
"248 440 LINE",
"416 440 LINE",
"416 484 LINE",
"248 484 LINE",
"248 626 LINE SMOOTH",
"248 646 OFFCURVE",
"258 656 OFFCURVE",
"276 656 CURVE SMOOTH",
"390 656 LINE",
"390 700 LINE",
"262 700 LINE SMOOTH",
"222 700 OFFCURVE",
"198 676 OFFCURVE",
"198 634 CURVE SMOOTH",
"198 484 LINE",
"32 484 LINE"
);
},
{
closed = 1;
nodes = (
"322 440 LINE",
"488 440 LINE",
"488 0 LINE",
"538 0 LINE",
"538 440 LINE",
"706 440 LINE",
"706 484 LINE",
"538 484 LINE",
"538 626 LINE SMOOTH",
"538 646 OFFCURVE",
"548 656 OFFCURVE",
"566 656 CURVE SMOOTH",
"680 656 LINE",
"680 700 LINE",
"552 700 LINE SMOOTH",
"512 700 OFFCURVE",
"488 676 OFFCURVE",
"488 634 CURVE SMOOTH",
"488 484 LINE",
"322 484 LINE"
);
}
);
width = 744;
}
);
leftKerningGroup = t;
leftMetricsKey = f;
note = fi;
rightKerningGroup = f;
rightMetricsKey = f;
},
{
glyphname = f_f_i.liga;
lastChange = "2020-04-26 14:14:48 +0000";
layers = (
{
anchors = (
{
name = caret_1;
position = "{352, 0}";
},
{
name = caret_2;
position = "{660, 0}";
}
);
components = (
{
name = i;
transform = "{1, 0, 0, 1, 696, 0}";
}
);
layerId = "A285862E-BE3D-4D67-A40D-0E28E121AD88";
paths = (
{
closed = 1;
nodes = (
"32 440 LINE",
"198 440 LINE",
"198 0 LINE",
"248 0 LINE",
"248 440 LINE",
"416 440 LINE",
"416 484 LINE",
"248 484 LINE",
"248 626 LINE SMOOTH",
"248 646 OFFCURVE",
"258 656 OFFCURVE",
"276 656 CURVE SMOOTH",
"390 656 LINE",
"390 700 LINE",
"262 700 LINE SMOOTH",
"222 700 OFFCURVE",
"198 676 OFFCURVE",
"198 634 CURVE SMOOTH",
"198 484 LINE",
"32 484 LINE"
);
},
{
closed = 1;
nodes = (
"322 440 LINE",
"488 440 LINE",
"488 0 LINE",
"538 0 LINE",
"538 440 LINE",
"828 440 LINE",
"828 484 LINE",
"538 484 LINE",
"538 626 LINE SMOOTH",
"538 646 OFFCURVE",
"548 656 OFFCURVE",
"566 656 CURVE SMOOTH",
"674 656 LINE",
"674 700 LINE",
"552 700 LINE SMOOTH",
"512 700 OFFCURVE",
"488 676 OFFCURVE",
"488 634 CURVE SMOOTH",
"488 484 LINE",
"322 484 LINE"
);
}
);
width = 926;
}
);
leftKerningGroup = t;
leftMetricsKey = f;
note = fi;
rightKerningGroup = i;
rightMetricsKey = i;
},
{
glyphname = f_f_j.liga;
lastChange = "2020-04-26 14:20:23 +0000";
layers = (
{
anchors = (
{
name = caret_1;
position = "{361, 0}";
},
{
name = caret_2;
position = "{676, 0}";
}
);
components = (
{
name = j;
transform = "{1, 0, 0, 1, 688, 0}";
}
);
layerId = "A285862E-BE3D-4D67-A40D-0E28E121AD88";
paths = (
{
closed = 1;
nodes = (
"32 440 LINE",
"198 440 LINE",
"198 0 LINE",
"248 0 LINE",
"248 440 LINE",
"416 440 LINE",
"416 484 LINE",
"248 484 LINE",
"248 626 LINE SMOOTH",
"248 646 OFFCURVE",
"258 656 OFFCURVE",
"276 656 CURVE SMOOTH",
"390 656 LINE",
"390 700 LINE",
"262 700 LINE SMOOTH",
"222 700 OFFCURVE",
"198 676 OFFCURVE",
"198 634 CURVE SMOOTH",
"198 484 LINE",
"32 484 LINE"
);
},
{
closed = 1;
nodes = (
"322 440 LINE",
"488 440 LINE",
"488 0 LINE",
"538 0 LINE",
"538 440 LINE",
"828 440 LINE",
"828 484 LINE",
"538 484 LINE",
"538 626 LINE SMOOTH",
"538 646 OFFCURVE",
"548 656 OFFCURVE",
"566 656 CURVE SMOOTH",
"674 656 LINE",
"674 700 LINE",
"552 700 LINE SMOOTH",
"512 700 OFFCURVE",
"488 676 OFFCURVE",
"488 634 CURVE SMOOTH",
"488 484 LINE",
"322 484 LINE"
);
}
);
width = 920;
}
);
leftKerningGroup = t;
leftMetricsKey = f;
note = fi;
rightKerningGroup = i;
rightMetricsKey = i;
},
{
glyphname = f_i.liga;
lastChange = "2020-04-26 14:14:48 +0000";
layers = (
{
anchors = (
{
name = caret_1;
position = "{368, 0}";
}
);
components = (
{
name = i;
transform = "{1, 0, 0, 1, 406, 0}";
}
);
layerId = "A285862E-BE3D-4D67-A40D-0E28E121AD88";
paths = (
{
closed = 1;
nodes = (
"32 440 LINE",
"198 440 LINE",
"198 0 LINE",
"248 0 LINE",
"248 440 LINE",
"538 440 LINE",
"538 484 LINE",
"248 484 LINE",
"248 626 LINE SMOOTH",
"248 646 OFFCURVE",
"258 656 OFFCURVE",
"276 656 CURVE SMOOTH",
"384 656 LINE",
"384 700 LINE",
"262 700 LINE SMOOTH",
"222 700 OFFCURVE",
"198 676 OFFCURVE",
"198 634 CURVE SMOOTH",
"198 484 LINE",
"32 484 LINE"
);
}
);
width = 636;
}
);
leftKerningGroup = t;
leftMetricsKey = f;
note = fi;
rightKerningGroup = i;
rightMetricsKey = i;
},
{
glyphname = f_j.liga;
lastChange = "2020-04-26 14:20:23 +0000";
layers = (
{
anchors = (
{
name = caret_1;
position = "{378, 0}";
}
);
components = (
{
name = j;
transform = "{1, 0, 0, 1, 398, 0}";
}
);
layerId = "A285862E-BE3D-4D67-A40D-0E28E121AD88";
paths = (
{
closed = 1;
nodes = (
"32 440 LINE",
"198 440 LINE",
"198 0 LINE",
"248 0 LINE",
"248 440 LINE",
"538 440 LINE",
"538 484 LINE",
"248 484 LINE",
"248 626 LINE SMOOTH",
"248 646 OFFCURVE",
"258 656 OFFCURVE",
"276 656 CURVE SMOOTH",
"384 656 LINE",
"384 700 LINE",
"262 700 LINE SMOOTH",
"222 700 OFFCURVE",
"198 676 OFFCURVE",
"198 634 CURVE SMOOTH",
"198 484 LINE",
"32 484 LINE"
);
}
);
width = 630;
}
);
leftKerningGroup = t;
leftMetricsKey = f;
note = fi;
rightKerningGroup = i;
rightMetricsKey = i;
},
{
glyphname = f_l.liga;
lastChange = "2020-04-26 14:14:48 +0000";
layers = (
{
anchors = (
{
name = caret_1;
position = "{385, 0}";
},
{
name = sidecaron;
position = "{533, 700}";
}
);
layerId = "A285862E-BE3D-4D67-A40D-0E28E121AD88";
paths = (
{
closed = 1;
nodes = (
"488 0 LINE",
"538 0 LINE",
"538 700 LINE",
"488 700 LINE"
);
},
{
closed = 1;
nodes = (
"32 440 LINE",
"198 440 LINE",
"198 0 LINE",
"248 0 LINE",
"248 440 LINE",
"402 440 LINE",
"402 484 LINE",
"248 484 LINE",
"248 626 LINE SMOOTH",
"248 646 OFFCURVE",
"258 656 OFFCURVE",
"276 656 CURVE SMOOTH",
"380 656 LINE",
"380 700 LINE",
"262 700 LINE SMOOTH",
"222 700 OFFCURVE",
"198 676 OFFCURVE",
"198 634 CURVE SMOOTH",
"198 484 LINE",
"32 484 LINE"
);
}
);
width = 628;
}
);
leftKerningGroup = t;
leftMetricsKey = f;
note = fl;
rightKerningGroup = l;
rightMetricsKey = l;
},
{
glyphname = f_lcaron.liga;
lastChange = "2020-04-26 14:17:19 +0000";
layers = (
{
components = (
{
alignment = -1;
name = l;
transform = "{1, 0, 0, 1, 406, 0}";
},
{
name = sidecaron;
transform = "{1, 0, 0, 1, 477, 0}";
}
);
layerId = "A285862E-BE3D-4D67-A40D-0E28E121AD88";
paths = (
{
closed = 1;
nodes = (
"32 440 LINE",
"198 440 LINE",
"198 0 LINE",
"248 0 LINE",
"248 440 LINE",
"402 440 LINE",
"402 484 LINE",
"248 484 LINE",
"248 626 LINE SMOOTH",
"248 646 OFFCURVE",
"258 656 OFFCURVE",
"276 656 CURVE SMOOTH",
"380 656 LINE",
"380 700 LINE",
"262 700 LINE SMOOTH",
"222 700 OFFCURVE",
"198 676 OFFCURVE",
"198 634 CURVE SMOOTH",
"198 484 LINE",
"32 484 LINE"
);
}
);
width = 652;
}
);
leftKerningGroup = t;
leftMetricsKey = f;
note = fl;
rightKerningGroup = lcaron;
rightMetricsKey = lcaron;
},
{
glyphname = t_t.liga;
lastChange = "2020-04-26 14:14:48 +0000";
layers = (
{
anchors = (
{
name = caret_1;
position = "{449, 0}";
}
);
layerId = "A285862E-BE3D-4D67-A40D-0E28E121AD88";
paths = (
{
closed = 1;
nodes = (
"198 440 LINE",
"198 66 LINE SMOOTH",
"198 24 OFFCURVE",
"222 0 OFFCURVE",
"262 0 CURVE SMOOTH",
"390 0 LINE",
"390 44 LINE",
"276 44 LINE SMOOTH",
"258 44 OFFCURVE",
"248 54 OFFCURVE",
"248 74 CURVE SMOOTH",
"248 440 LINE",
"422 440 LINE",
"422 484 LINE",
"248 484 LINE",
"248 670 LINE",
"198 670 LINE",
"198 484 LINE",
"32 484 LINE",
"32 440 LINE"
);
},
{
closed = 1;
nodes = (
"488 440 LINE",
"488 66 LINE SMOOTH",
"488 24 OFFCURVE",
"512 0 OFFCURVE",
"552 0 CURVE SMOOTH",
"684 0 LINE",
"684 44 LINE",
"566 44 LINE SMOOTH",
"548 44 OFFCURVE",
"538 54 OFFCURVE",
"538 74 CURVE SMOOTH",
"538 440 LINE",
"712 440 LINE",
"712 484 LINE",
"538 484 LINE",
"538 670 LINE",
"488 670 LINE",
"488 484 LINE",
"322 484 LINE",
"322 440 LINE"
);
}
);
width = 758;
}
);
leftMetricsKey = t;
rightMetricsKey = t;
},
{
glyphname = ordfeminine;
lastChange = "2019-12-08 14:37:41 +0000";
layers = (
{
background = {
paths = (
{
closed = 1;
nodes = (
"17 594 LINE",
"32 641 OFFCURVE",
"65 675 OFFCURVE",
"127 675 CURVE SMOOTH",
"189 675 OFFCURVE",
"225 640 OFFCURVE",
"225 588 CURVE SMOOTH",
"225 577 LINE",
"91 560 LINE SMOOTH",
"23 551 OFFCURVE",
"-33 525 OFFCURVE",
"-33 462 CURVE SMOOTH",
"-33 399 OFFCURVE",
"21 365 OFFCURVE",
"92 365 CURVE SMOOTH",
"161 365 OFFCURVE",
"200 397 OFFCURVE",
"219 427 CURVE",
"226 427 LINE",
"226 375 LINE",
"271 375 LINE",
"271 585 LINE SMOOTH",
"271 665 OFFCURVE",
"217 716 OFFCURVE",
"128 716 CURVE SMOOTH",
"40 716 OFFCURVE",
"-8 665 OFFCURVE",
"-27 609 CURVE"
);
},
{
closed = 1;
nodes = (
"13 499 OFFCURVE",
"49 517 OFFCURVE",
"96 523 CURVE SMOOTH",
"225 540 LINE",
"225 522 LINE SMOOTH",
"225 444 OFFCURVE",
"167 404 OFFCURVE",
"96 404 CURVE SMOOTH",
"46 404 OFFCURVE",
"13 426 OFFCURVE",
"13 463 CURVE SMOOTH"
);
}
);
};
layerId = "A285862E-BE3D-4D67-A40D-0E28E121AD88";
paths = (
{
closed = 1;
nodes = (
"48 374 OFFCURVE",
"109 340 OFFCURVE",
"183 340 CURVE SMOOTH",
"252 340 OFFCURVE",
"285 369 OFFCURVE",
"302 401 CURVE",
"311 401 LINE",
"311 368 OFFCURVE",
"333 350 OFFCURVE",
"368 350 CURVE SMOOTH",
"405 350 LINE",
"405 388 LINE",
"371 388 LINE SMOOTH",
"358 388 OFFCURVE",
"351 395 OFFCURVE",
"351 410 CURVE SMOOTH",
"351 571 LINE SMOOTH",
"351 651 OFFCURVE",
"298 700 OFFCURVE",
"212 700 CURVE SMOOTH",
"126 700 OFFCURVE",
"75 651 OFFCURVE",
"59 590 CURVE",
"102 580 LINE",
"115 628 OFFCURVE",
"148 660 OFFCURVE",
"212 660 CURVE SMOOTH",
"276 660 OFFCURVE",
"307 628 OFFCURVE",
"307 573 CURVE SMOOTH",
"307 549 LINE",
"180 549 LINE SMOOTH",
"108 549 OFFCURVE",
"48 518 OFFCURVE",
"48 446 CURVE SMOOTH"
);
},
{
closed = 1;
nodes = (
"92 493 OFFCURVE",
"129 511 OFFCURVE",
"181 511 CURVE SMOOTH",
"307 511 LINE",
"307 503 LINE SMOOTH",
"307 424 OFFCURVE",
"262 380 OFFCURVE",
"185 380 CURVE SMOOTH",
"130 380 OFFCURVE",
"92 403 OFFCURVE",
"92 448 CURVE SMOOTH"
);
}
);
userData = {
RMXScaler = {
adjustSpace = 10;
height = 68;
verticalShift = 375;
weight = -30;
width = 70;
};
};
width = 417;
}
);
unicode = 00AA;
userData = {
RMXScaler = {
source = a;
};
};
},
{
glyphname = ordmasculine;
lastChange = "2019-11-07 11:15:27 +0000";
layers = (
{
layerId = "A285862E-BE3D-4D67-A40D-0E28E121AD88";
paths = (
{
closed = 1;
nodes = (
"42 413 OFFCURVE",
"108 340 OFFCURVE",
"214 340 CURVE SMOOTH",
"320 340 OFFCURVE",
"386 413 OFFCURVE",
"386 525 CURVE SMOOTH",
"386 637 OFFCURVE",
"320 710 OFFCURVE",
"214 710 CURVE SMOOTH",
"108 710 OFFCURVE",
"42 637 OFFCURVE",
"42 525 CURVE SMOOTH"
);
},
{
closed = 1;
nodes = (
"86 611 OFFCURVE",
"136 670 OFFCURVE",
"214 670 CURVE SMOOTH",
"292 670 OFFCURVE",
"342 611 OFFCURVE",
"342 525 CURVE SMOOTH",
"342 439 OFFCURVE",
"292 380 OFFCURVE",
"214 380 CURVE SMOOTH",
"136 380 OFFCURVE",
"86 439 OFFCURVE",
"86 525 CURVE SMOOTH"
);
}
);
userData = {
RMXScaler = {
adjustSpace = 10;
height = 68;
verticalShift = 370;
weight = -10;
width = 69;
};
};
width = 428;
}
);
unicode = 00BA;
userData = {
RMXScaler = {
source = o;
};
};
},
{
glyphname = pi;
lastChange = "2017-07-18 09:12:28 +0000";
layers = (
{
layerId = "A285862E-BE3D-4D67-A40D-0E28E121AD88";
paths = (
{
closed = 1;
nodes = (
"201 452 LINE",
"421 452 LINE",
"421 68 LINE SMOOTH",
"421 29 OFFCURVE",
"448 0 OFFCURVE",
"487 0 CURVE SMOOTH",
"540 0 LINE",
"540 44 LINE",
"498 44 LINE SMOOTH",
"480 44 OFFCURVE",
"471 54 OFFCURVE",
"471 74 CURVE SMOOTH",
"471 452 LINE",
"540 452 LINE",
"540 496 LINE",
"83 496 LINE",
"83 452 LINE",
"151 452 LINE",
"151 0 LINE",
"201 0 LINE"
);
}
);
width = 620;
}
);
note = pi;
unicode = 03C0;
},
{
glyphname = zero;
lastChange = "2020-04-27 08:42:02 +0000";
layers = (
{
layerId = "A285862E-BE3D-4D67-A40D-0E28E121AD88";
paths = (
{
closed = 1;
nodes = (
"66 272 LINE SMOOTH",
"66 84 OFFCURVE",
"162 -14 OFFCURVE",
"318 -14 CURVE SMOOTH",
"474 -14 OFFCURVE",
"570 84 OFFCURVE",
"570 272 CURVE SMOOTH",
"570 428 LINE SMOOTH",
"570 616 OFFCURVE",
"474 714 OFFCURVE",
"318 714 CURVE SMOOTH",
"162 714 OFFCURVE",
"66 616 OFFCURVE",
"66 428 CURVE SMOOTH"
);
},
{
closed = 1;
nodes = (
"118 578 OFFCURVE",
"186 666 OFFCURVE",
"318 666 CURVE SMOOTH",
"450 666 OFFCURVE",
"518 578 OFFCURVE",
"518 432 CURVE SMOOTH",
"518 268 LINE SMOOTH",
"518 122 OFFCURVE",
"450 34 OFFCURVE",
"318 34 CURVE SMOOTH",
"186 34 OFFCURVE",
"118 122 OFFCURVE",
"118 268 CURVE SMOOTH",
"118 432 LINE SMOOTH"
);
}
);
width = 636;
}
);
leftKerningGroup = zero;
leftMetricsKey = O;
note = zero;
rightKerningGroup = zero;
rightMetricsKey = O;
unicode = 0030;
},
{
glyphname = one;
lastChange = "2020-04-27 08:41:30 +0000";
layers = (
{
layerId = "A285862E-BE3D-4D67-A40D-0E28E121AD88";
paths = (
{
closed = 1;
nodes = (
"22 404 LINE",
"83 404 LINE",
"244 670 LINE",
"256 670 LINE",
"256 0 LINE",
"308 0 LINE",
"308 700 LINE",
"204 700 LINE"
);
}
);
width = 396;
}
);
leftKerningGroup = one;
note = one;
rightKerningGroup = one;
rightMetricsKey = I;
unicode = 0031;
},
{
glyphname = two;
lastChange = "2020-04-27 08:31:55 +0000";
layers = (
{
layerId = "A285862E-BE3D-4D67-A40D-0E28E121AD88";
paths = (
{
closed = 1;
nodes = (
"66 466 LINE",
"116 466 LINE",
"116 478 LINE SMOOTH",
"116 605 OFFCURVE",
"198 666 OFFCURVE",
"314 666 CURVE SMOOTH",
"422 666 OFFCURVE",
"500 605 OFFCURVE",
"500 503 CURVE SMOOTH",
"500 499 LINE SMOOTH",
"500 389 OFFCURVE",
"428 345 OFFCURVE",
"327 313 CURVE SMOOTH",
"279 298 LINE SMOOTH",
"147 257 OFFCURVE",
"60 217 OFFCURVE",
"60 67 CURVE SMOOTH",
"60 0 LINE",
"546 0 LINE",
"546 48 LINE",
"112 48 LINE",
"112 73 LINE SMOOTH",
"112 189 OFFCURVE",
"179 216 OFFCURVE",
"290 251 CURVE SMOOTH",
"338 266 LINE SMOOTH",
"469 307 OFFCURVE",
"552 360 OFFCURVE",
"552 497 CURVE SMOOTH",
"552 505 LINE SMOOTH",
"552 630 OFFCURVE",
"458 714 OFFCURVE",
"314 714 CURVE SMOOTH",
"170 714 OFFCURVE",
"66 630 OFFCURVE",
"66 478 CURVE SMOOTH"
);
}
);
width = 608;
}
);
leftKerningGroup = two;
note = two;
rightKerningGroup = two;
unicode = 0032;
},
{
glyphname = three;
lastChange = "2020-04-27 08:35:37 +0000";
layers = (
{
layerId = "A285862E-BE3D-4D67-A40D-0E28E121AD88";
paths = (
{
closed = 1;
nodes = (
"68 652 LINE",
"492 652 LINE",
"492 644 LINE",
"203 438 LINE",
"203 364 LINE",
"301 364 LINE SMOOTH",
"405 364 OFFCURVE",
"492 317 OFFCURVE",
"492 209 CURVE SMOOTH",
"492 203 LINE SMOOTH",
"492 106 OFFCURVE",
"421 34 OFFCURVE",
"303 34 CURVE SMOOTH",
"185 34 OFFCURVE",
"104 106 OFFCURVE",
"104 224 CURVE SMOOTH",
"104 245 LINE",
"52 245 LINE",
"52 226 LINE SMOOTH",
"52 72 OFFCURVE",
"157 -14 OFFCURVE",
"303 -14 CURVE SMOOTH",
"449 -14 OFFCURVE",
"544 72 OFFCURVE",
"544 201 CURVE SMOOTH",
"544 211 LINE SMOOTH",
"544 340 OFFCURVE",
"446 410 OFFCURVE",
"312 410 CURVE SMOOTH",
"258 410 LINE",
"258 418 LINE",
"546 623 LINE",
"546 700 LINE",
"68 700 LINE"
);
}
);
width = 602;
}
);
leftKerningGroup = three;
note = three;
rightKerningGroup = three;
unicode = 0033;
},
{
glyphname = four;
lastChange = "2020-04-27 08:32:04 +0000";
layers = (
{
layerId = "A285862E-BE3D-4D67-A40D-0E28E121AD88";
paths = (
{
closed = 1;
nodes = (
"34 190 LINE",
"34 144 LINE",
"418 144 LINE",
"418 0 LINE",
"470 0 LINE",
"470 144 LINE",
"594 144 LINE",
"594 192 LINE",
"470 192 LINE",
"470 700 LINE",
"368 700 LINE"
);
},
{
closed = 1;
nodes = (
"418 670 LINE",
"418 192 LINE",
"95 192 LINE",
"408 670 LINE"
);
}
);
width = 622;
}
);
leftKerningGroup = four;
note = four;
rightKerningGroup = four;
unicode = 0034;
},
{
glyphname = five;
lastChange = "2020-04-26 14:34:28 +0000";
layers = (
{
layerId = "A285862E-BE3D-4D67-A40D-0E28E121AD88";
paths = (
{
closed = 1;
nodes = (
"80 330 LINE",
"162 330 LINE",
"182 369 OFFCURVE",
"220 424 OFFCURVE",
"314 424 CURVE SMOOTH",
"419 424 OFFCURVE",
"490 351 OFFCURVE",
"490 235 CURVE SMOOTH",
"490 227 LINE SMOOTH",
"490 105 OFFCURVE",
"418 34 OFFCURVE",
"300 34 CURVE SMOOTH",
"190 34 OFFCURVE",
"110 95 OFFCURVE",
"110 222 CURVE SMOOTH",
"110 232 LINE",
"58 232 LINE",
"58 218 LINE SMOOTH",
"58 79 OFFCURVE",
"155 -14 OFFCURVE",
"300 -14 CURVE SMOOTH",
"450 -14 OFFCURVE",
"542 87 OFFCURVE",
"542 226 CURVE SMOOTH",
"542 236 LINE SMOOTH",
"542 379 OFFCURVE",
"447 470 OFFCURVE",
"326 470 CURVE SMOOTH",
"214 470 OFFCURVE",
"165 415 OFFCURVE",
"144 372 CURVE",
"132 372 LINE",
"132 652 LINE",
"528 652 LINE",
"528 700 LINE",
"80 700 LINE"
);
}
);
width = 598;
}
);
leftKerningGroup = five;
note = five;
rightKerningGroup = five;
unicode = 0035;
},
{
glyphname = six;
lastChange = "2020-04-27 08:42:44 +0000";
layers = (
{
layerId = "A285862E-BE3D-4D67-A40D-0E28E121AD88";
paths = (
{
closed = 1;
nodes = (
"118 477 LINE SMOOTH",
"118 595 OFFCURVE",
"188 666 OFFCURVE",
"310 666 CURVE SMOOTH",
"428 666 OFFCURVE",
"492 603 OFFCURVE",
"492 506 CURVE",
"544 506 LINE",
"544 621 OFFCURVE",
"464 714 OFFCURVE",
"310 714 CURVE SMOOTH",
"154 714 OFFCURVE",
"66 618 OFFCURVE",
"66 470 CURVE SMOOTH",
"66 222 LINE SMOOTH",
"66 72 OFFCURVE",
"172 -14 OFFCURVE",
"308 -14 CURVE SMOOTH",
"443 -14 OFFCURVE",
"550 73 OFFCURVE",
"550 217 CURVE SMOOTH",
"550 229 LINE SMOOTH",
"550 370 OFFCURVE",
"450 460 OFFCURVE",
"320 460 CURVE SMOOTH",
"214 460 OFFCURVE",
"155 412 OFFCURVE",
"130 367 CURVE",
"118 367 LINE"
);
},
{
closed = 1;
nodes = (
"419 414 OFFCURVE",
"498 340 OFFCURVE",
"498 226 CURVE SMOOTH",
"498 218 LINE SMOOTH",
"498 104 OFFCURVE",
"420 34 OFFCURVE",
"308 34 CURVE SMOOTH",
"196 34 OFFCURVE",
"118 104 OFFCURVE",
"118 218 CURVE SMOOTH",
"118 226 LINE SMOOTH",
"118 340 OFFCURVE",
"197 414 OFFCURVE",
"308 414 CURVE SMOOTH"
);
}
);
width = 608;
}
);
leftKerningGroup = six;
leftMetricsKey = O;
note = six;
rightKerningGroup = six;
unicode = 0036;
},
{
glyphname = seven;
lastChange = "2020-04-27 08:42:08 +0000";
layers = (
{
layerId = "A285862E-BE3D-4D67-A40D-0E28E121AD88";
paths = (
{
closed = 1;
nodes = (
"36 652 LINE",
"478 652 LINE",
"478 644 LINE",
"193 132 LINE SMOOTH",
"170 90 OFFCURVE",
"165 68 OFFCURVE",
"165 24 CURVE SMOOTH",
"165 0 LINE",
"217 0 LINE",
"217 24 LINE SMOOTH",
"217 59 OFFCURVE",
"221 76 OFFCURVE",
"236 103 CURVE SMOOTH",
"534 638 LINE",
"534 700 LINE",
"36 700 LINE"
);
}
);
width = 570;
}
);
leftKerningGroup = seven;
note = seven;
rightKerningGroup = seven;
unicode = 0037;
},
{
glyphname = eight;
lastChange = "2020-04-26 17:20:24 +0000";
layers = (
{
layerId = "A285862E-BE3D-4D67-A40D-0E28E121AD88";
paths = (
{
closed = 1;
nodes = (
"178 714 OFFCURVE",
"72 649 OFFCURVE",
"72 534 CURVE SMOOTH",
"72 524 LINE SMOOTH",
"72 430 OFFCURVE",
"146 384 OFFCURVE",
"200 370 CURVE",
"200 358 LINE",
"146 350 OFFCURVE",
"58 301 OFFCURVE",
"58 190 CURVE SMOOTH",
"58 182 LINE SMOOTH",
"58 65 OFFCURVE",
"154 -14 OFFCURVE",
"318 -14 CURVE SMOOTH",
"482 -14 OFFCURVE",
"578 65 OFFCURVE",
"578 182 CURVE SMOOTH",
"578 190 LINE SMOOTH",
"578 301 OFFCURVE",
"490 350 OFFCURVE",
"436 358 CURVE",
"436 370 LINE",
"490 384 OFFCURVE",
"564 430 OFFCURVE",
"564 524 CURVE SMOOTH",
"564 534 LINE SMOOTH",
"564 649 OFFCURVE",
"458 714 OFFCURVE",
"318 714 CURVE SMOOTH"
);
},
{
closed = 1;
nodes = (
"444 338 OFFCURVE",
"526 289 OFFCURVE",
"526 189 CURVE SMOOTH",
"526 183 LINE SMOOTH",
"526 83 OFFCURVE",
"444 34 OFFCURVE",
"318 34 CURVE SMOOTH",
"192 34 OFFCURVE",
"110 83 OFFCURVE",
"110 183 CURVE SMOOTH",
"110 189 LINE SMOOTH",
"110 289 OFFCURVE",
"192 338 OFFCURVE",
"318 338 CURVE SMOOTH"
);
},
{
closed = 1;
nodes = (
"438 666 OFFCURVE",
"512 617 OFFCURVE",
"512 529 CURVE SMOOTH",
"512 523 LINE SMOOTH",
"512 435 OFFCURVE",
"438 386 OFFCURVE",
"318 386 CURVE SMOOTH",
"198 386 OFFCURVE",
"124 435 OFFCURVE",
"124 523 CURVE SMOOTH",
"124 529 LINE SMOOTH",
"124 617 OFFCURVE",
"198 666 OFFCURVE",
"318 666 CURVE SMOOTH"
);
}
);
width = 636;
}
);
leftKerningGroup = eight;
note = eight;
rightKerningGroup = eight;
unicode = 0038;
},
{
glyphname = nine;
lastChange = "2020-04-27 08:42:42 +0000";
layers = (
{
layerId = "A285862E-BE3D-4D67-A40D-0E28E121AD88";
paths = (
{
closed = 1;
nodes = (
"490 223 LINE SMOOTH",
"490 105 OFFCURVE",
"420 34 OFFCURVE",
"298 34 CURVE SMOOTH",
"180 34 OFFCURVE",
"116 97 OFFCURVE",
"116 194 CURVE",
"64 194 LINE",
"64 79 OFFCURVE",
"144 -14 OFFCURVE",
"298 -14 CURVE SMOOTH",
"454 -14 OFFCURVE",
"542 82 OFFCURVE",
"542 230 CURVE SMOOTH",
"542 478 LINE SMOOTH",
"542 628 OFFCURVE",
"436 714 OFFCURVE",
"300 714 CURVE SMOOTH",
"165 714 OFFCURVE",
"58 627 OFFCURVE",
"58 483 CURVE SMOOTH",
"58 471 LINE SMOOTH",
"58 330 OFFCURVE",
"158 240 OFFCURVE",
"288 240 CURVE SMOOTH",
"394 240 OFFCURVE",
"453 288 OFFCURVE",
"478 333 CURVE",
"490 333 LINE"
);
},
{
closed = 1;
nodes = (
"189 286 OFFCURVE",
"110 360 OFFCURVE",
"110 474 CURVE SMOOTH",
"110 482 LINE SMOOTH",
"110 596 OFFCURVE",
"188 666 OFFCURVE",
"300 666 CURVE SMOOTH",
"412 666 OFFCURVE",
"490 596 OFFCURVE",
"490 482 CURVE SMOOTH",
"490 474 LINE SMOOTH",
"490 360 OFFCURVE",
"411 286 OFFCURVE",
"300 286 CURVE SMOOTH"
);
}
);
width = 608;
}
);
leftKerningGroup = nine;
note = nine;
rightKerningGroup = nine;
rightMetricsKey = O;
unicode = 0039;
},
{
glyphname = zero.zero;
lastChange = "2020-04-26 14:20:43 +0000";
layers = (
{
layerId = "A285862E-BE3D-4D67-A40D-0E28E121AD88";
paths = (
{
closed = 1;
nodes = (
"100 224 LINE",
"122 186 LINE",
"536 476 LINE",
"514 514 LINE"
);
},
{
closed = 1;
nodes = (
"66 272 LINE SMOOTH",
"66 84 OFFCURVE",
"162 -14 OFFCURVE",
"318 -14 CURVE SMOOTH",
"474 -14 OFFCURVE",
"570 84 OFFCURVE",
"570 272 CURVE SMOOTH",
"570 428 LINE SMOOTH",
"570 616 OFFCURVE",
"474 714 OFFCURVE",
"318 714 CURVE SMOOTH",
"162 714 OFFCURVE",
"66 616 OFFCURVE",
"66 428 CURVE SMOOTH"
);
},
{
closed = 1;
nodes = (
"118 578 OFFCURVE",
"188 666 OFFCURVE",
"318 666 CURVE SMOOTH",
"448 666 OFFCURVE",
"518 578 OFFCURVE",
"518 432 CURVE SMOOTH",
"518 268 LINE SMOOTH",
"518 122 OFFCURVE",
"448 34 OFFCURVE",
"318 34 CURVE SMOOTH",
"188 34 OFFCURVE",
"118 122 OFFCURVE",
"118 268 CURVE SMOOTH",
"118 432 LINE SMOOTH"
);
}
);
width = 636;
}
);
leftKerningGroup = zero;
leftMetricsKey = O;
note = zero;
rightKerningGroup = zero;
rightMetricsKey = O;
},
{
glyphname = zero.osf;
lastChange = "2020-05-14 19:56:51 +0000";
layers = (
{
layerId = "A285862E-BE3D-4D67-A40D-0E28E121AD88";
paths = (
{
closed = 1;
nodes = (
"66 93 OFFCURVE",
"166 -14 OFFCURVE",
"318 -14 CURVE SMOOTH",
"470 -14 OFFCURVE",
"570 93 OFFCURVE",
"570 242 CURVE SMOOTH",
"570 391 OFFCURVE",
"470 498 OFFCURVE",
"318 498 CURVE SMOOTH",
"166 498 OFFCURVE",
"66 391 OFFCURVE",
"66 242 CURVE SMOOTH"
);
},
{
closed = 1;
nodes = (
"116 362 OFFCURVE",
"196 452 OFFCURVE",
"318 452 CURVE SMOOTH",
"439 452 OFFCURVE",
"520 367 OFFCURVE",
"520 242 CURVE SMOOTH",
"520 119 OFFCURVE",
"439 32 OFFCURVE",
"318 32 CURVE SMOOTH",
"196 32 OFFCURVE",
"116 114 OFFCURVE",
"116 242 CURVE SMOOTH"
);
}
);
width = 636;
}
);
leftKerningGroup = zero.osf;
leftMetricsKey = o;
note = zero.tosn;
rightKerningGroup = zero.osf;
rightMetricsKey = o;
},
{
glyphname = one.osf;
lastChange = "2020-04-26 17:26:00 +0000";
layers = (
{
layerId = "A285862E-BE3D-4D67-A40D-0E28E121AD88";
paths = (
{
closed = 1;
nodes = (
"40 272 LINE",
"101 272 LINE",
"221 444 LINE",
"231 444 LINE",
"231 0 LINE",
"281 0 LINE",
"281 484 LINE",
"190 484 LINE"
);
}
);
width = 371;
}
);
leftKerningGroup = one.osf;
note = one.tosn;
rightKerningGroup = one.osf;
rightMetricsKey = u;
},
{
glyphname = two.osf;
lastChange = "2020-05-14 19:57:03 +0000";
layers = (
{
layerId = "A285862E-BE3D-4D67-A40D-0E28E121AD88";
paths = (
{
closed = 1;
nodes = (
"117 320 LINE",
"133 414 OFFCURVE",
"206 452 OFFCURVE",
"300 452 CURVE SMOOTH",
"394 452 OFFCURVE",
"455 414 OFFCURVE",
"455 345 CURVE SMOOTH",
"455 276 OFFCURVE",
"399 247 OFFCURVE",
"314 231 CURVE SMOOTH",
"238 217 LINE SMOOTH",
"130 197 OFFCURVE",
"69 138 OFFCURVE",
"69 36 CURVE SMOOTH",
"69 0 LINE",
"505 0 LINE",
"505 46 LINE",
"121 46 LINE",
"121 117 OFFCURVE",
"173 157 OFFCURVE",
"246 170 CURVE SMOOTH",
"322 184 LINE SMOOTH",
"438 205 OFFCURVE",
"507 249 OFFCURVE",
"507 345 CURVE SMOOTH",
"507 441 OFFCURVE",
"422 498 OFFCURVE",
"300 498 CURVE SMOOTH",
"178 498 OFFCURVE",
"84 441 OFFCURVE",
"66 330 CURVE"
);
}
);
width = 569;
}
);
leftKerningGroup = two.osf;
note = two.tosn;
rightKerningGroup = two.osf;
},
{
glyphname = three.osf;
lastChange = "2020-05-14 19:58:15 +0000";
layers = (
{
layerId = "A285862E-BE3D-4D67-A40D-0E28E121AD88";
paths = (
{
closed = 1;
nodes = (
"52 0 LINE",
"60 -140 OFFCURVE",
"158 -214 OFFCURVE",
"297 -214 CURVE SMOOTH",
"425 -214 OFFCURVE",
"523 -128 OFFCURVE",
"523 -4 CURVE SMOOTH",
"523 8 LINE SMOOTH",
"523 135 OFFCURVE",
"426 207 OFFCURVE",
"302 207 CURVE SMOOTH",
"257 207 LINE",
"257 215 LINE",
"525 415 LINE",
"525 484 LINE",
"67 484 LINE",
"67 438 LINE",
"468 438 LINE",
"468 430 LINE",
"200 230 LINE",
"200 162 LINE",
"291 162 LINE SMOOTH",
"388 162 OFFCURVE",
"473 113 OFFCURVE",
"473 8 CURVE SMOOTH",
"473 0 LINE SMOOTH",
"473 -93 OFFCURVE",
"403 -166 OFFCURVE",
"297 -166 CURVE SMOOTH",
"186 -166 OFFCURVE",
"110 -113 OFFCURVE",
"102 6 CURVE"
);
}
);
width = 591;
}
);
leftKerningGroup = three.osf;
note = three.tosn;
rightKerningGroup = three.osf;
},
{
glyphname = four.osf;
lastChange = "2020-05-14 19:58:11 +0000";
layers = (
{
layerId = "A285862E-BE3D-4D67-A40D-0E28E121AD88";
paths = (
{
closed = 1;
nodes = (
"32 44 LINE",
"32 0 LINE",
"408 0 LINE",
"408 -200 LINE",
"458 -200 LINE",
"458 0 LINE",
"584 0 LINE",
"584 46 LINE",
"458 46 LINE",
"458 484 LINE",
"367 484 LINE"
);
},
{
closed = 1;
nodes = (
"408 449 LINE",
"408 46 LINE",
"91 46 LINE",
"398 449 LINE"
);
}
);
width = 612;
}
);
leftKerningGroup = four.osf;
note = four.tosn;
rightKerningGroup = four.osf;
},
{
glyphname = five.osf;
lastChange = "2020-05-14 19:58:08 +0000";
layers = (
{
layerId = "A285862E-BE3D-4D67-A40D-0E28E121AD88";
paths = (
{
closed = 1;
nodes = (
"74 0 LINE",
"81 -131 OFFCURVE",
"173 -214 OFFCURVE",
"309 -214 CURVE SMOOTH",
"453 -214 OFFCURVE",
"544 -115 OFFCURVE",
"544 20 CURVE SMOOTH",
"544 30 LINE SMOOTH",
"544 171 OFFCURVE",
"452 258 OFFCURVE",
"334 258 CURVE SMOOTH",
"228 258 OFFCURVE",
"179 203 OFFCURVE",
"159 160 CURVE",
"147 160 LINE",
"147 438 LINE",
"530 438 LINE",
"530 484 LINE",
"97 484 LINE",
"97 118 LINE",
"176 118 LINE",
"196 157 OFFCURVE",
"236 212 OFFCURVE",
"322 212 CURVE SMOOTH",
"425 212 OFFCURVE",
"494 143 OFFCURVE",
"494 29 CURVE SMOOTH",
"494 21 LINE SMOOTH",
"494 -98 OFFCURVE",
"422 -168 OFFCURVE",
"309 -168 CURVE SMOOTH",
"208 -168 OFFCURVE",
"133 -113 OFFCURVE",
"125 5 CURVE"
);
}
);
width = 606;
}
);
leftKerningGroup = five.osf;
note = five.tosn;
rightKerningGroup = five.osf;
},
{
glyphname = six.osf;
lastChange = "2020-05-14 19:57:55 +0000";
layers = (
{
layerId = "A285862E-BE3D-4D67-A40D-0E28E121AD88";
paths = (
{
closed = 1;
nodes = (
"211 414 OFFCURVE",
"134 340 OFFCURVE",
"134 226 CURVE SMOOTH",
"134 218 LINE SMOOTH",
"134 104 OFFCURVE",
"210 34 OFFCURVE",
"319 34 CURVE SMOOTH",
"428 34 OFFCURVE",
"504 104 OFFCURVE",
"504 218 CURVE SMOOTH",
"504 226 LINE SMOOTH",
"504 340 OFFCURVE",
"427 414 OFFCURVE",
"319 414 CURVE SMOOTH"
);
},
{
closed = 1;
nodes = (
"146 365 LINE",
"170 411 OFFCURVE",
"228 460 OFFCURVE",
"331 460 CURVE SMOOTH",
"455 460 OFFCURVE",
"554 372 OFFCURVE",
"554 229 CURVE SMOOTH",
"554 217 LINE SMOOTH",
"554 73 OFFCURVE",
"450 -14 OFFCURVE",
"319 -14 CURVE SMOOTH",
"187 -14 OFFCURVE",
"84 72 OFFCURVE",
"84 222 CURVE SMOOTH",
"84 470 LINE SMOOTH",
"84 618 OFFCURVE",
"172 714 OFFCURVE",
"323 714 CURVE SMOOTH",
"461 714 OFFCURVE",
"537 631 OFFCURVE",
"547 524 CURVE",
"496 517 LINE",
"490 609 OFFCURVE",
"431 668 OFFCURVE",
"323 668 CURVE SMOOTH",
"205 668 OFFCURVE",
"134 596 OFFCURVE",
"134 477 CURVE SMOOTH",
"134 365 LINE"
);
}
);
width = 622;
}
);
leftKerningGroup = six.osf;
note = six.tosn;
rightKerningGroup = six.osf;
},
{
glyphname = seven.osf;
lastChange = "2020-05-14 19:58:05 +0000";
layers = (
{
layerId = "A285862E-BE3D-4D67-A40D-0E28E121AD88";
paths = (
{
closed = 1;
nodes = (
"44 438 LINE",
"476 438 LINE",
"476 430 LINE",
"205 -74 LINE SMOOTH",
"182 -116 OFFCURVE",
"177 -138 OFFCURVE",
"177 -182 CURVE SMOOTH",
"177 -200 LINE",
"225 -200 LINE",
"225 -182 LINE SMOOTH",
"225 -147 OFFCURVE",
"229 -130 OFFCURVE",
"244 -103 CURVE SMOOTH",
"528 426 LINE",
"528 484 LINE",
"44 484 LINE"
);
}
);
width = 576;
}
);
leftKerningGroup = seven.osf;
note = seven.tosn;
rightKerningGroup = seven.osf;
},
{
glyphname = eight.osf;
lastChange = "2020-05-14 19:58:50 +0000";
layers = (
{
layerId = "A285862E-BE3D-4D67-A40D-0E28E121AD88";
paths = (
{
closed = 1;
nodes = (
"177 714 OFFCURVE",
"81 644 OFFCURVE",
"81 536 CURVE SMOOTH",
"81 528 LINE SMOOTH",
"81 433 OFFCURVE",
"152 385 OFFCURVE",
"202 370 CURVE",
"202 358 LINE",
"152 350 OFFCURVE",
"68 298 OFFCURVE",
"68 190 CURVE SMOOTH",
"68 180 LINE SMOOTH",
"68 56 OFFCURVE",
"169 -14 OFFCURVE",
"314 -14 CURVE SMOOTH",
"459 -14 OFFCURVE",
"560 56 OFFCURVE",
"560 180 CURVE SMOOTH",
"560 190 LINE SMOOTH",
"560 298 OFFCURVE",
"476 350 OFFCURVE",
"426 358 CURVE",
"426 370 LINE",
"476 385 OFFCURVE",
"547 433 OFFCURVE",
"547 528 CURVE SMOOTH",
"547 536 LINE SMOOTH",
"547 644 OFFCURVE",
"451 714 OFFCURVE",
"314 714 CURVE SMOOTH"
);
},
{
closed = 1;
nodes = (
"427 339 OFFCURVE",
"510 290 OFFCURVE",
"510 190 CURVE SMOOTH",
"510 182 LINE SMOOTH",
"510 84 OFFCURVE",
"425 32 OFFCURVE",
"314 32 CURVE SMOOTH",
"203 32 OFFCURVE",
"118 84 OFFCURVE",
"118 182 CURVE SMOOTH",
"118 190 LINE SMOOTH",
"118 290 OFFCURVE",
"202 339 OFFCURVE",
"314 339 CURVE SMOOTH"
);
},
{
closed = 1;
nodes = (
"416 668 OFFCURVE",
"497 618 OFFCURVE",
"497 530 CURVE SMOOTH",
"497 522 LINE SMOOTH",
"497 434 OFFCURVE",
"417 385 OFFCURVE",
"314 385 CURVE SMOOTH",
"211 385 OFFCURVE",
"131 434 OFFCURVE",
"131 522 CURVE SMOOTH",
"131 530 LINE SMOOTH",
"131 618 OFFCURVE",
"212 668 OFFCURVE",
"314 668 CURVE SMOOTH"
);
}
);
width = 628;
}
);
leftKerningGroup = eight.osf;
note = eight.tosn;
rightKerningGroup = eight.osf;
},
{
glyphname = nine.osf;
lastChange = "2020-05-14 19:58:57 +0000";
layers = (
{
layerId = "A285862E-BE3D-4D67-A40D-0E28E121AD88";
paths = (
{
closed = 1;
nodes = (
"411 70 OFFCURVE",
"488 144 OFFCURVE",
"488 258 CURVE SMOOTH",
"488 266 LINE SMOOTH",
"488 380 OFFCURVE",
"412 450 OFFCURVE",
"303 450 CURVE SMOOTH",
"194 450 OFFCURVE",
"118 380 OFFCURVE",
"118 266 CURVE SMOOTH",
"118 258 LINE SMOOTH",
"118 144 OFFCURVE",
"195 70 OFFCURVE",
"303 70 CURVE SMOOTH"
);
},
{
closed = 1;
nodes = (
"476 119 LINE",
"452 73 OFFCURVE",
"394 24 OFFCURVE",
"291 24 CURVE SMOOTH",
"165 24 OFFCURVE",
"68 112 OFFCURVE",
"68 255 CURVE SMOOTH",
"68 267 LINE SMOOTH",
"68 411 OFFCURVE",
"172 498 OFFCURVE",
"303 498 CURVE SMOOTH",
"435 498 OFFCURVE",
"538 412 OFFCURVE",
"538 262 CURVE SMOOTH",
"538 30 LINE SMOOTH",
"538 -118 OFFCURVE",
"453 -214 OFFCURVE",
"303 -214 CURVE SMOOTH",
"163 -214 OFFCURVE",
"85 -136 OFFCURVE",
"73 -36 CURVE",
"124 -29 LINE",
"132 -114 OFFCURVE",
"193 -168 OFFCURVE",
"303 -168 CURVE SMOOTH",
"420 -168 OFFCURVE",
"488 -96 OFFCURVE",
"488 23 CURVE SMOOTH",
"488 119 LINE"
);
}
);
width = 622;
}
);
leftKerningGroup = nine.osf;
note = nine.tosn;
rightKerningGroup = nine.osf;
},
{
glyphname = zero.osf.zero;
lastChange = "2020-05-14 19:59:02 +0000";
layers = (
{
layerId = "A285862E-BE3D-4D67-A40D-0E28E121AD88";
paths = (
{
closed = 1;
nodes = (
"66 93 OFFCURVE",
"166 -14 OFFCURVE",
"318 -14 CURVE SMOOTH",
"470 -14 OFFCURVE",
"570 93 OFFCURVE",
"570 242 CURVE SMOOTH",
"570 391 OFFCURVE",
"470 498 OFFCURVE",
"318 498 CURVE SMOOTH",
"166 498 OFFCURVE",
"66 391 OFFCURVE",
"66 242 CURVE SMOOTH"
);
},
{
closed = 1;
nodes = (
"116 362 OFFCURVE",
"196 452 OFFCURVE",
"318 452 CURVE SMOOTH",
"439 452 OFFCURVE",
"520 367 OFFCURVE",
"520 242 CURVE SMOOTH",
"520 119 OFFCURVE",
"439 32 OFFCURVE",
"318 32 CURVE SMOOTH",
"196 32 OFFCURVE",
"116 114 OFFCURVE",
"116 242 CURVE SMOOTH"
);
},
{
closed = 1;
nodes = (
"126 137 LINE",
"148 99 LINE",
"510 347 LINE",
"488 385 LINE"
);
}
);
width = 636;
}
);
leftKerningGroup = zero.osf;
leftMetricsKey = o;
note = zero.tosn;
rightKerningGroup = zero.osf;
rightMetricsKey = o;
},
{
glyphname = one.tf;
lastChange = "2020-04-22 10:48:26 +0000";
layers = (
{
layerId = "A285862E-BE3D-4D67-A40D-0E28E121AD88";
paths = (
{
closed = 1;
nodes = (
"62 48 LINE",
"62 0 LINE",
"586 0 LINE",
"586 48 LINE"
);
},
{
closed = 1;
nodes = (
"104 404 LINE",
"165 404 LINE",
"316 665 LINE",
"328 665 LINE",
"328 0 LINE",
"380 0 LINE",
"380 700 LINE",
"279 700 LINE"
);
}
);
width = 620;
}
);
note = one;
},
{
glyphname = four.tf;
lastChange = "2020-04-26 13:51:31 +0000";
layers = (
{
layerId = "A285862E-BE3D-4D67-A40D-0E28E121AD88";
paths = (
{
closed = 1;
nodes = (
"40 190 LINE",
"40 144 LINE",
"416 144 LINE",
"416 0 LINE",
"468 0 LINE",
"468 144 LINE",
"592 144 LINE",
"592 192 LINE",
"468 192 LINE",
"468 700 LINE",
"377 700 LINE"
);
},
{
closed = 1;
nodes = (
"416 648 LINE",
"416 192 LINE",
"100 192 LINE",
"404 648 LINE"
);
}
);
width = 620;
}
);
note = four;
},
{
glyphname = seven.tf;
lastChange = "2020-04-26 13:22:05 +0000";
layers = (
{
layerId = "A285862E-BE3D-4D67-A40D-0E28E121AD88";
paths = (
{
closed = 1;
nodes = (
"45 652 LINE",
"514 652 LINE",
"514 644 LINE",
"216 132 LINE SMOOTH",
"192 91 OFFCURVE",
"188 68 OFFCURVE",
"188 24 CURVE SMOOTH",
"188 0 LINE",
"240 0 LINE",
"240 24 LINE SMOOTH",
"240 59 OFFCURVE",
"243 76 OFFCURVE",
"259 103 CURVE SMOOTH",
"571 638 LINE",
"571 700 LINE",
"45 700 LINE"
);
}
);
width = 620;
}
);
note = seven;
},
{
glyphname = one.tosf;
lastChange = "2020-05-14 19:59:21 +0000";
layers = (
{
layerId = "A285862E-BE3D-4D67-A40D-0E28E121AD88";
paths = (
{
closed = 1;
nodes = (
"60 46 LINE",
"60 0 LINE",
"586 0 LINE",
"586 46 LINE"
);
},
{
closed = 1;
nodes = (
"140 272 LINE",
"201 272 LINE",
"321 444 LINE",
"331 444 LINE",
"331 0 LINE",
"381 0 LINE",
"381 484 LINE",
"290 484 LINE"
);
}
);
width = 620;
}
);
note = one.tosn;
},
{
glyphname = seven.tosf;
lastChange = "2020-05-14 19:59:29 +0000";
layers = (
{
layerId = "A285862E-BE3D-4D67-A40D-0E28E121AD88";
paths = (
{
closed = 1;
nodes = (
"54 438 LINE",
"509 438 LINE",
"509 430 LINE",
"227 -74 LINE SMOOTH",
"204 -116 OFFCURVE",
"199 -138 OFFCURVE",
"199 -182 CURVE SMOOTH",
"199 -200 LINE",
"247 -200 LINE",
"247 -182 LINE SMOOTH",
"247 -147 OFFCURVE",
"251 -130 OFFCURVE",
"266 -103 CURVE SMOOTH",
"562 426 LINE",
"562 484 LINE",
"54 484 LINE"
);
}
);
width = 620;
}
);
note = seven.tosn;
},
{
glyphname = zero.dnom;
lastChange = "2020-04-26 17:06:24 +0000";
layers = (
{
layerId = "A285862E-BE3D-4D67-A40D-0E28E121AD88";
paths = (
{
closed = 1;
nodes = (
"44 149 LINE SMOOTH",
"44 51 OFFCURVE",
"104 -10 OFFCURVE",
"202 -10 CURVE SMOOTH",
"300 -10 OFFCURVE",
"360 51 OFFCURVE",
"360 149 CURVE SMOOTH",
"360 200 LINE SMOOTH",
"360 298 OFFCURVE",
"300 360 OFFCURVE",
"202 360 CURVE SMOOTH",
"104 360 OFFCURVE",
"44 298 OFFCURVE",
"44 200 CURVE SMOOTH"
);
},
{
closed = 1;
nodes = (
"88 274 OFFCURVE",
"131 320 OFFCURVE",
"202 320 CURVE SMOOTH",
"273 320 OFFCURVE",
"316 274 OFFCURVE",
"316 205 CURVE SMOOTH",
"316 145 LINE SMOOTH",
"316 76 OFFCURVE",
"273 30 OFFCURVE",
"202 30 CURVE SMOOTH",
"131 30 OFFCURVE",
"88 76 OFFCURVE",
"88 145 CURVE SMOOTH",
"88 205 LINE SMOOTH"
);
}
);
width = 404;
}
);
leftKerningGroup = zero.dnom;
rightKerningGroup = zero.dnom;
},
{
glyphname = one.dnom;
lastChange = "2020-04-26 17:11:29 +0000";
layers = (
{
layerId = "A285862E-BE3D-4D67-A40D-0E28E121AD88";
paths = (
{
closed = 1;
nodes = (
"20 194 LINE",
"71 194 LINE",
"134 290 LINE",
"144 290 LINE",
"144 0 LINE",
"188 0 LINE",
"188 350 LINE",
"126 350 LINE"
);
}
);
width = 242;
}
);
leftKerningGroup = one.dnom;
rightKerningGroup = one.dnom;
},
{
glyphname = two.dnom;
lastChange = "2020-04-26 17:10:39 +0000";
layers = (
{
layerId = "A285862E-BE3D-4D67-A40D-0E28E121AD88";
paths = (
{
closed = 1;
nodes = (
"73 232 LINE",
"78 295 OFFCURVE",
"123 324 OFFCURVE",
"188 324 CURVE SMOOTH",
"250 324 OFFCURVE",
"290 292 OFFCURVE",
"290 247 CURVE SMOOTH",
"290 199 OFFCURVE",
"252 176 OFFCURVE",
"170 157 CURVE SMOOTH",
"74 135 OFFCURVE",
"28 90 OFFCURVE",
"28 22 CURVE SMOOTH",
"28 0 LINE",
"332 0 LINE",
"332 40 LINE",
"74 40 LINE",
"81 86 OFFCURVE",
"121 104 OFFCURVE",
"204 124 CURVE SMOOTH",
"287 144 OFFCURVE",
"334 174 OFFCURVE",
"334 247 CURVE SMOOTH",
"334 319 OFFCURVE",
"276 364 OFFCURVE",
"188 364 CURVE SMOOTH",
"100 364 OFFCURVE",
"37 323 OFFCURVE",
"29 234 CURVE"
);
}
);
width = 366;
}
);
leftKerningGroup = two.dnom;
rightKerningGroup = two.dnom;
},
{
glyphname = three.dnom;
lastChange = "2020-04-26 17:11:23 +0000";
layers = (
{
layerId = "A285862E-BE3D-4D67-A40D-0E28E121AD88";
paths = (
{
closed = 1;
nodes = (
"32 113 LINE",
"37 30 OFFCURVE",
"106 -14 OFFCURVE",
"192 -14 CURVE SMOOTH",
"280 -14 OFFCURVE",
"346 32 OFFCURVE",
"346 104 CURVE SMOOTH",
"346 180 OFFCURVE",
"292 212 OFFCURVE",
"201 214 CURVE",
"201 222 LINE",
"344 296 LINE",
"344 350 LINE",
"40 350 LINE",
"40 310 LINE",
"276 310 LINE",
"276 302 LINE",
"132 226 LINE",
"132 178 LINE",
"190 178 LINE SMOOTH",
"261 178 OFFCURVE",
"302 156 OFFCURVE",
"302 104 CURVE SMOOTH",
"302 56 OFFCURVE",
"256 26 OFFCURVE",
"192 26 CURVE SMOOTH",
"129 26 OFFCURVE",
"79 55 OFFCURVE",
"76 116 CURVE"
);
}
);
width = 382;
}
);
leftKerningGroup = three.dnom;
rightKerningGroup = three.dnom;
},
{
glyphname = four.dnom;
lastChange = "2020-04-26 17:12:14 +0000";
layers = (
{
layerId = "A285862E-BE3D-4D67-A40D-0E28E121AD88";
paths = (
{
closed = 1;
nodes = (
"22 124 LINE",
"22 90 LINE",
"247 90 LINE",
"247 0 LINE",
"291 0 LINE",
"291 90 LINE",
"378 90 LINE",
"378 130 LINE",
"291 130 LINE",
"291 350 LINE",
"219 350 LINE"
);
},
{
closed = 1;
nodes = (
"247 310 LINE",
"247 130 LINE",
"81 130 LINE",
"237 310 LINE"
);
}
);
width = 394;
}
);
leftKerningGroup = four.dnom;
rightKerningGroup = four.dnom;
},
{
glyphname = five.dnom;
lastChange = "2020-04-26 17:11:06 +0000";
layers = (
{
layerId = "A285862E-BE3D-4D67-A40D-0E28E121AD88";
paths = (
{
closed = 1;
nodes = (
"38 101 LINE",
"47 34 OFFCURVE",
"104 -14 OFFCURVE",
"197 -14 CURVE SMOOTH",
"293 -14 OFFCURVE",
"349 38 OFFCURVE",
"349 116 CURVE SMOOTH",
"349 194 OFFCURVE",
"293 238 OFFCURVE",
"212 238 CURVE SMOOTH",
"148 238 OFFCURVE",
"117 210 OFFCURVE",
"103 199 CURVE",
"93 199 LINE",
"93 310 LINE",
"339 310 LINE",
"339 350 LINE",
"49 350 LINE",
"49 155 LINE",
"108 155 LINE",
"121 169 OFFCURVE",
"149 198 OFFCURVE",
"204 198 CURVE SMOOTH",
"262 198 OFFCURVE",
"305 167 OFFCURVE",
"305 115 CURVE SMOOTH",
"305 63 OFFCURVE",
"265 26 OFFCURVE",
"197 26 CURVE SMOOTH",
"131 26 OFFCURVE",
"89 61 OFFCURVE",
"83 106 CURVE"
);
}
);
width = 381;
}
);
leftKerningGroup = five.dnom;
rightKerningGroup = five.dnom;
},
{
glyphname = six.dnom;
lastChange = "2020-04-26 17:10:31 +0000";
layers = (
{
layerId = "A285862E-BE3D-4D67-A40D-0E28E121AD88";
paths = (
{
closed = 1;
nodes = (
"351 262 LINE",
"344 322 OFFCURVE",
"289 364 OFFCURVE",
"200 364 CURVE SMOOTH",
"109 364 OFFCURVE",
"44 309 OFFCURVE",
"44 230 CURVE SMOOTH",
"44 111 LINE SMOOTH",
"44 36 OFFCURVE",
"109 -14 OFFCURVE",
"201 -14 CURVE SMOOTH",
"293 -14 OFFCURVE",
"358 36 OFFCURVE",
"358 113 CURVE SMOOTH",
"358 190 OFFCURVE",
"293 236 OFFCURVE",
"213 236 CURVE SMOOTH",
"140 236 OFFCURVE",
"110 208 OFFCURVE",
"98 198 CURVE",
"88 198 LINE",
"88 230 LINE SMOOTH",
"88 284 OFFCURVE",
"130 324 OFFCURVE",
"200 324 CURVE SMOOTH",
"269 324 OFFCURVE",
"302 293 OFFCURVE",
"308 258 CURVE"
);
},
{
closed = 1;
nodes = (
"88 160 OFFCURVE",
"131 196 OFFCURVE",
"201 196 CURVE SMOOTH",
"271 196 OFFCURVE",
"314 160 OFFCURVE",
"314 112 CURVE SMOOTH",
"314 64 OFFCURVE",
"271 26 OFFCURVE",
"201 26 CURVE SMOOTH",
"131 26 OFFCURVE",
"88 64 OFFCURVE",
"88 112 CURVE SMOOTH"
);
}
);
width = 396;
}
);
leftKerningGroup = six.dnom;
rightKerningGroup = six.dnom;
},
{
glyphname = seven.dnom;
lastChange = "2020-04-26 17:10:59 +0000";
layers = (
{
layerId = "A285862E-BE3D-4D67-A40D-0E28E121AD88";
paths = (
{
closed = 1;
nodes = (
"20 310 LINE",
"271 310 LINE",
"271 302 LINE",
"134 101 LINE SMOOTH",
"110 66 OFFCURVE",
"104 42 OFFCURVE",
"104 0 CURVE",
"148 0 LINE",
"148 37 OFFCURVE",
"152 52 OFFCURVE",
"168 76 CURVE SMOOTH",
"318 296 LINE",
"318 350 LINE",
"20 350 LINE"
);
}
);
width = 340;
}
);
leftKerningGroup = seven.dnom;
rightKerningGroup = seven.dnom;
},
{
glyphname = eight.dnom;
lastChange = "2020-04-26 17:10:53 +0000";
layers = (
{
layerId = "A285862E-BE3D-4D67-A40D-0E28E121AD88";
paths = (
{
closed = 1;
nodes = (
"46 215 OFFCURVE",
"85 191 OFFCURVE",
"114 184 CURVE",
"114 174 LINE",
"82 167 OFFCURVE",
"40 144 OFFCURVE",
"40 89 CURVE SMOOTH",
"40 31 OFFCURVE",
"98 -14 OFFCURVE",
"198 -14 CURVE SMOOTH",
"298 -14 OFFCURVE",
"356 31 OFFCURVE",
"356 89 CURVE SMOOTH",
"356 144 OFFCURVE",
"314 167 OFFCURVE",
"283 174 CURVE",
"283 184 LINE",
"311 191 OFFCURVE",
"350 215 OFFCURVE",
"350 265 CURVE SMOOTH",
"350 324 OFFCURVE",
"289 364 OFFCURVE",
"198 364 CURVE SMOOTH",
"107 364 OFFCURVE",
"46 324 OFFCURVE",
"46 265 CURVE SMOOTH"
);
},
{
closed = 1;
nodes = (
"84 135 OFFCURVE",
"127 159 OFFCURVE",
"198 159 CURVE SMOOTH",
"269 159 OFFCURVE",
"312 135 OFFCURVE",
"312 93 CURVE SMOOTH",
"312 50 OFFCURVE",
"269 26 OFFCURVE",
"198 26 CURVE SMOOTH",
"127 26 OFFCURVE",
"84 50 OFFCURVE",
"84 93 CURVE SMOOTH"
);
},
{
closed = 1;
nodes = (
"90 299 OFFCURVE",
"131 324 OFFCURVE",
"198 324 CURVE SMOOTH",
"265 324 OFFCURVE",
"306 299 OFFCURVE",
"306 262 CURVE SMOOTH",
"306 226 OFFCURVE",
"265 199 OFFCURVE",
"198 199 CURVE SMOOTH",
"131 199 OFFCURVE",
"90 226 OFFCURVE",
"90 262 CURVE SMOOTH"
);
}
);
width = 396;
}
);
leftKerningGroup = eight.dnom;
rightKerningGroup = eight.dnom;
},
{
glyphname = nine.dnom;
lastChange = "2020-04-26 17:10:44 +0000";
layers = (
{
layerId = "A285862E-BE3D-4D67-A40D-0E28E121AD88";
paths = (
{
closed = 1;
nodes = (
"45 88 LINE",
"52 28 OFFCURVE",
"107 -14 OFFCURVE",
"196 -14 CURVE SMOOTH",
"287 -14 OFFCURVE",
"352 41 OFFCURVE",
"352 120 CURVE SMOOTH",
"352 239 LINE SMOOTH",
"352 314 OFFCURVE",
"287 364 OFFCURVE",
"195 364 CURVE SMOOTH",
"103 364 OFFCURVE",
"38 314 OFFCURVE",
"38 237 CURVE SMOOTH",
"38 160 OFFCURVE",
"103 114 OFFCURVE",
"183 114 CURVE SMOOTH",
"256 114 OFFCURVE",
"286 142 OFFCURVE",
"298 152 CURVE",
"308 152 LINE",
"308 120 LINE SMOOTH",
"308 66 OFFCURVE",
"266 26 OFFCURVE",
"196 26 CURVE SMOOTH",
"127 26 OFFCURVE",
"94 57 OFFCURVE",
"88 92 CURVE"
);
},
{
closed = 1;
nodes = (
"308 190 OFFCURVE",
"265 154 OFFCURVE",
"195 154 CURVE SMOOTH",
"125 154 OFFCURVE",
"82 190 OFFCURVE",
"82 238 CURVE SMOOTH",
"82 286 OFFCURVE",
"125 324 OFFCURVE",
"195 324 CURVE SMOOTH",
"265 324 OFFCURVE",
"308 286 OFFCURVE",
"308 238 CURVE SMOOTH"
);
}
);
width = 396;
}
);
leftKerningGroup = nine.dnom;
rightKerningGroup = nine.dnom;
},
{
glyphname = fraction;
lastChange = "2020-04-26 17:12:38 +0000";
layers = (
{
layerId = "A285862E-BE3D-4D67-A40D-0E28E121AD88";
paths = (
{
closed = 1;
nodes = (
"63 -12 LINE",
"630 685 LINE",
"595 712 LINE",
"28 15 LINE"
);
}
);
width = 658;
}
);
unicode = 2044;
},
{
glyphname = zero.dnom.zero;
lastChange = "2019-12-27 23:40:46 +0000";
layers = (
{
layerId = "A285862E-BE3D-4D67-A40D-0E28E121AD88";
paths = (
{
closed = 1;
nodes = (
"66 111 LINE",
"90 79 LINE",
"338 243 LINE",
"314 275 LINE"
);
},
{
closed = 1;
nodes = (
"44 149 LINE SMOOTH",
"44 51 OFFCURVE",
"104 -10 OFFCURVE",
"202 -10 CURVE SMOOTH",
"300 -10 OFFCURVE",
"360 51 OFFCURVE",
"360 149 CURVE SMOOTH",
"360 200 LINE SMOOTH",
"360 298 OFFCURVE",
"297 360 OFFCURVE",
"202 360 CURVE SMOOTH",
"104 360 OFFCURVE",
"44 298 OFFCURVE",
"44 200 CURVE SMOOTH"
);
},
{
closed = 1;
nodes = (
"88 274 OFFCURVE",
"131 320 OFFCURVE",
"202 320 CURVE SMOOTH",
"273 320 OFFCURVE",
"316 274 OFFCURVE",
"316 205 CURVE SMOOTH",
"316 145 LINE SMOOTH",
"316 76 OFFCURVE",
"273 30 OFFCURVE",
"202 30 CURVE SMOOTH",
"131 30 OFFCURVE",
"88 76 OFFCURVE",
"88 145 CURVE SMOOTH",
"88 205 LINE SMOOTH"
);
}
);
width = 404;
}
);
leftKerningGroup = zero.dnom;
leftMetricsKey = zero.dnom;
rightKerningGroup = zero.dnom;
rightMetricsKey = zero.dnom;
},
{
glyphname = period;
lastChange = "2020-05-12 18:53:00 +0000";
layers = (
{
layerId = "A285862E-BE3D-4D67-A40D-0E28E121AD88";
paths = (
{
closed = 1;
nodes = (
"62 8 OFFCURVE",
"84 -14 OFFCURVE",
"113 -14 CURVE SMOOTH",
"142 -14 OFFCURVE",
"164 8 OFFCURVE",
"164 37 CURVE SMOOTH",
"164 66 OFFCURVE",
"142 88 OFFCURVE",
"113 88 CURVE SMOOTH",
"84 88 OFFCURVE",
"62 66 OFFCURVE",
"62 37 CURVE SMOOTH"
);
}
);
width = 226;
}
);
leftKerningGroup = period;
note = period;
rightKerningGroup = period;
unicode = 002E;
},
{
glyphname = comma;
lastChange = "2020-04-27 08:14:21 +0000";
layers = (
{
layerId = "A285862E-BE3D-4D67-A40D-0E28E121AD88";
paths = (
{
closed = 1;
nodes = (
"62 9 OFFCURVE",
"85 -12 OFFCURVE",
"114 -12 CURVE SMOOTH",
"126 -12 LINE",
"126 -42 LINE SMOOTH",
"126 -63 OFFCURVE",
"117 -72 OFFCURVE",
"96 -72 CURVE SMOOTH",
"74 -72 LINE",
"74 -110 LINE",
"96 -110 LINE SMOOTH",
"144 -110 OFFCURVE",
"166 -88 OFFCURVE",
"166 -40 CURVE SMOOTH",
"166 35 LINE SMOOTH",
"166 65 OFFCURVE",
"143 86 OFFCURVE",
"114 86 CURVE SMOOTH",
"85 86 OFFCURVE",
"62 65 OFFCURVE",
"62 37 CURVE SMOOTH"
);
}
);
width = 228;
}
);
leftKerningGroup = period;
leftMetricsKey = period;
note = comma;
rightKerningGroup = period;
rightMetricsKey = period;
unicode = 002C;
},
{
glyphname = exclam;
lastChange = "2020-04-26 14:27:00 +0000";
layers = (
{
components = (
{
name = period;
}
);
layerId = "A285862E-BE3D-4D67-A40D-0E28E121AD88";
paths = (
{
closed = 1;
nodes = (
"87 170 LINE",
"139 170 LINE",
"139 700 LINE",
"87 700 LINE"
);
}
);
width = 226;
}
);
leftMetricsKey = period;
note = exclam;
rightMetricsKey = period;
unicode = 0021;
},
{
glyphname = exclamdown;
lastChange = "2020-04-26 14:27:04 +0000";
layers = (
{
components = (
{
name = period;
transform = "{-1, 0, 0, -1, 226, 484}";
}
);
layerId = "A285862E-BE3D-4D67-A40D-0E28E121AD88";
paths = (
{
closed = 1;
nodes = (
"139 316 LINE",
"87 316 LINE",
"87 -200 LINE",
"139 -200 LINE"
);
}
);
width = 226;
}
);
leftMetricsKey = period;
note = exclamdown;
rightMetricsKey = period;
unicode = 00A1;
},
{
glyphname = question;
lastChange = "2020-04-26 22:22:35 +0000";
layers = (
{
components = (
{
name = period;
transform = "{1, 0, 0, 1, 169, 0}";
}
);
layerId = "A285862E-BE3D-4D67-A40D-0E28E121AD88";
paths = (
{
closed = 1;
nodes = (
"48 462 LINE",
"100 462 LINE",
"100 505 LINE SMOOTH",
"100 615 OFFCURVE",
"193 668 OFFCURVE",
"295 668 CURVE SMOOTH",
"395 668 OFFCURVE",
"480 615 OFFCURVE",
"480 519 CURVE SMOOTH",
"480 433 OFFCURVE",
"433 394 OFFCURVE",
"360 364 CURVE SMOOTH",
"326 350 LINE SMOOTH",
"269 326 OFFCURVE",
"255 301 OFFCURVE",
"255 244 CURVE SMOOTH",
"255 170 LINE",
"307 170 LINE",
"307 246 LINE SMOOTH",
"307 280 OFFCURVE",
"317 296 OFFCURVE",
"343 307 CURVE SMOOTH",
"377 321 LINE SMOOTH",
"464 357 OFFCURVE",
"532 411 OFFCURVE",
"532 519 CURVE SMOOTH",
"532 631 OFFCURVE",
"437 714 OFFCURVE",
"295 714 CURVE SMOOTH",
"151 714 OFFCURVE",
"48 641 OFFCURVE",
"48 507 CURVE SMOOTH"
);
}
);
width = 582;
}
);
note = question;
unicode = 003F;
},
{
glyphname = questiondown;
lastChange = "2020-04-26 14:28:02 +0000";
layers = (
{
components = (
{
name = period;
transform = "{-1, 0, 0, -1, 413, 486}";
}
);
layerId = "A285862E-BE3D-4D67-A40D-0E28E121AD88";
paths = (
{
closed = 1;
nodes = (
"534 36 LINE",
"482 36 LINE",
"482 -7 LINE SMOOTH",
"482 -117 OFFCURVE",
"389 -170 OFFCURVE",
"287 -170 CURVE SMOOTH",
"187 -170 OFFCURVE",
"102 -117 OFFCURVE",
"102 -21 CURVE SMOOTH",
"102 65 OFFCURVE",
"149 104 OFFCURVE",
"222 134 CURVE SMOOTH",
"256 148 LINE SMOOTH",
"313 172 OFFCURVE",
"327 197 OFFCURVE",
"327 254 CURVE SMOOTH",
"327 316 LINE",
"275 316 LINE",
"275 252 LINE SMOOTH",
"275 218 OFFCURVE",
"265 202 OFFCURVE",
"239 191 CURVE SMOOTH",
"205 177 LINE SMOOTH",
"118 141 OFFCURVE",
"50 87 OFFCURVE",
"50 -21 CURVE SMOOTH",
"50 -133 OFFCURVE",
"145 -216 OFFCURVE",
"287 -216 CURVE SMOOTH",
"431 -216 OFFCURVE",
"534 -143 OFFCURVE",
"534 -9 CURVE SMOOTH"
);
}
);
width = 582;
}
);
unicode = 00BF;
},
{
glyphname = bullet;
lastChange = "2020-04-26 14:03:01 +0000";
layers = (
{
layerId = "A285862E-BE3D-4D67-A40D-0E28E121AD88";
paths = (
{
closed = 1;
nodes = (
"52 294 OFFCURVE",
"99 247 OFFCURVE",
"155 247 CURVE SMOOTH",
"213 247 OFFCURVE",
"258 297 OFFCURVE",
"258 350 CURVE SMOOTH",
"258 405 OFFCURVE",
"210 453 OFFCURVE",
"155 453 CURVE SMOOTH",
"100 453 OFFCURVE",
"52 406 OFFCURVE",
"52 350 CURVE SMOOTH"
);
}
);
width = 310;
}
);
note = bullet;
unicode = 2022;
},
{
glyphname = asterisk;
lastChange = "2020-04-26 21:42:53 +0000";
layers = (
{
layerId = "A285862E-BE3D-4D67-A40D-0E28E121AD88";
paths = (
{
closed = 1;
nodes = (
"233 612 LINE",
"244 494 LINE",
"264 494 LINE",
"275 612 LINE",
"275 700 LINE",
"233 700 LINE"
);
},
{
closed = 1;
nodes = (
"275 288 LINE",
"275 376 LINE",
"264 494 LINE",
"244 494 LINE",
"233 376 LINE",
"233 288 LINE"
);
},
{
closed = 1;
nodes = (
"372 515 LINE",
"254 504 LINE",
"254 484 LINE",
"372 473 LINE",
"460 473 LINE",
"460 515 LINE"
);
},
{
closed = 1;
nodes = (
"48 473 LINE",
"136 473 LINE",
"254 484 LINE",
"254 504 LINE",
"136 515 LINE",
"48 515 LINE"
);
},
{
closed = 1;
nodes = (
"323 592 LINE",
"247 501 LINE",
"261 487 LINE",
"352 563 LINE",
"415 625 LINE",
"385 655 LINE"
);
},
{
closed = 1;
nodes = (
"123 333 LINE",
"185 396 LINE",
"261 487 LINE",
"247 501 LINE",
"156 425 LINE",
"93 363 LINE"
);
},
{
closed = 1;
nodes = (
"352 425 LINE",
"261 501 LINE",
"247 487 LINE",
"323 396 LINE",
"385 333 LINE",
"415 363 LINE"
);
},
{
closed = 1;
nodes = (
"93 625 LINE",
"156 563 LINE",
"247 487 LINE",
"261 501 LINE",
"185 592 LINE",
"123 655 LINE"
);
},
{
closed = 1;
nodes = (
"281 444 OFFCURVE",
"304 467 OFFCURVE",
"304 494 CURVE SMOOTH",
"304 522 OFFCURVE",
"281 544 OFFCURVE",
"254 544 CURVE SMOOTH",
"227 544 OFFCURVE",
"204 522 OFFCURVE",
"204 494 CURVE SMOOTH",
"204 467 OFFCURVE",
"227 444 OFFCURVE",
"254 444 CURVE SMOOTH"
);
}
);
width = 508;
}
);
note = asterisk;
unicode = 002A;
},
{
glyphname = numbersign;
lastChange = "2020-04-26 14:02:44 +0000";
layers = (
{
layerId = "A285862E-BE3D-4D67-A40D-0E28E121AD88";
paths = (
{
closed = 1;
nodes = (
"44 443 LINE",
"178 443 LINE",
"178 257 LINE",
"44 257 LINE",
"44 213 LINE",
"178 213 LINE",
"178 0 LINE",
"228 0 LINE",
"228 213 LINE",
"392 213 LINE",
"392 0 LINE",
"442 0 LINE",
"442 213 LINE",
"576 213 LINE",
"576 257 LINE",
"442 257 LINE",
"442 443 LINE",
"576 443 LINE",
"576 487 LINE",
"442 487 LINE",
"442 700 LINE",
"392 700 LINE",
"392 487 LINE",
"228 487 LINE",
"228 700 LINE",
"178 700 LINE",
"178 487 LINE",
"44 487 LINE"
);
},
{
closed = 1;
nodes = (
"392 443 LINE",
"392 257 LINE",
"228 257 LINE",
"228 443 LINE"
);
}
);
width = 620;
}
);
note = numbersign.cap;
unicode = 0023;
},
{
glyphname = slash;
lastChange = "2020-04-27 08:16:10 +0000";
layers = (
{
layerId = "A285862E-BE3D-4D67-A40D-0E28E121AD88";
paths = (
{
closed = 1;
nodes = (
"8 -200 LINE",
"58 -200 LINE",
"352 700 LINE",
"302 700 LINE"
);
}
);
width = 356;
}
);
note = slash;
unicode = 002F;
},
{
glyphname = backslash;
lastChange = "2020-04-27 08:17:33 +0000";
layers = (
{
layerId = "A285862E-BE3D-4D67-A40D-0E28E121AD88";
paths = (
{
closed = 1;
nodes = (
"4 700 LINE",
"298 -200 LINE",
"348 -200 LINE",
"54 700 LINE"
);
}
);
width = 356;
}
);
note = backslash;
unicode = 005C;
},
{
glyphname = slash.case;
lastChange = "2020-04-26 14:29:25 +0000";
layers = (
{
layerId = "A285862E-BE3D-4D67-A40D-0E28E121AD88";
paths = (
{
closed = 1;
nodes = (
"38 0 LINE",
"94 0 LINE",
"354 700 LINE",
"298 700 LINE"
);
}
);
width = 392;
}
);
note = slash;
},
{
glyphname = backslash.case;
lastChange = "2020-04-26 14:29:36 +0000";
layers = (
{
layerId = "A285862E-BE3D-4D67-A40D-0E28E121AD88";
paths = (
{
closed = 1;
nodes = (
"38 700 LINE",
"298 0 LINE",
"354 0 LINE",
"94 700 LINE"
);
}
);
width = 392;
}
);
note = backslash;
},
{
glyphname = parenleft;
lastChange = "2018-01-05 15:44:50 +0000";
layers = (
{
layerId = "A285862E-BE3D-4D67-A40D-0E28E121AD88";
paths = (
{
closed = 1;
nodes = (
"150 -178 OFFCURVE",
"241 -248 OFFCURVE",
"370 -248 CURVE",
"370 -204 LINE",
"256 -202 OFFCURVE",
"200 -136 OFFCURVE",
"200 4 CURVE SMOOTH",
"200 556 LINE SMOOTH",
"200 696 OFFCURVE",
"256 762 OFFCURVE",
"370 764 CURVE",
"370 808 LINE",
"241 808 OFFCURVE",
"150 738 OFFCURVE",
"150 560 CURVE SMOOTH",
"150 0 LINE SMOOTH"
);
}
);
width = 390;
}
);
leftMetricsKey = bracketleft;
note = parenleft;
unicode = 0028;
},
{
glyphname = parenright;
lastChange = "2020-04-27 08:46:45 +0000";
layers = (
{
layerId = "A285862E-BE3D-4D67-A40D-0E28E121AD88";
paths = (
{
closed = 1;
nodes = (
"240 560 LINE SMOOTH",
"240 738 OFFCURVE",
"149 808 OFFCURVE",
"20 808 CURVE",
"20 764 LINE",
"134 762 OFFCURVE",
"190 696 OFFCURVE",
"190 556 CURVE SMOOTH",
"190 4 LINE SMOOTH",
"190 -136 OFFCURVE",
"134 -202 OFFCURVE",
"20 -204 CURVE",
"20 -248 LINE",
"149 -248 OFFCURVE",
"240 -178 OFFCURVE",
"240 0 CURVE SMOOTH"
);
}
);
width = 390;
}
);
note = parenright;
rightMetricsKey = bracketright;
unicode = 0029;
},
{
glyphname = braceleft;
lastChange = "2020-04-26 21:33:26 +0000";
layers = (
{
layerId = "A285862E-BE3D-4D67-A40D-0E28E121AD88";
paths = (
{
closed = 1;
nodes = (
"90 243 LINE",
"142 243 LINE SMOOTH",
"160 243 OFFCURVE",
"169 233 OFFCURVE",
"169 214 CURVE SMOOTH",
"169 -182 LINE SMOOTH",
"169 -218 OFFCURVE",
"196 -246 OFFCURVE",
"232 -246 CURVE SMOOTH",
"329 -246 LINE",
"329 -202 LINE",
"246 -202 LINE SMOOTH",
"228 -202 OFFCURVE",
"219 -192 OFFCURVE",
"219 -172 CURVE SMOOTH",
"219 202 LINE SMOOTH",
"219 247 OFFCURVE",
"196 275 OFFCURVE",
"151 275 CURVE SMOOTH",
"146 275 LINE",
"146 285 LINE",
"151 285 LINE SMOOTH",
"196 285 OFFCURVE",
"219 313 OFFCURVE",
"219 358 CURVE SMOOTH",
"219 732 LINE SMOOTH",
"219 752 OFFCURVE",
"228 762 OFFCURVE",
"246 762 CURVE SMOOTH",
"329 762 LINE",
"329 806 LINE",
"232 806 LINE SMOOTH",
"196 806 OFFCURVE",
"169 778 OFFCURVE",
"169 742 CURVE SMOOTH",
"169 346 LINE SMOOTH",
"169 327 OFFCURVE",
"160 317 OFFCURVE",
"142 317 CURVE SMOOTH",
"90 317 LINE"
);
}
);
width = 369;
}
);
note = braceleft;
rightKerningGroup = bracketleft;
unicode = 007B;
},
{
glyphname = braceright;
lastChange = "2020-04-26 21:33:16 +0000";
layers = (
{
layerId = "A285862E-BE3D-4D67-A40D-0E28E121AD88";
paths = (
{
closed = 1;
nodes = (
"227 317 LINE SMOOTH",
"209 317 OFFCURVE",
"200 327 OFFCURVE",
"200 346 CURVE SMOOTH",
"200 742 LINE SMOOTH",
"200 778 OFFCURVE",
"173 806 OFFCURVE",
"137 806 CURVE SMOOTH",
"40 806 LINE",
"40 762 LINE",
"123 762 LINE SMOOTH",
"141 762 OFFCURVE",
"150 752 OFFCURVE",
"150 732 CURVE SMOOTH",
"150 358 LINE SMOOTH",
"150 313 OFFCURVE",
"173 285 OFFCURVE",
"218 285 CURVE SMOOTH",
"223 285 LINE",
"223 275 LINE",
"218 275 LINE SMOOTH",
"173 275 OFFCURVE",
"150 247 OFFCURVE",
"150 202 CURVE SMOOTH",
"150 -172 LINE SMOOTH",
"150 -192 OFFCURVE",
"141 -202 OFFCURVE",
"123 -202 CURVE SMOOTH",
"40 -202 LINE",
"40 -246 LINE",
"137 -246 LINE SMOOTH",
"173 -246 OFFCURVE",
"200 -218 OFFCURVE",
"200 -182 CURVE SMOOTH",
"200 214 LINE SMOOTH",
"200 233 OFFCURVE",
"209 243 OFFCURVE",
"227 243 CURVE SMOOTH",
"279 243 LINE",
"279 317 LINE"
);
}
);
width = 369;
}
);
leftKerningGroup = bracketright;
note = braceright;
unicode = 007D;
},
{
glyphname = bracketleft;
lastChange = "2020-04-26 21:33:07 +0000";
layers = (
{
layerId = "A285862E-BE3D-4D67-A40D-0E28E121AD88";
paths = (
{
closed = 1;
nodes = (
"150 -182 LINE SMOOTH",
"150 -218 OFFCURVE",
"176 -246 OFFCURVE",
"213 -246 CURVE SMOOTH",
"310 -246 LINE",
"310 -202 LINE",
"227 -202 LINE SMOOTH",
"209 -202 OFFCURVE",
"200 -192 OFFCURVE",
"200 -172 CURVE SMOOTH",
"200 732 LINE SMOOTH",
"200 752 OFFCURVE",
"209 762 OFFCURVE",
"227 762 CURVE SMOOTH",
"310 762 LINE",
"310 806 LINE",
"213 806 LINE SMOOTH",
"176 806 OFFCURVE",
"150 778 OFFCURVE",
"150 742 CURVE SMOOTH"
);
}
);
width = 350;
}
);
note = bracketleft;
rightKerningGroup = bracketleft;
rightMetricsKey = braceleft;
unicode = 005B;
},
{
glyphname = bracketright;
lastChange = "2020-04-27 08:45:59 +0000";
layers = (
{
layerId = "A285862E-BE3D-4D67-A40D-0E28E121AD88";
paths = (
{
closed = 1;
nodes = (
"200 778 OFFCURVE",
"174 806 OFFCURVE",
"137 806 CURVE SMOOTH",
"40 806 LINE",
"40 762 LINE",
"123 762 LINE SMOOTH",
"141 762 OFFCURVE",
"150 752 OFFCURVE",
"150 732 CURVE SMOOTH",
"150 -172 LINE SMOOTH",
"150 -192 OFFCURVE",
"141 -202 OFFCURVE",
"123 -202 CURVE SMOOTH",
"40 -202 LINE",
"40 -246 LINE",
"137 -246 LINE SMOOTH",
"174 -246 OFFCURVE",
"200 -218 OFFCURVE",
"200 -182 CURVE SMOOTH",
"200 742 LINE SMOOTH"
);
}
);
width = 350;
}
);
leftKerningGroup = bracketright;
leftMetricsKey = braceright;
note = bracketright;
unicode = 005D;
},
{
glyphname = parenleft.case;
lastChange = "2019-08-27 22:04:55 +0000";
layers = (
{
layerId = "A285862E-BE3D-4D67-A40D-0E28E121AD88";
paths = (
{
closed = 1;
nodes = (
"150 -94 OFFCURVE",
"241 -164 OFFCURVE",
"370 -164 CURVE",
"370 -116 LINE",
"258 -114 OFFCURVE",
"204 -50 OFFCURVE",
"204 88 CURVE SMOOTH",
"204 600 LINE SMOOTH",
"204 738 OFFCURVE",
"258 802 OFFCURVE",
"370 804 CURVE",
"370 852 LINE",
"241 852 OFFCURVE",
"150 782 OFFCURVE",
"150 604 CURVE SMOOTH",
"150 84 LINE SMOOTH"
);
}
);
width = 390;
}
);
leftMetricsKey = bracketleft;
note = parenleft;
rightMetricsKey = parenleft;
},
{
glyphname = parenright.case;
lastChange = "2018-01-05 16:29:38 +0000";
layers = (
{
layerId = "A285862E-BE3D-4D67-A40D-0E28E121AD88";
paths = (
{
closed = 1;
nodes = (
"240 604 LINE SMOOTH",
"240 782 OFFCURVE",
"149 852 OFFCURVE",
"20 852 CURVE",
"20 804 LINE",
"132 802 OFFCURVE",
"186 738 OFFCURVE",
"186 600 CURVE SMOOTH",
"186 88 LINE SMOOTH",
"186 -50 OFFCURVE",
"132 -114 OFFCURVE",
"20 -116 CURVE",
"20 -164 LINE",
"149 -164 OFFCURVE",
"240 -94 OFFCURVE",
"240 84 CURVE SMOOTH"
);
}
);
width = 390;
}
);
leftMetricsKey = parenright;
note = parenright;
rightMetricsKey = bracketright;
},
{
glyphname = braceleft.case;
lastChange = "2020-04-22 10:52:05 +0000";
layers = (
{
layerId = "A285862E-BE3D-4D67-A40D-0E28E121AD88";
paths = (
{
closed = 1;
nodes = (
"90 307 LINE",
"142 307 LINE SMOOTH",
"160 307 OFFCURVE",
"169 297 OFFCURVE",
"169 278 CURVE SMOOTH",
"169 -98 LINE SMOOTH",
"169 -134 OFFCURVE",
"196 -162 OFFCURVE",
"232 -162 CURVE SMOOTH",
"329 -162 LINE",
"329 -114 LINE",
"250 -114 LINE SMOOTH",
"232 -114 OFFCURVE",
"223 -104 OFFCURVE",
"223 -84 CURVE SMOOTH",
"223 266 LINE SMOOTH",
"223 311 OFFCURVE",
"200 339 OFFCURVE",
"155 339 CURVE SMOOTH",
"150 339 LINE",
"150 349 LINE",
"155 349 LINE SMOOTH",
"200 349 OFFCURVE",
"223 377 OFFCURVE",
"223 422 CURVE SMOOTH",
"223 772 LINE SMOOTH",
"223 792 OFFCURVE",
"232 802 OFFCURVE",
"250 802 CURVE SMOOTH",
"329 802 LINE",
"329 850 LINE",
"232 850 LINE SMOOTH",
"196 850 OFFCURVE",
"169 822 OFFCURVE",
"169 786 CURVE SMOOTH",
"169 410 LINE SMOOTH",
"169 391 OFFCURVE",
"160 381 OFFCURVE",
"142 381 CURVE SMOOTH",
"90 381 LINE"
);
}
);
width = 369;
}
);
leftMetricsKey = braceleft;
note = braceleft;
rightMetricsKey = braceleft;
},
{
glyphname = braceright.case;
lastChange = "2020-04-22 10:52:10 +0000";
layers = (
{
layerId = "A285862E-BE3D-4D67-A40D-0E28E121AD88";
paths = (
{
closed = 1;
nodes = (
"227 381 LINE SMOOTH",
"209 381 OFFCURVE",
"200 391 OFFCURVE",
"200 410 CURVE SMOOTH",
"200 786 LINE SMOOTH",
"200 822 OFFCURVE",
"173 850 OFFCURVE",
"137 850 CURVE SMOOTH",
"40 850 LINE",
"40 802 LINE",
"119 802 LINE SMOOTH",
"137 802 OFFCURVE",
"146 792 OFFCURVE",
"146 772 CURVE SMOOTH",
"146 422 LINE SMOOTH",
"146 377 OFFCURVE",
"169 349 OFFCURVE",
"214 349 CURVE SMOOTH",
"219 349 LINE",
"219 339 LINE",
"214 339 LINE SMOOTH",
"169 339 OFFCURVE",
"146 311 OFFCURVE",
"146 266 CURVE SMOOTH",
"146 -84 LINE SMOOTH",
"146 -104 OFFCURVE",
"137 -114 OFFCURVE",
"119 -114 CURVE SMOOTH",
"40 -114 LINE",
"40 -162 LINE",
"137 -162 LINE SMOOTH",
"173 -162 OFFCURVE",
"200 -134 OFFCURVE",
"200 -98 CURVE SMOOTH",
"200 278 LINE SMOOTH",
"200 297 OFFCURVE",
"209 307 OFFCURVE",
"227 307 CURVE SMOOTH",
"279 307 LINE",
"279 381 LINE"
);
}
);
width = 369;
}
);
leftMetricsKey = braceright;
note = braceright;
rightMetricsKey = braceright;
},
{
glyphname = bracketleft.case;
lastChange = "2018-01-05 16:28:22 +0000";
layers = (
{
layerId = "A285862E-BE3D-4D67-A40D-0E28E121AD88";
paths = (
{
closed = 1;
nodes = (
"150 -98 LINE SMOOTH",
"150 -134 OFFCURVE",
"176 -162 OFFCURVE",
"213 -162 CURVE SMOOTH",
"310 -162 LINE",
"310 -114 LINE",
"231 -114 LINE SMOOTH",
"213 -114 OFFCURVE",
"204 -104 OFFCURVE",
"204 -84 CURVE SMOOTH",
"204 772 LINE SMOOTH",
"204 792 OFFCURVE",
"213 802 OFFCURVE",
"231 802 CURVE SMOOTH",
"310 802 LINE",
"310 850 LINE",
"213 850 LINE SMOOTH",
"176 850 OFFCURVE",
"150 822 OFFCURVE",
"150 786 CURVE SMOOTH"
);
}
);
width = 350;
}
);
leftMetricsKey = bracketleft;
note = bracketleft;
rightMetricsKey = braceleft;
},
{
glyphname = bracketright.case;
lastChange = "2018-01-05 18:43:32 +0000";
layers = (
{
layerId = "A285862E-BE3D-4D67-A40D-0E28E121AD88";
paths = (
{
closed = 1;
nodes = (
"200 822 OFFCURVE",
"174 850 OFFCURVE",
"137 850 CURVE SMOOTH",
"40 850 LINE",
"40 802 LINE",
"119 802 LINE SMOOTH",
"137 802 OFFCURVE",
"146 792 OFFCURVE",
"146 772 CURVE SMOOTH",
"146 -84 LINE SMOOTH",
"146 -104 OFFCURVE",
"137 -114 OFFCURVE",
"119 -114 CURVE SMOOTH",
"40 -114 LINE",
"40 -162 LINE",
"137 -162 LINE SMOOTH",
"174 -162 OFFCURVE",
"200 -134 OFFCURVE",
"200 -98 CURVE SMOOTH",
"200 786 LINE SMOOTH"
);
}
);
width = 350;
}
);
leftMetricsKey = braceright;
note = bracketright;
rightMetricsKey = bracketright;
},
{
glyphname = hyphen;
lastChange = "2020-04-27 08:29:32 +0000";
layers = (
{
layerId = "A285862E-BE3D-4D67-A40D-0E28E121AD88";
paths = (
{
closed = 1;
nodes = (
"382 233 LINE",
"382 281 LINE",
"86 281 LINE",
"86 233 LINE"
);
}
);
width = 468;
}
);
leftKerningGroup = hyphen;
note = hyphen;
rightKerningGroup = hyphen;
unicode = 002D;
},
{
glyphname = softhyphen;
lastChange = "2020-04-26 14:29:55 +0000";
layers = (
{
background = {
paths = (
{
closed = 1;
nodes = (
"412 233 LINE",
"412 281 LINE",
"116 281 LINE",
"116 233 LINE"
);
},
{
closed = 1;
nodes = (
"485 233 LINE",
"485 281 LINE",
"37 281 LINE",
"37 233 LINE"
);
}
);
};
layerId = "A285862E-BE3D-4D67-A40D-0E28E121AD88";
paths = (
{
closed = 1;
nodes = (
"446 234 LINE",
"446 279 LINE",
"86 279 LINE",
"86 234 LINE"
);
}
);
width = 532;
}
);
leftKerningGroup = hyphen;
leftMetricsKey = hyphen;
rightKerningGroup = hyphen;
rightMetricsKey = hyphen;
unicode = 00AD;
},
{
glyphname = endash;
lastChange = "2020-04-26 14:29:55 +0000";
layers = (
{
layerId = "A285862E-BE3D-4D67-A40D-0E28E121AD88";
paths = (
{
closed = 1;
nodes = (
"534 233 LINE",
"534 281 LINE",
"86 281 LINE",
"86 233 LINE"
);
}
);
width = 620;
}
);
leftKerningGroup = hyphen;
leftMetricsKey = hyphen;
note = endash;
rightKerningGroup = hyphen;
rightMetricsKey = hyphen;
unicode = 2013;
},
{
glyphname = emdash;
lastChange = "2020-04-26 14:29:55 +0000";
layers = (
{
layerId = "A285862E-BE3D-4D67-A40D-0E28E121AD88";
paths = (
{
closed = 1;
nodes = (
"838 233 LINE",
"838 281 LINE",
"86 281 LINE",
"86 233 LINE"
);
}
);
width = 924;
}
);
leftKerningGroup = hyphen;
leftMetricsKey = hyphen;
note = emdash;
rightKerningGroup = hyphen;
rightMetricsKey = hyphen;
unicode = 2014;
},
{
glyphname = underscore;
lastChange = "2017-07-18 09:12:28 +0000";
layers = (
{
layerId = "A285862E-BE3D-4D67-A40D-0E28E121AD88";
paths = (
{
closed = 1;
nodes = (
"536 -96 LINE",
"536 -48 LINE",
"84 -48 LINE",
"84 -96 LINE"
);
}
);
width = 620;
}
);
note = underscore;
unicode = 005F;
},
{
glyphname = hyphen.case;
lastChange = "2020-04-27 08:35:47 +0000";
layers = (
{
layerId = "A285862E-BE3D-4D67-A40D-0E28E121AD88";
paths = (
{
closed = 1;
nodes = (
"382 323 LINE",
"382 371 LINE",
"86 371 LINE",
"86 323 LINE"
);
}
);
width = 468;
}
);
leftKerningGroup = hyphen.case;
leftMetricsKey = hyphen;
note = hyphen;
rightKerningGroup = hyphen.case;
rightMetricsKey = hyphen;
},
{
glyphname = endash.case;
lastChange = "2020-04-26 14:29:55 +0000";
layers = (
{
layerId = "A285862E-BE3D-4D67-A40D-0E28E121AD88";
paths = (
{
closed = 1;
nodes = (
"534 323 LINE",
"534 371 LINE",
"86 371 LINE",
"86 323 LINE"
);
}
);
width = 620;
}
);
leftKerningGroup = hyphen.case;
leftMetricsKey = hyphen;
note = endash;
rightKerningGroup = hyphen.case;
rightMetricsKey = hyphen;
},
{
glyphname = emdash.case;
lastChange = "2020-04-26 14:29:55 +0000";
layers = (
{
layerId = "A285862E-BE3D-4D67-A40D-0E28E121AD88";
paths = (
{
closed = 1;
nodes = (
"838 323 LINE",
"838 371 LINE",
"86 371 LINE",
"86 323 LINE"
);
}
);
width = 924;
}
);
leftKerningGroup = hyphen.case;
leftMetricsKey = hyphen;
note = emdash;
rightKerningGroup = hyphen.case;
rightMetricsKey = hyphen;
},
{
glyphname = guillemetleft;
lastChange = "2020-04-26 14:09:05 +0000";
layers = (
{
layerId = "A285862E-BE3D-4D67-A40D-0E28E121AD88";
paths = (
{
closed = 1;
nodes = (
"52 212 LINE",
"334 25 LINE",
"340 25 LINE",
"340 81 LINE",
"100 238 LINE",
"100 246 LINE",
"340 403 LINE",
"340 459 LINE",
"334 459 LINE",
"52 272 LINE"
);
},
{
closed = 1;
nodes = (
"300 212 LINE",
"582 25 LINE",
"588 25 LINE",
"588 81 LINE",
"348 238 LINE",
"348 246 LINE",
"588 403 LINE",
"588 459 LINE",
"582 459 LINE",
"300 272 LINE"
);
}
);
width = 658;
}
);
leftMetricsKey = guilsinglleft;
note = guillemotleft;
rightMetricsKey = guilsinglleft;
unicode = 00AB;
},
{
glyphname = guillemetright;
lastChange = "2020-04-26 14:09:30 +0000";
layers = (
{
layerId = "A285862E-BE3D-4D67-A40D-0E28E121AD88";
paths = (
{
closed = 1;
nodes = (
"324 459 LINE",
"318 459 LINE",
"318 403 LINE",
"558 246 LINE",
"558 238 LINE",
"318 81 LINE",
"318 25 LINE",
"324 25 LINE",
"606 212 LINE",
"606 272 LINE"
);
},
{
closed = 1;
nodes = (
"76 459 LINE",
"70 459 LINE",
"70 403 LINE",
"310 246 LINE",
"310 238 LINE",
"70 81 LINE",
"70 25 LINE",
"76 25 LINE",
"358 212 LINE",
"358 272 LINE"
);
}
);
width = 658;
}
);
leftMetricsKey = guilsinglright;
note = guillemotright;
rightMetricsKey = guilsinglright;
unicode = 00BB;
},
{
glyphname = guilsinglleft;
lastChange = "2020-04-26 14:06:53 +0000";
layers = (
{
layerId = "A285862E-BE3D-4D67-A40D-0E28E121AD88";
paths = (
{
closed = 1;
nodes = (
"52 211 LINE",
"374 25 LINE",
"380 25 LINE",
"380 79 LINE",
"100 238 LINE",
"100 246 LINE",
"380 405 LINE",
"380 459 LINE",
"374 459 LINE",
"52 273 LINE"
);
}
);
width = 450;
}
);
note = guilsinglleft;
unicode = 2039;
},
{
glyphname = guilsinglright;
lastChange = "2020-04-26 14:08:33 +0000";
layers = (
{
layerId = "A285862E-BE3D-4D67-A40D-0E28E121AD88";
paths = (
{
closed = 1;
nodes = (
"76 459 LINE",
"70 459 LINE",
"70 405 LINE",
"350 246 LINE",
"350 238 LINE",
"70 79 LINE",
"70 25 LINE",
"76 25 LINE",
"398 211 LINE",
"398 273 LINE"
);
}
);
width = 450;
}
);
note = guilsinglright;
unicode = 203A;
},
{
glyphname = guillemotleft.case;
lastChange = "2020-04-26 14:09:30 +0000";
layers = (
{
layerId = "A285862E-BE3D-4D67-A40D-0E28E121AD88";
paths = (
{
closed = 1;
nodes = (
"52 308 LINE",
"334 121 LINE",
"340 121 LINE",
"340 177 LINE",
"100 334 LINE",
"100 342 LINE",
"340 499 LINE",
"340 555 LINE",
"334 555 LINE",
"52 368 LINE"
);
},
{
closed = 1;
nodes = (
"300 308 LINE",
"582 121 LINE",
"588 121 LINE",
"588 177 LINE",
"348 334 LINE",
"348 342 LINE",
"588 499 LINE",
"588 555 LINE",
"582 555 LINE",
"300 368 LINE"
);
}
);
width = 658;
}
);
leftMetricsKey = guilsinglleft;
note = guillemotleft;
rightMetricsKey = guilsinglleft;
},
{
glyphname = guillemotright.case;
lastChange = "2020-04-26 14:09:30 +0000";
layers = (
{
layerId = "A285862E-BE3D-4D67-A40D-0E28E121AD88";
paths = (
{
closed = 1;
nodes = (
"324 555 LINE",
"318 555 LINE",
"318 499 LINE",
"558 342 LINE",
"558 334 LINE",
"318 177 LINE",
"318 121 LINE",
"324 121 LINE",
"606 308 LINE",
"606 368 LINE"
);
},
{
closed = 1;
nodes = (
"76 555 LINE",
"70 555 LINE",
"70 499 LINE",
"310 342 LINE",
"310 334 LINE",
"70 177 LINE",
"70 121 LINE",
"76 121 LINE",
"358 308 LINE",
"358 368 LINE"
);
}
);
width = 658;
}
);
leftMetricsKey = guilsinglright;
note = guillemotright;
rightMetricsKey = guilsinglright;
},
{
glyphname = guilsinglleft.case;
lastChange = "2020-04-26 14:09:26 +0000";
layers = (
{
layerId = "A285862E-BE3D-4D67-A40D-0E28E121AD88";
paths = (
{
closed = 1;
nodes = (
"52 307 LINE",
"374 121 LINE",
"380 121 LINE",
"380 175 LINE",
"100 334 LINE",
"100 342 LINE",
"380 501 LINE",
"380 555 LINE",
"374 555 LINE",
"52 369 LINE"
);
}
);
width = 450;
}
);
leftMetricsKey = guilsinglleft;
note = guilsinglleft;
rightMetricsKey = guilsinglleft;
},
{
glyphname = guilsinglright.case;
lastChange = "2020-04-26 14:09:30 +0000";
layers = (
{
layerId = "A285862E-BE3D-4D67-A40D-0E28E121AD88";
paths = (
{
closed = 1;
nodes = (
"76 555 LINE",
"70 555 LINE",
"70 501 LINE",
"350 342 LINE",
"350 334 LINE",
"70 175 LINE",
"70 121 LINE",
"76 121 LINE",
"398 307 LINE",
"398 369 LINE"
);
}
);
width = 450;
}
);
leftMetricsKey = guilsinglright;
note = guilsinglright;
rightMetricsKey = guilsinglright;
},
{
glyphname = .notdef;
lastChange = "2018-01-06 10:12:32 +0000";
layers = (
{
layerId = "A285862E-BE3D-4D67-A40D-0E28E121AD88";
paths = (
{
closed = 1;
nodes = (
"90 87 LINE SMOOTH",
"90 -41 OFFCURVE",
"153 -100 OFFCURVE",
"271 -100 CURVE SMOOTH",
"569 -100 LINE SMOOTH",
"687 -100 OFFCURVE",
"750 -41 OFFCURVE",
"750 87 CURVE SMOOTH",
"750 603 LINE SMOOTH",
"750 731 OFFCURVE",
"687 790 OFFCURVE",
"569 790 CURVE SMOOTH",
"271 790 LINE SMOOTH",
"153 790 OFFCURVE",
"90 731 OFFCURVE",
"90 603 CURVE SMOOTH"
);
},
{
closed = 1;
nodes = (
"140 698 OFFCURVE",
"177 744 OFFCURVE",
"264 744 CURVE SMOOTH",
"577 744 LINE SMOOTH",
"663 744 OFFCURVE",
"700 698 OFFCURVE",
"700 607 CURVE SMOOTH",
"700 83 LINE SMOOTH",
"700 -8 OFFCURVE",
"663 -54 OFFCURVE",
"577 -54 CURVE SMOOTH",
"264 -54 LINE SMOOTH",
"177 -54 OFFCURVE",
"140 -8 OFFCURVE",
"140 83 CURVE SMOOTH",
"140 607 LINE SMOOTH"
);
},
{
closed = 1;
nodes = (
"254 425 LINE",
"302 425 LINE",
"302 455 LINE SMOOTH",
"302 526 OFFCURVE",
"358 557 OFFCURVE",
"422 557 CURVE SMOOTH",
"486 557 OFFCURVE",
"540 526 OFFCURVE",
"540 465 CURVE SMOOTH",
"540 410 OFFCURVE",
"510 390 OFFCURVE",
"460 368 CURVE SMOOTH",
"442 360 LINE SMOOTH",
"397 340 OFFCURVE",
"390 314 OFFCURVE",
"390 277 CURVE SMOOTH",
"390 230 LINE",
"438 230 LINE",
"438 278 LINE SMOOTH",
"438 302 OFFCURVE",
"444 315 OFFCURVE",
"463 323 CURVE SMOOTH",
"481 331 LINE SMOOTH",
"539 357 OFFCURVE",
"588 391 OFFCURVE",
"588 462 CURVE SMOOTH",
"588 468 LINE SMOOTH",
"588 549 OFFCURVE",
"511 601 OFFCURVE",
"422 601 CURVE SMOOTH",
"325 601 OFFCURVE",
"254 549 OFFCURVE",
"254 456 CURVE SMOOTH"
);
},
{
closed = 1;
nodes = (
"372 118 OFFCURVE",
"390 100 OFFCURVE",
"415 100 CURVE SMOOTH",
"440 100 OFFCURVE",
"458 118 OFFCURVE",
"458 142 CURVE SMOOTH",
"458 166 OFFCURVE",
"440 185 OFFCURVE",
"415 185 CURVE SMOOTH",
"390 185 OFFCURVE",
"372 166 OFFCURVE",
"372 142 CURVE SMOOTH"
);
}
);
width = 840;
}
);
},
{
glyphname = baht;
lastChange = "2020-05-12 16:11:04 +0000";
layers = (
{
layerId = "A285862E-BE3D-4D67-A40D-0E28E121AD88";
paths = (
{
closed = 1;
nodes = (
"88 0 LINE",
"360 0 LINE SMOOTH",
"479 0 OFFCURVE",
"570 68 OFFCURVE",
"570 182 CURVE SMOOTH",
"570 192 LINE SMOOTH",
"570 289 OFFCURVE",
"505 334 OFFCURVE",
"452 348 CURVE",
"452 358 LINE",
"504 374 OFFCURVE",
"570 419 OFFCURVE",
"570 517 CURVE SMOOTH",
"570 525 LINE SMOOTH",
"570 629 OFFCURVE",
"484 700 OFFCURVE",
"364 700 CURVE SMOOTH",
"88 700 LINE"
);
},
{
closed = 1;
nodes = (
"356 328 LINE SMOOTH",
"462 328 OFFCURVE",
"516 275 OFFCURVE",
"516 192 CURVE SMOOTH",
"516 184 LINE SMOOTH",
"516 101 OFFCURVE",
"462 48 OFFCURVE",
"356 48 CURVE SMOOTH",
"142 48 LINE",
"142 328 LINE"
);
},
{
closed = 1;
nodes = (
"360 652 LINE SMOOTH",
"458 652 OFFCURVE",
"516 598 OFFCURVE",
"516 519 CURVE SMOOTH",
"516 509 LINE SMOOTH",
"516 430 OFFCURVE",
"458 376 OFFCURVE",
"360 376 CURVE SMOOTH",
"142 376 LINE",
"142 652 LINE"
);
},
{
closed = 1;
nodes = (
"292 816 LINE",
"292 -116 LINE",
"342 -116 LINE",
"342 816 LINE"
);
}
);
width = 630;
}
);
leftMetricsKey = H;
rightMetricsKey = B;
unicode = 0E3F;
},
{
glyphname = bitcoin;
lastChange = "2020-05-12 16:11:41 +0000";
layers = (
{
layerId = "A285862E-BE3D-4D67-A40D-0E28E121AD88";
paths = (
{
closed = 1;
nodes = (
"88 0 LINE",
"360 0 LINE SMOOTH",
"479 0 OFFCURVE",
"570 68 OFFCURVE",
"570 182 CURVE SMOOTH",
"570 192 LINE SMOOTH",
"570 289 OFFCURVE",
"505 334 OFFCURVE",
"452 348 CURVE",
"452 358 LINE",
"504 374 OFFCURVE",
"570 419 OFFCURVE",
"570 517 CURVE SMOOTH",
"570 525 LINE SMOOTH",
"570 629 OFFCURVE",
"484 700 OFFCURVE",
"364 700 CURVE SMOOTH",
"88 700 LINE"
);
},
{
closed = 1;
nodes = (
"356 328 LINE SMOOTH",
"462 328 OFFCURVE",
"516 275 OFFCURVE",
"516 192 CURVE SMOOTH",
"516 184 LINE SMOOTH",
"516 101 OFFCURVE",
"462 48 OFFCURVE",
"356 48 CURVE SMOOTH",
"142 48 LINE",
"142 328 LINE"
);
},
{
closed = 1;
nodes = (
"360 652 LINE SMOOTH",
"458 652 OFFCURVE",
"516 598 OFFCURVE",
"516 519 CURVE SMOOTH",
"516 509 LINE SMOOTH",
"516 430 OFFCURVE",
"458 376 OFFCURVE",
"360 376 CURVE SMOOTH",
"142 376 LINE",
"142 652 LINE"
);
},
{
closed = 1;
nodes = (
"239 816 LINE",
"239 680 LINE",
"289 680 LINE",
"289 816 LINE"
);
},
{
closed = 1;
nodes = (
"353 816 LINE",
"353 680 LINE",
"403 680 LINE",
"403 816 LINE"
);
},
{
closed = 1;
nodes = (
"239 20 LINE",
"239 -116 LINE",
"289 -116 LINE",
"289 20 LINE"
);
},
{
closed = 1;
nodes = (
"353 20 LINE",
"353 -116 LINE",
"403 -116 LINE",
"403 20 LINE"
);
}
);
width = 630;
}
);
leftMetricsKey = H;
rightMetricsKey = B;
unicode = 20BF;
},
{
glyphname = cent;
lastChange = "2020-04-26 14:20:43 +0000";
layers = (
{
layerId = "A285862E-BE3D-4D67-A40D-0E28E121AD88";
paths = (
{
closed = 1;
nodes = (
"66 283 LINE SMOOTH",
"66 95 OFFCURVE",
"165 -14 OFFCURVE",
"328 -14 CURVE SMOOTH",
"477 -14 OFFCURVE",
"572 79 OFFCURVE",
"572 233 CURVE SMOOTH",
"572 251 LINE",
"518 251 LINE",
"518 233 LINE SMOOTH",
"518 107 OFFCURVE",
"458 34 OFFCURVE",
"328 34 CURVE SMOOTH",
"199 34 OFFCURVE",
"120 126 OFFCURVE",
"120 283 CURVE SMOOTH",
"120 417 LINE SMOOTH",
"120 574 OFFCURVE",
"197 666 OFFCURVE",
"328 666 CURVE SMOOTH",
"449 666 OFFCURVE",
"518 590 OFFCURVE",
"518 464 CURVE SMOOTH",
"518 455 LINE",
"572 455 LINE",
"572 464 LINE SMOOTH",
"572 618 OFFCURVE",
"486 714 OFFCURVE",
"328 714 CURVE SMOOTH",
"168 714 OFFCURVE",
"66 605 OFFCURVE",
"66 417 CURVE SMOOTH"
);
},
{
closed = 1;
nodes = (
"303 816 LINE",
"303 -116 LINE",
"353 -116 LINE",
"353 816 LINE"
);
}
);
width = 630;
}
);
leftMetricsKey = C;
note = cent;
rightMetricsKey = C;
unicode = 00A2;
},
{
glyphname = currency;
lastChange = "2017-07-18 09:12:28 +0000";
layers = (
{
layerId = "A285862E-BE3D-4D67-A40D-0E28E121AD88";
paths = (
{
closed = 1;
nodes = (
"116 507 LINE",
"79 465 OFFCURVE",
"60 409 OFFCURVE",
"60 350 CURVE SMOOTH",
"60 291 OFFCURVE",
"79 235 OFFCURVE",
"116 193 CURVE",
"58 135 LINE",
"95 98 LINE",
"153 156 LINE",
"195 119 OFFCURVE",
"251 100 OFFCURVE",
"310 100 CURVE SMOOTH",
"369 100 OFFCURVE",
"425 119 OFFCURVE",
"467 156 CURVE",
"525 98 LINE",
"562 135 LINE",
"504 193 LINE",
"538 235 OFFCURVE",
"560 291 OFFCURVE",
"560 350 CURVE SMOOTH",
"560 409 OFFCURVE",
"538 465 OFFCURVE",
"504 507 CURVE",
"562 565 LINE",
"525 602 LINE",
"467 544 LINE",
"425 578 OFFCURVE",
"369 600 OFFCURVE",
"310 600 CURVE SMOOTH",
"251 600 OFFCURVE",
"195 578 OFFCURVE",
"153 544 CURVE",
"95 602 LINE",
"58 565 LINE"
);
},
{
closed = 1;
nodes = (
"112 469 OFFCURVE",
"198 552 OFFCURVE",
"310 552 CURVE SMOOTH",
"421 552 OFFCURVE",
"508 470 OFFCURVE",
"508 350 CURVE SMOOTH",
"508 231 OFFCURVE",
"422 148 OFFCURVE",
"310 148 CURVE SMOOTH",
"199 148 OFFCURVE",
"112 230 OFFCURVE",
"112 350 CURVE SMOOTH"
);
}
);
width = 620;
}
);
note = currency;
unicode = 00A4;
},
{
glyphname = dollar;
lastChange = "2020-05-14 19:29:05 +0000";
layers = (
{
layerId = "A285862E-BE3D-4D67-A40D-0E28E121AD88";
paths = (
{
closed = 1;
nodes = (
"170 714 OFFCURVE",
"74 643 OFFCURVE",
"74 531 CURVE SMOOTH",
"74 419 OFFCURVE",
"158 371 OFFCURVE",
"269 344 CURVE SMOOTH",
"339 327 LINE SMOOTH",
"437 303 OFFCURVE",
"508 272 OFFCURVE",
"508 184 CURVE SMOOTH",
"508 96 OFFCURVE",
"436 34 OFFCURVE",
"316 34 CURVE SMOOTH",
"196 34 OFFCURVE",
"110 96 OFFCURVE",
"110 238 CURVE SMOOTH",
"110 262 LINE",
"56 262 LINE",
"56 238 LINE SMOOTH",
"56 64 OFFCURVE",
"168 -14 OFFCURVE",
"316 -14 CURVE SMOOTH",
"464 -14 OFFCURVE",
"562 64 OFFCURVE",
"562 184 CURVE SMOOTH",
"562 304 OFFCURVE",
"471 347 OFFCURVE",
"363 373 CURVE SMOOTH",
"293 390 LINE SMOOTH",
"193 414 OFFCURVE",
"128 441 OFFCURVE",
"128 531 CURVE SMOOTH",
"128 619 OFFCURVE",
"204 666 OFFCURVE",
"306 666 CURVE SMOOTH",
"412 666 OFFCURVE",
"496 619 OFFCURVE",
"496 505 CURVE SMOOTH",
"496 450 LINE",
"550 450 LINE",
"550 505 LINE SMOOTH",
"550 643 OFFCURVE",
"442 714 OFFCURVE",
"306 714 CURVE SMOOTH"
);
},
{
closed = 1;
nodes = (
"287 816 LINE",
"287 -116 LINE",
"337 -116 LINE",
"337 816 LINE"
);
}
);
width = 622;
}
);
leftMetricsKey = S;
note = dollar.cap;
rightMetricsKey = S;
unicode = 0024;
},
{
glyphname = euro;
lastChange = "2020-04-26 14:20:43 +0000";
layers = (
{
layerId = "A285862E-BE3D-4D67-A40D-0E28E121AD88";
paths = (
{
closed = 1;
nodes = (
"110 283 LINE SMOOTH",
"110 95 OFFCURVE",
"209 -14 OFFCURVE",
"372 -14 CURVE SMOOTH",
"521 -14 OFFCURVE",
"616 79 OFFCURVE",
"616 233 CURVE SMOOTH",
"616 251 LINE",
"562 251 LINE",
"562 233 LINE SMOOTH",
"562 107 OFFCURVE",
"502 34 OFFCURVE",
"372 34 CURVE SMOOTH",
"243 34 OFFCURVE",
"164 126 OFFCURVE",
"164 283 CURVE SMOOTH",
"164 417 LINE SMOOTH",
"164 574 OFFCURVE",
"241 666 OFFCURVE",
"372 666 CURVE SMOOTH",
"493 666 OFFCURVE",
"562 590 OFFCURVE",
"562 464 CURVE SMOOTH",
"562 455 LINE",
"616 455 LINE",
"616 464 LINE SMOOTH",
"616 618 OFFCURVE",
"530 714 OFFCURVE",
"372 714 CURVE SMOOTH",
"212 714 OFFCURVE",
"110 605 OFFCURVE",
"110 417 CURVE SMOOTH"
);
},
{
closed = 1;
nodes = (
"32 385 LINE",
"372 385 LINE",
"372 429 LINE",
"32 429 LINE"
);
},
{
closed = 1;
nodes = (
"32 279 LINE",
"372 279 LINE",
"372 323 LINE",
"32 323 LINE"
);
}
);
width = 674;
}
);
note = Euro.cap;
rightMetricsKey = C;
unicode = 20AC;
},
{
glyphname = florin;
lastChange = "2017-07-18 09:12:28 +0000";
layers = (
{
layerId = "A285862E-BE3D-4D67-A40D-0E28E121AD88";
paths = (
{
closed = 1;
nodes = (
"149 380 LINE",
"281 380 LINE",
"281 74 LINE SMOOTH",
"281 54 OFFCURVE",
"272 44 OFFCURVE",
"254 44 CURVE SMOOTH",
"116 44 LINE",
"116 0 LINE",
"268 0 LINE SMOOTH",
"306 0 OFFCURVE",
"331 26 OFFCURVE",
"331 64 CURVE SMOOTH",
"331 380 LINE",
"470 380 LINE",
"470 424 LINE",
"331 424 LINE",
"331 626 LINE SMOOTH",
"331 646 OFFCURVE",
"340 656 OFFCURVE",
"358 656 CURVE SMOOTH",
"496 656 LINE",
"496 700 LINE",
"344 700 LINE SMOOTH",
"306 700 OFFCURVE",
"281 674 OFFCURVE",
"281 636 CURVE SMOOTH",
"281 424 LINE",
"149 424 LINE"
);
}
);
width = 620;
}
);
note = florin.cap;
unicode = 0192;
},
{
glyphname = naira;
lastChange = "2020-05-14 20:00:46 +0000";
layers = (
{
layerId = "A285862E-BE3D-4D67-A40D-0E28E121AD88";
paths = (
{
closed = 1;
nodes = (
"118 0 LINE",
"172 0 LINE",
"172 670 LINE",
"182 670 LINE",
"492 0 LINE",
"600 0 LINE",
"600 700 LINE",
"546 700 LINE",
"546 30 LINE",
"536 30 LINE",
"226 700 LINE",
"118 700 LINE"
);
},
{
closed = 1;
nodes = (
"32 385 LINE",
"686 385 LINE",
"686 429 LINE",
"32 429 LINE"
);
},
{
closed = 1;
nodes = (
"32 279 LINE",
"686 279 LINE",
"686 323 LINE",
"32 323 LINE"
);
}
);
width = 718;
}
);
unicode = 20A6;
},
{
glyphname = peso;
lastChange = "2020-05-12 16:06:20 +0000";
layers = (
{
layerId = "A285862E-BE3D-4D67-A40D-0E28E121AD88";
paths = (
{
closed = 1;
nodes = (
"118 0 LINE",
"172 0 LINE",
"172 298 LINE",
"372 298 LINE SMOOTH",
"493 298 OFFCURVE",
"590 368 OFFCURVE",
"590 494 CURVE SMOOTH",
"590 504 LINE SMOOTH",
"590 630 OFFCURVE",
"494 700 OFFCURVE",
"372 700 CURVE SMOOTH",
"118 700 LINE"
);
},
{
closed = 1;
nodes = (
"366 652 LINE SMOOTH",
"474 652 OFFCURVE",
"536 599 OFFCURVE",
"536 503 CURVE SMOOTH",
"536 495 LINE SMOOTH",
"536 399 OFFCURVE",
"472 346 OFFCURVE",
"366 346 CURVE SMOOTH",
"172 346 LINE",
"172 652 LINE"
);
},
{
closed = 1;
nodes = (
"32 530 LINE",
"674 530 LINE",
"674 574 LINE",
"32 574 LINE"
);
},
{
closed = 1;
nodes = (
"32 424 LINE",
"674 424 LINE",
"674 468 LINE",
"32 468 LINE"
);
}
);
width = 704;
}
);
unicode = 20B1;
},
{
glyphname = ruble;
lastChange = "2020-05-12 16:00:41 +0000";
layers = (
{
layerId = "A285862E-BE3D-4D67-A40D-0E28E121AD88";
paths = (
{
closed = 1;
nodes = (
"118 358 LINE",
"32 358 LINE",
"32 310 LINE",
"118 310 LINE",
"118 0 LINE",
"172 0 LINE",
"172 310 LINE",
"376 310 LINE SMOOTH",
"495 310 OFFCURVE",
"590 378 OFFCURVE",
"590 500 CURVE SMOOTH",
"590 510 LINE SMOOTH",
"590 632 OFFCURVE",
"496 700 OFFCURVE",
"376 700 CURVE SMOOTH",
"118 700 LINE"
);
},
{
closed = 1;
nodes = (
"370 652 LINE SMOOTH",
"475 652 OFFCURVE",
"536 601 OFFCURVE",
"536 509 CURVE SMOOTH",
"536 501 LINE SMOOTH",
"536 409 OFFCURVE",
"474 358 OFFCURVE",
"370 358 CURVE SMOOTH",
"172 358 LINE",
"172 652 LINE"
);
},
{
closed = 1;
nodes = (
"32 200 LINE",
"430 200 LINE",
"430 248 LINE",
"32 248 LINE"
);
}
);
width = 630;
}
);
unicode = 20BD;
},
{
glyphname = rupee;
lastChange = "2020-05-12 16:12:14 +0000";
layers = (
{
layerId = "A285862E-BE3D-4D67-A40D-0E28E121AD88";
paths = (
{
closed = 1;
nodes = (
"78 652 LINE",
"282 652 LINE SMOOTH",
"396 652 OFFCURVE",
"462 594 OFFCURVE",
"462 493 CURVE SMOOTH",
"462 392 OFFCURVE",
"396 334 OFFCURVE",
"282 334 CURVE SMOOTH",
"78 334 LINE",
"78 286 LINE",
"288 286 LINE SMOOTH",
"416 286 OFFCURVE",
"516 361 OFFCURVE",
"516 493 CURVE SMOOTH",
"516 565 OFFCURVE",
"477 617 OFFCURVE",
"437 642 CURVE",
"437 680 LINE",
"78 680 LINE"
);
},
{
closed = 1;
nodes = (
"428 0 LINE",
"496 0 LINE",
"282 316 LINE",
"219 316 LINE"
);
},
{
closed = 1;
nodes = (
"78 469 LINE",
"628 469 LINE",
"628 517 LINE",
"78 517 LINE"
);
},
{
closed = 1;
nodes = (
"78 652 LINE",
"628 652 LINE",
"628 700 LINE",
"78 700 LINE"
);
}
);
width = 676;
}
);
unicode = 20B9;
},
{
glyphname = sterling;
lastChange = "2018-01-05 12:43:41 +0000";
layers = (
{
layerId = "A285862E-BE3D-4D67-A40D-0E28E121AD88";
paths = (
{
closed = 1;
nodes = (
"66 322 LINE",
"136 322 LINE",
"136 48 LINE",
"62 48 LINE",
"62 0 LINE",
"550 0 LINE",
"550 48 LINE",
"190 48 LINE",
"190 322 LINE",
"330 322 LINE",
"330 370 LINE",
"190 370 LINE",
"190 500 LINE SMOOTH",
"190 602 OFFCURVE",
"243 666 OFFCURVE",
"341 666 CURVE SMOOTH",
"439 666 OFFCURVE",
"492 602 OFFCURVE",
"492 500 CURVE SMOOTH",
"492 443 LINE",
"546 443 LINE",
"546 502 LINE SMOOTH",
"546 642 OFFCURVE",
"465 714 OFFCURVE",
"341 714 CURVE SMOOTH",
"217 714 OFFCURVE",
"136 642 OFFCURVE",
"136 502 CURVE SMOOTH",
"136 370 LINE",
"66 370 LINE"
);
}
);
width = 622;
}
);
note = sterling.cap;
unicode = 00A3;
},
{
glyphname = won;
lastChange = "2020-05-14 20:01:04 +0000";
layers = (
{
layerId = "A285862E-BE3D-4D67-A40D-0E28E121AD88";
paths = (
{
closed = 1;
nodes = (
"189 0 LINE",
"293 0 LINE",
"445 670 LINE",
"455 670 LINE",
"607 0 LINE",
"711 0 LINE",
"838 700 LINE",
"782 700 LINE",
"664 30 LINE",
"654 30 LINE",
"502 700 LINE",
"398 700 LINE",
"246 30 LINE",
"236 30 LINE",
"118 700 LINE",
"62 700 LINE"
);
},
{
closed = 1;
nodes = (
"32 385 LINE",
"868 385 LINE",
"868 429 LINE",
"32 429 LINE"
);
},
{
closed = 1;
nodes = (
"32 279 LINE",
"868 279 LINE",
"868 323 LINE",
"32 323 LINE"
);
}
);
width = 900;
}
);
unicode = 20A9;
},
{
glyphname = yen;
lastChange = "2017-07-18 09:12:28 +0000";
layers = (
{
layerId = "A285862E-BE3D-4D67-A40D-0E28E121AD88";
paths = (
{
closed = 1;
nodes = (
"271 298 LINE",
"283 292 LINE",
"283 0 LINE",
"337 0 LINE",
"337 292 LINE",
"349 298 LINE",
"592 700 LINE",
"528 700 LINE",
"315 342 LINE",
"305 342 LINE",
"92 700 LINE",
"28 700 LINE"
);
},
{
closed = 1;
nodes = (
"122 285 LINE",
"498 285 LINE",
"498 329 LINE",
"122 329 LINE"
);
},
{
closed = 1;
nodes = (
"122 179 LINE",
"498 179 LINE",
"498 223 LINE",
"122 223 LINE"
);
}
);
width = 620;
}
);
note = yen.cap;
unicode = 00A5;
},
{
glyphname = divisionslash;
lastChange = "2020-04-26 14:29:55 +0000";
layers = (
{
background = {
paths = (
{
closed = 1;
nodes = (
"-14 -200 LINE",
"36 -200 LINE",
"330 700 LINE",
"280 700 LINE"
);
},
{
closed = 1;
nodes = (
"34 -41 LINE",
"90 -41 LINE",
"350 737 LINE",
"294 737 LINE"
);
}
);
};
layerId = "A285862E-BE3D-4D67-A40D-0E28E121AD88";
paths = (
{
closed = 1;
nodes = (
"8 -137 LINE",
"58 -137 LINE",
"364 797 LINE",
"314 797 LINE"
);
}
);
width = 368;
}
);
leftMetricsKey = slash;
rightMetricsKey = slash;
unicode = 2215;
},
{
glyphname = plus;
lastChange = "2017-07-18 09:12:28 +0000";
layers = (
{
layerId = "A285862E-BE3D-4D67-A40D-0E28E121AD88";
paths = (
{
closed = 1;
nodes = (
"101 326 LINE",
"285 326 LINE",
"285 141 LINE",
"335 141 LINE",
"335 326 LINE",
"519 326 LINE",
"519 374 LINE",
"335 374 LINE",
"335 559 LINE",
"285 559 LINE",
"285 374 LINE",
"101 374 LINE"
);
}
);
width = 620;
}
);
note = plus;
unicode = 002B;
},
{
glyphname = minus;
lastChange = "2017-07-18 09:12:28 +0000";
layers = (
{
layerId = "A285862E-BE3D-4D67-A40D-0E28E121AD88";
paths = (
{
closed = 1;
nodes = (
"101 326 LINE",
"519 326 LINE",
"519 374 LINE",
"101 374 LINE"
);
}
);
width = 620;
}
);
note = minus;
unicode = 2212;
},
{
glyphname = multiply;
lastChange = "2017-07-18 09:12:28 +0000";
layers = (
{
layerId = "A285862E-BE3D-4D67-A40D-0E28E121AD88";
paths = (
{
closed = 1;
nodes = (
"277 350 LINE",
"121 194 LINE",
"155 160 LINE",
"310 317 LINE",
"465 160 LINE",
"499 194 LINE",
"343 350 LINE",
"499 506 LINE",
"465 540 LINE",
"310 384 LINE",
"155 540 LINE",
"121 506 LINE"
);
}
);
width = 620;
}
);
note = multiply;
unicode = 00D7;
},
{
glyphname = divide;
lastChange = "2018-01-05 18:30:48 +0000";
layers = (
{
layerId = "A285862E-BE3D-4D67-A40D-0E28E121AD88";
paths = (
{
closed = 1;
nodes = (
"101 326 LINE",
"519 326 LINE",
"519 374 LINE",
"101 374 LINE"
);
},
{
closed = 1;
nodes = (
"249 162 OFFCURVE",
"278 138 OFFCURVE",
"310 138 CURVE SMOOTH",
"344 138 OFFCURVE",
"371 164 OFFCURVE",
"371 199 CURVE SMOOTH",
"371 234 OFFCURVE",
"342 259 OFFCURVE",
"310 259 CURVE SMOOTH",
"276 259 OFFCURVE",
"249 234 OFFCURVE",
"249 199 CURVE SMOOTH"
);
},
{
closed = 1;
nodes = (
"249 465 OFFCURVE",
"278 441 OFFCURVE",
"310 441 CURVE SMOOTH",
"344 441 OFFCURVE",
"371 467 OFFCURVE",
"371 501 CURVE SMOOTH",
"371 537 OFFCURVE",
"342 562 OFFCURVE",
"310 562 CURVE SMOOTH",
"276 562 OFFCURVE",
"249 536 OFFCURVE",
"249 501 CURVE SMOOTH"
);
}
);
width = 620;
}
);
note = divide;
unicode = 00F7;
},
{
glyphname = equal;
lastChange = "2017-07-18 09:12:28 +0000";
layers = (
{
layerId = "A285862E-BE3D-4D67-A40D-0E28E121AD88";
paths = (
{
closed = 1;
nodes = (
"519 390 LINE",
"519 437 LINE",
"101 437 LINE",
"101 390 LINE"
);
},
{
closed = 1;
nodes = (
"519 263 LINE",
"519 311 LINE",
"101 311 LINE",
"101 263 LINE"
);
}
);
width = 620;
}
);
note = equal;
unicode = 003D;
},
{
glyphname = notequal;
lastChange = "2017-11-11 16:31:04 +0000";
layers = (
{
layerId = "A285862E-BE3D-4D67-A40D-0E28E121AD88";
paths = (
{
closed = 1;
nodes = (
"298 390 LINE",
"272 311 LINE",
"101 311 LINE",
"101 263 LINE",
"257 263 LINE",
"220 152 LINE",
"267 137 LINE",
"308 263 LINE",
"519 263 LINE",
"519 311 LINE",
"322 311 LINE",
"349 390 LINE",
"519 390 LINE",
"519 437 LINE",
"363 437 LINE",
"395 533 LINE",
"350 547 LINE",
"314 437 LINE",
"101 437 LINE",
"101 390 LINE"
);
}
);
width = 620;
}
);
note = notequal;
unicode = 2260;
},
{
glyphname = greater;
lastChange = "2017-07-18 09:12:28 +0000";
layers = (
{
layerId = "A285862E-BE3D-4D67-A40D-0E28E121AD88";
paths = (
{
closed = 1;
nodes = (
"520 384 LINE",
"100 570 LINE",
"100 507 LINE",
"465 354 LINE",
"465 346 LINE",
"100 193 LINE",
"100 130 LINE",
"520 316 LINE"
);
}
);
width = 620;
}
);
note = greater;
unicode = 003E;
},
{
glyphname = less;
lastChange = "2017-07-18 09:12:28 +0000";
layers = (
{
layerId = "A285862E-BE3D-4D67-A40D-0E28E121AD88";
paths = (
{
closed = 1;
nodes = (
"520 130 LINE",
"520 193 LINE",
"156 346 LINE",
"156 354 LINE",
"520 507 LINE",
"520 570 LINE",
"100 384 LINE",
"100 316 LINE"
);
}
);
width = 620;
}
);
note = less;
unicode = 003C;
},
{
glyphname = greaterequal;
lastChange = "2017-07-18 09:12:28 +0000";
layers = (
{
layerId = "A285862E-BE3D-4D67-A40D-0E28E121AD88";
paths = (
{
closed = 1;
nodes = (
"521 51 LINE",
"99 51 LINE",
"99 0 LINE",
"521 0 LINE"
);
},
{
closed = 1;
nodes = (
"520 384 LINE",
"100 570 LINE",
"100 507 LINE",
"465 354 LINE",
"465 346 LINE",
"100 193 LINE",
"100 130 LINE",
"520 316 LINE"
);
}
);
width = 620;
}
);
note = greaterequal;
unicode = 2265;
},
{
glyphname = lessequal;
lastChange = "2017-07-18 09:12:28 +0000";
layers = (
{
layerId = "A285862E-BE3D-4D67-A40D-0E28E121AD88";
paths = (
{
closed = 1;
nodes = (
"521 0 LINE",
"521 51 LINE",
"99 51 LINE",
"99 0 LINE"
);
},
{
closed = 1;
nodes = (
"520 130 LINE",
"520 193 LINE",
"156 346 LINE",
"156 354 LINE",
"520 507 LINE",
"520 570 LINE",
"100 384 LINE",
"100 316 LINE"
);
}
);
width = 620;
}
);
note = lessequal;
unicode = 2264;
},
{
glyphname = plusminus;
lastChange = "2017-07-18 09:12:28 +0000";
layers = (
{
layerId = "A285862E-BE3D-4D67-A40D-0E28E121AD88";
paths = (
{
closed = 1;
nodes = (
"286 326 LINE",
"286 129 LINE",
"334 129 LINE",
"334 326 LINE",
"519 326 LINE",
"519 374 LINE",
"334 374 LINE",
"334 559 LINE",
"286 559 LINE",
"286 374 LINE",
"101 374 LINE",
"101 326 LINE"
);
},
{
closed = 1;
nodes = (
"519 0 LINE",
"519 48 LINE",
"101 48 LINE",
"101 0 LINE"
);
}
);
width = 620;
}
);
note = plusminus;
unicode = 00B1;
},
{
glyphname = approxequal;
lastChange = "2017-11-11 22:44:53 +0000";
layers = (
{
layerId = "A285862E-BE3D-4D67-A40D-0E28E121AD88";
paths = (
{
closed = 1;
nodes = (
"310 466 OFFCURVE",
"293 491 OFFCURVE",
"254 491 CURVE SMOOTH",
"227 491 OFFCURVE",
"205 473 OFFCURVE",
"184 455 CURVE SMOOTH",
"109 391 LINE",
"141 356 LINE",
"222 427 LINE SMOOTH",
"232 435 OFFCURVE",
"238 441 OFFCURVE",
"251 441 CURVE SMOOTH",
"269 441 OFFCURVE",
"277 426 OFFCURVE",
"289 406 CURVE SMOOTH",
"311 370 OFFCURVE",
"328 345 OFFCURVE",
"367 345 CURVE SMOOTH",
"394 345 OFFCURVE",
"416 363 OFFCURVE",
"437 381 CURVE SMOOTH",
"512 445 LINE",
"480 480 LINE",
"399 409 LINE SMOOTH",
"389 401 OFFCURVE",
"383 395 OFFCURVE",
"370 395 CURVE SMOOTH",
"352 395 OFFCURVE",
"344 410 OFFCURVE",
"332 430 CURVE SMOOTH"
);
},
{
closed = 1;
nodes = (
"310 316 OFFCURVE",
"293 341 OFFCURVE",
"254 341 CURVE SMOOTH",
"227 341 OFFCURVE",
"205 323 OFFCURVE",
"184 305 CURVE SMOOTH",
"109 241 LINE",
"141 206 LINE",
"222 277 LINE SMOOTH",
"232 285 OFFCURVE",
"238 291 OFFCURVE",
"251 291 CURVE SMOOTH",
"269 291 OFFCURVE",
"277 276 OFFCURVE",
"289 256 CURVE SMOOTH",
"311 220 OFFCURVE",
"328 195 OFFCURVE",
"367 195 CURVE SMOOTH",
"394 195 OFFCURVE",
"416 213 OFFCURVE",
"437 231 CURVE SMOOTH",
"512 295 LINE",
"480 330 LINE",
"399 259 LINE SMOOTH",
"389 251 OFFCURVE",
"383 245 OFFCURVE",
"370 245 CURVE SMOOTH",
"352 245 OFFCURVE",
"344 260 OFFCURVE",
"332 280 CURVE SMOOTH"
);
}
);
width = 620;
}
);
note = approxequal;
unicode = 2248;
},
{
glyphname = asciitilde;
lastChange = "2017-07-18 09:12:28 +0000";
layers = (
{
layerId = "A285862E-BE3D-4D67-A40D-0E28E121AD88";
paths = (
{
closed = 1;
nodes = (
"310 386 OFFCURVE",
"293 411 OFFCURVE",
"254 411 CURVE SMOOTH",
"227 411 OFFCURVE",
"207 392 OFFCURVE",
"186 375 CURVE SMOOTH",
"109 311 LINE",
"141 276 LINE",
"224 347 LINE SMOOTH",
"234 355 OFFCURVE",
"240 361 OFFCURVE",
"253 361 CURVE SMOOTH",
"271 361 OFFCURVE",
"277 346 OFFCURVE",
"289 326 CURVE SMOOTH",
"311 290 OFFCURVE",
"328 265 OFFCURVE",
"367 265 CURVE SMOOTH",
"394 265 OFFCURVE",
"414 284 OFFCURVE",
"435 301 CURVE SMOOTH",
"512 365 LINE",
"480 400 LINE",
"397 329 LINE SMOOTH",
"387 321 OFFCURVE",
"381 315 OFFCURVE",
"368 315 CURVE SMOOTH",
"350 315 OFFCURVE",
"344 330 OFFCURVE",
"332 350 CURVE SMOOTH"
);
}
);
width = 620;
}
);
note = asciitilde;
unicode = 007E;
},
{
glyphname = logicalnot;
lastChange = "2017-07-18 09:12:28 +0000";
layers = (
{
layerId = "A285862E-BE3D-4D67-A40D-0E28E121AD88";
paths = (
{
closed = 1;
nodes = (
"472 326 LINE",
"472 270 LINE",
"519 270 LINE",
"519 374 LINE",
"101 374 LINE",
"101 326 LINE"
);
}
);
width = 620;
}
);
note = logicalnot;
unicode = 00AC;
},
{
glyphname = asciicircum;
lastChange = "2017-07-18 09:12:28 +0000";
layers = (
{
layerId = "A285862E-BE3D-4D67-A40D-0E28E121AD88";
paths = (
{
closed = 1;
nodes = (
"267 700 LINE",
"76 424 LINE",
"144 424 LINE",
"306 661 LINE",
"314 661 LINE",
"477 424 LINE",
"544 424 LINE",
"353 700 LINE"
);
}
);
width = 620;
}
);
note = asciicircum;
unicode = 005E;
},
{
glyphname = infinity;
lastChange = "2017-07-18 09:12:28 +0000";
layers = (
{
layerId = "A285862E-BE3D-4D67-A40D-0E28E121AD88";
paths = (
{
closed = 1;
nodes = (
"67 279 OFFCURVE",
"128 216 OFFCURVE",
"199 216 CURVE SMOOTH",
"248 216 OFFCURVE",
"283 243 OFFCURVE",
"301 273 CURVE",
"319 273 LINE",
"337 243 OFFCURVE",
"372 216 OFFCURVE",
"421 216 CURVE SMOOTH",
"488 216 OFFCURVE",
"554 274 OFFCURVE",
"554 350 CURVE SMOOTH",
"554 424 OFFCURVE",
"494 485 OFFCURVE",
"421 485 CURVE SMOOTH",
"372 485 OFFCURVE",
"337 457 OFFCURVE",
"319 427 CURVE",
"301 427 LINE",
"283 457 OFFCURVE",
"248 485 OFFCURVE",
"199 485 CURVE SMOOTH",
"125 485 OFFCURVE",
"67 420 OFFCURVE",
"67 350 CURVE SMOOTH"
);
},
{
closed = 1;
nodes = (
"285 305 OFFCURVE",
"246 267 OFFCURVE",
"201 267 CURVE SMOOTH",
"156 267 OFFCURVE",
"118 305 OFFCURVE",
"118 350 CURVE SMOOTH",
"118 395 OFFCURVE",
"156 434 OFFCURVE",
"201 434 CURVE SMOOTH",
"246 434 OFFCURVE",
"285 395 OFFCURVE",
"285 350 CURVE SMOOTH"
);
},
{
closed = 1;
nodes = (
"336 395 OFFCURVE",
"374 434 OFFCURVE",
"419 434 CURVE SMOOTH",
"464 434 OFFCURVE",
"503 395 OFFCURVE",
"503 350 CURVE SMOOTH",
"503 305 OFFCURVE",
"464 267 OFFCURVE",
"419 267 CURVE SMOOTH",
"374 267 OFFCURVE",
"336 305 OFFCURVE",
"336 350 CURVE SMOOTH"
);
}
);
width = 620;
}
);
note = infinity;
unicode = 221E;
},
{
glyphname = emptyset;
lastChange = "2017-07-18 09:12:28 +0000";
layers = (
{
layerId = "A285862E-BE3D-4D67-A40D-0E28E121AD88";
paths = (
{
closed = 1;
nodes = (
"58 243 LINE SMOOTH",
"58 93 OFFCURVE",
"168 -14 OFFCURVE",
"320 -14 CURVE SMOOTH",
"472 -14 OFFCURVE",
"582 93 OFFCURVE",
"582 243 CURVE SMOOTH",
"582 253 LINE SMOOTH",
"582 403 OFFCURVE",
"472 510 OFFCURVE",
"320 510 CURVE SMOOTH",
"168 510 OFFCURVE",
"58 403 OFFCURVE",
"58 253 CURVE SMOOTH"
);
},
{
closed = 1;
nodes = (
"108 373 OFFCURVE",
"200 464 OFFCURVE",
"320 464 CURVE SMOOTH",
"440 464 OFFCURVE",
"532 378 OFFCURVE",
"532 253 CURVE SMOOTH",
"532 243 LINE SMOOTH",
"532 120 OFFCURVE",
"440 32 OFFCURVE",
"320 32 CURVE SMOOTH",
"200 32 OFFCURVE",
"108 115 OFFCURVE",
"108 243 CURVE SMOOTH",
"108 253 LINE SMOOTH"
);
},
{
closed = 1;
nodes = (
"152 -74 LINE",
"200 -94 LINE",
"488 570 LINE",
"440 590 LINE"
);
}
);
width = 640;
}
);
unicode = 2205;
},
{
glyphname = integral;
lastChange = "2017-07-18 09:12:28 +0000";
layers = (
{
layerId = "A285862E-BE3D-4D67-A40D-0E28E121AD88";
paths = (
{
closed = 1;
nodes = (
"335 646 OFFCURVE",
"344 656 OFFCURVE",
"362 656 CURVE SMOOTH",
"459 656 LINE",
"459 700 LINE",
"348 700 LINE SMOOTH",
"310 700 OFFCURVE",
"285 674 OFFCURVE",
"285 636 CURVE SMOOTH",
"285 -126 LINE SMOOTH",
"285 -146 OFFCURVE",
"276 -156 OFFCURVE",
"258 -156 CURVE SMOOTH",
"162 -156 LINE",
"162 -200 LINE",
"272 -200 LINE SMOOTH",
"310 -200 OFFCURVE",
"335 -174 OFFCURVE",
"335 -136 CURVE SMOOTH",
"335 626 LINE SMOOTH"
);
}
);
width = 620;
}
);
note = integral;
unicode = 222B;
},
{
glyphname = product;
lastChange = "2020-05-15 10:50:20 +0000";
layers = (
{
layerId = "A285862E-BE3D-4D67-A40D-0E28E121AD88";
paths = (
{
closed = 1;
nodes = (
"126 -200 LINE",
"126 652 LINE",
"472 652 LINE",
"472 -200 LINE",
"524 -200 LINE",
"524 700 LINE",
"74 700 LINE",
"74 -200 LINE"
);
}
);
width = 598;
}
);
note = product;
unicode = 220F;
},
{
glyphname = summation;
lastChange = "2020-05-15 10:51:12 +0000";
layers = (
{
layerId = "A285862E-BE3D-4D67-A40D-0E28E121AD88";
paths = (
{
closed = 1;
nodes = (
"329 250 LINE",
"56 -126 LINE",
"56 -200 LINE",
"546 -200 LINE",
"546 -152 LINE",
"109 -152 LINE",
"109 -142 LINE",
"393 250 LINE",
"109 642 LINE",
"109 652 LINE",
"546 652 LINE",
"546 700 LINE",
"56 700 LINE",
"56 626 LINE"
);
}
);
width = 598;
}
);
note = summation;
unicode = 2211;
},
{
glyphname = radical;
lastChange = "2020-05-15 10:52:28 +0000";
layers = (
{
layerId = "A285862E-BE3D-4D67-A40D-0E28E121AD88";
paths = (
{
closed = 1;
nodes = (
"145 323 LINE",
"239 0 LINE",
"335 0 LINE",
"573 856 LINE",
"517 856 LINE",
"292 30 LINE",
"282 30 LINE",
"186 371 LINE",
"56 371 LINE",
"56 323 LINE"
);
}
);
width = 617;
}
);
note = radical;
unicode = 221A;
},
{
glyphname = partialdiff;
lastChange = "2017-07-18 09:12:28 +0000";
layers = (
{
layerId = "A285862E-BE3D-4D67-A40D-0E28E121AD88";
paths = (
{
closed = 1;
nodes = (
"67 242 LINE SMOOTH",
"67 94 OFFCURVE",
"167 -14 OFFCURVE",
"313 -14 CURVE SMOOTH",
"465 -14 OFFCURVE",
"553 99 OFFCURVE",
"553 266 CURVE SMOOTH",
"553 507 OFFCURVE",
"426 669 OFFCURVE",
"188 706 CURVE",
"172 655 LINE",
"305 640 OFFCURVE",
"447 558 OFFCURVE",
"475 426 CURVE",
"466 426 LINE",
"444 471 OFFCURVE",
"385 510 OFFCURVE",
"314 510 CURVE SMOOTH",
"176 510 OFFCURVE",
"67 401 OFFCURVE",
"67 254 CURVE SMOOTH"
);
},
{
closed = 1;
nodes = (
"201 33 OFFCURVE",
"120 121 OFFCURVE",
"120 240 CURVE SMOOTH",
"120 256 LINE SMOOTH",
"120 370 OFFCURVE",
"202 463 OFFCURVE",
"312 463 CURVE SMOOTH",
"418 463 OFFCURVE",
"504 373 OFFCURVE",
"504 254 CURVE SMOOTH",
"504 133 OFFCURVE",
"432 33 OFFCURVE",
"312 33 CURVE SMOOTH"
);
}
);
width = 620;
}
);
note = partialdiff;
unicode = 2202;
},
{
glyphname = mu;
lastChange = "2020-04-26 14:10:36 +0000";
layers = (
{
layerId = "A285862E-BE3D-4D67-A40D-0E28E121AD88";
paths = (
{
closed = 1;
nodes = (
"140 -200 LINE",
"140 56 LINE",
"150 56 LINE",
"175 18 OFFCURVE",
"224 -14 OFFCURVE",
"292 -14 CURVE SMOOTH",
"386 -14 OFFCURVE",
"436 23 OFFCURVE",
"468 96 CURVE",
"478 96 LINE",
"478 0 LINE",
"526 0 LINE",
"526 496 LINE",
"476 496 LINE",
"476 238 LINE SMOOTH",
"476 106 OFFCURVE",
"407 32 OFFCURVE",
"294 32 CURVE SMOOTH",
"193 32 OFFCURVE",
"140 88 OFFCURVE",
"140 207 CURVE SMOOTH",
"140 496 LINE",
"90 496 LINE",
"90 -200 LINE"
);
}
);
width = 610;
}
);
leftMetricsKey = n;
note = mu;
rightMetricsKey = m;
unicode = 00B5;
},
{
glyphname = percent;
lastChange = "2020-04-26 11:21:40 +0000";
layers = (
{
layerId = "A285862E-BE3D-4D67-A40D-0E28E121AD88";
paths = (
{
closed = 1;
nodes = (
"124 -12 LINE",
"692 683 LINE",
"654 712 LINE",
"86 17 LINE"
);
},
{
closed = 1;
nodes = (
"38 539 LINE SMOOTH",
"38 441 OFFCURVE",
"98 380 OFFCURVE",
"196 380 CURVE SMOOTH",
"294 380 OFFCURVE",
"354 441 OFFCURVE",
"354 539 CURVE SMOOTH",
"354 550 LINE SMOOTH",
"354 648 OFFCURVE",
"291 710 OFFCURVE",
"196 710 CURVE SMOOTH",
"98 710 OFFCURVE",
"38 648 OFFCURVE",
"38 550 CURVE SMOOTH"
);
},
{
closed = 1;
nodes = (
"84 623 OFFCURVE",
"126 668 OFFCURVE",
"196 668 CURVE SMOOTH",
"266 668 OFFCURVE",
"308 623 OFFCURVE",
"308 555 CURVE SMOOTH",
"308 535 LINE SMOOTH",
"308 467 OFFCURVE",
"266 422 OFFCURVE",
"196 422 CURVE SMOOTH",
"126 422 OFFCURVE",
"84 467 OFFCURVE",
"84 535 CURVE SMOOTH",
"84 555 LINE SMOOTH"
);
},
{
closed = 1;
nodes = (
"428 149 LINE SMOOTH",
"428 51 OFFCURVE",
"488 -10 OFFCURVE",
"586 -10 CURVE SMOOTH",
"684 -10 OFFCURVE",
"744 51 OFFCURVE",
"744 149 CURVE SMOOTH",
"744 160 LINE SMOOTH",
"744 258 OFFCURVE",
"681 320 OFFCURVE",
"586 320 CURVE SMOOTH",
"488 320 OFFCURVE",
"428 258 OFFCURVE",
"428 160 CURVE SMOOTH"
);
},
{
closed = 1;
nodes = (
"474 233 OFFCURVE",
"516 278 OFFCURVE",
"586 278 CURVE SMOOTH",
"656 278 OFFCURVE",
"698 233 OFFCURVE",
"698 165 CURVE SMOOTH",
"698 145 LINE SMOOTH",
"698 77 OFFCURVE",
"656 32 OFFCURVE",
"586 32 CURVE SMOOTH",
"516 32 OFFCURVE",
"474 77 OFFCURVE",
"474 145 CURVE SMOOTH",
"474 165 LINE SMOOTH"
);
}
);
width = 782;
}
);
note = percent;
unicode = 0025;
},
{
glyphname = perthousand;
lastChange = "2020-04-26 11:31:10 +0000";
layers = (
{
layerId = "A285862E-BE3D-4D67-A40D-0E28E121AD88";
paths = (
{
closed = 1;
nodes = (
"124 -12 LINE",
"692 683 LINE",
"654 712 LINE",
"86 17 LINE"
);
},
{
closed = 1;
nodes = (
"38 540 LINE SMOOTH",
"38 442 OFFCURVE",
"98 380 OFFCURVE",
"196 380 CURVE SMOOTH",
"294 380 OFFCURVE",
"354 442 OFFCURVE",
"354 540 CURVE SMOOTH",
"354 550 LINE SMOOTH",
"354 648 OFFCURVE",
"294 710 OFFCURVE",
"196 710 CURVE SMOOTH",
"98 710 OFFCURVE",
"38 648 OFFCURVE",
"38 550 CURVE SMOOTH"
);
},
{
closed = 1;
nodes = (
"84 623 OFFCURVE",
"126 668 OFFCURVE",
"196 668 CURVE SMOOTH",
"266 668 OFFCURVE",
"308 623 OFFCURVE",
"308 555 CURVE SMOOTH",
"308 535 LINE SMOOTH",
"308 467 OFFCURVE",
"266 422 OFFCURVE",
"196 422 CURVE SMOOTH",
"126 422 OFFCURVE",
"84 467 OFFCURVE",
"84 535 CURVE SMOOTH",
"84 555 LINE SMOOTH"
);
},
{
closed = 1;
nodes = (
"434 150 LINE SMOOTH",
"434 52 OFFCURVE",
"491 -10 OFFCURVE",
"577 -10 CURVE SMOOTH",
"663 -10 OFFCURVE",
"716 52 OFFCURVE",
"716 150 CURVE SMOOTH",
"716 160 LINE SMOOTH",
"716 258 OFFCURVE",
"663 320 OFFCURVE",
"577 320 CURVE SMOOTH",
"491 320 OFFCURVE",
"434 258 OFFCURVE",
"434 160 CURVE SMOOTH"
);
},
{
closed = 1;
nodes = (
"480 232 OFFCURVE",
"520 278 OFFCURVE",
"580 278 CURVE SMOOTH",
"640 278 OFFCURVE",
"680 232 OFFCURVE",
"680 162 CURVE SMOOTH",
"680 148 LINE SMOOTH",
"680 78 OFFCURVE",
"640 32 OFFCURVE",
"580 32 CURVE SMOOTH",
"520 32 OFFCURVE",
"480 78 OFFCURVE",
"480 148 CURVE SMOOTH",
"480 162 LINE SMOOTH"
);
},
{
closed = 1;
nodes = (
"690 150 LINE SMOOTH",
"690 52 OFFCURVE",
"743 -10 OFFCURVE",
"829 -10 CURVE SMOOTH",
"915 -10 OFFCURVE",
"972 52 OFFCURVE",
"972 150 CURVE SMOOTH",
"972 160 LINE SMOOTH",
"972 258 OFFCURVE",
"915 320 OFFCURVE",
"829 320 CURVE SMOOTH",
"743 320 OFFCURVE",
"690 258 OFFCURVE",
"690 160 CURVE SMOOTH"
);
},
{
closed = 1;
nodes = (
"726 232 OFFCURVE",
"766 278 OFFCURVE",
"826 278 CURVE SMOOTH",
"886 278 OFFCURVE",
"926 232 OFFCURVE",
"926 162 CURVE SMOOTH",
"926 148 LINE SMOOTH",
"926 78 OFFCURVE",
"886 32 OFFCURVE",
"826 32 CURVE SMOOTH",
"766 32 OFFCURVE",
"726 78 OFFCURVE",
"726 148 CURVE SMOOTH",
"726 162 LINE SMOOTH"
);
},
{
closed = 1;
nodes = (
"697 62 LINE",
"709 62 LINE",
"709 248 LINE",
"697 248 LINE"
);
}
);
width = 1010;
}
);
leftMetricsKey = percent;
note = perthousand;
rightMetricsKey = percent;
unicode = 2030;
},
{
glyphname = upArrow;
lastChange = "2020-04-22 10:59:12 +0000";
layers = (
{
layerId = "A285862E-BE3D-4D67-A40D-0E28E121AD88";
paths = (
{
closed = 1;
nodes = (
"86 428 LINE",
"259 601 LINE",
"280 630 LINE",
"289 627 LINE",
"286 591 LINE",
"286 0 LINE",
"338 0 LINE",
"338 591 LINE",
"335 627 LINE",
"344 630 LINE",
"365 601 LINE",
"538 428 LINE",
"574 464 LINE",
"332 706 LINE",
"292 706 LINE",
"50 464 LINE"
);
}
);
width = 620;
}
);
note = arrowup;
unicode = 2191;
},
{
glyphname = northEastArrow;
lastChange = "2020-04-22 11:02:56 +0000";
layers = (
{
layerId = "A285862E-BE3D-4D67-A40D-0E28E121AD88";
paths = (
{
closed = 1;
nodes = (
"158 434 LINE",
"403 434 LINE",
"438 439 LINE",
"442 431 LINE",
"415 408 LINE",
"32 25 LINE",
"69 -12 LINE",
"452 371 LINE",
"475 398 LINE",
"483 394 LINE",
"478 359 LINE",
"478 114 LINE",
"528 113 LINE",
"528 455 LINE",
"499 484 LINE",
"157 484 LINE"
);
}
);
width = 608;
}
);
note = uni2197;
unicode = 2197;
},
{
glyphname = rightArrow;
lastChange = "2020-04-22 10:59:57 +0000";
layers = (
{
layerId = "A285862E-BE3D-4D67-A40D-0E28E121AD88";
paths = (
{
closed = 1;
nodes = (
"472 477 LINE",
"646 303 LINE",
"675 282 LINE",
"672 273 LINE",
"636 276 LINE",
"50 276 LINE",
"50 226 LINE",
"636 226 LINE",
"672 229 LINE",
"675 220 LINE",
"646 199 LINE",
"472 25 LINE",
"508 -11 LINE",
"750 231 LINE",
"750 271 LINE",
"508 513 LINE"
);
}
);
width = 800;
}
);
note = arrowright;
unicode = 2192;
},
{
glyphname = southEastArrow;
lastChange = "2020-04-22 11:03:06 +0000";
layers = (
{
layerId = "A285862E-BE3D-4D67-A40D-0E28E121AD88";
paths = (
{
closed = 1;
nodes = (
"499 0 LINE",
"528 29 LINE",
"528 371 LINE",
"478 370 LINE",
"478 125 LINE",
"483 90 LINE",
"475 86 LINE",
"452 113 LINE",
"69 496 LINE",
"32 459 LINE",
"415 76 LINE",
"442 53 LINE",
"438 45 LINE",
"403 50 LINE",
"158 50 LINE",
"157 0 LINE"
);
}
);
width = 608;
}
);
note = uni2198;
unicode = 2198;
},
{
glyphname = downArrow;
lastChange = "2020-04-22 11:00:18 +0000";
layers = (
{
layerId = "A285862E-BE3D-4D67-A40D-0E28E121AD88";
paths = (
{
closed = 1;
nodes = (
"292 -6 LINE",
"332 -6 LINE",
"574 236 LINE",
"538 272 LINE",
"365 99 LINE",
"344 70 LINE",
"335 73 LINE",
"338 109 LINE",
"338 700 LINE",
"286 700 LINE",
"286 109 LINE",
"289 73 LINE",
"280 70 LINE",
"259 99 LINE",
"86 272 LINE",
"50 236 LINE"
);
}
);
width = 620;
}
);
note = arrowdown;
unicode = 2193;
},
{
glyphname = southWestArrow;
lastChange = "2020-04-22 11:03:29 +0000";
layers = (
{
layerId = "A285862E-BE3D-4D67-A40D-0E28E121AD88";
paths = (
{
closed = 1;
nodes = (
"450 50 LINE",
"205 50 LINE",
"170 45 LINE",
"166 53 LINE",
"193 76 LINE",
"576 459 LINE",
"539 496 LINE",
"156 113 LINE",
"133 86 LINE",
"125 90 LINE",
"130 125 LINE",
"130 370 LINE",
"80 371 LINE",
"80 29 LINE",
"109 0 LINE",
"451 0 LINE"
);
}
);
width = 608;
}
);
note = uni2199;
unicode = 2199;
},
{
glyphname = leftArrow;
lastChange = "2020-04-22 11:00:08 +0000";
layers = (
{
layerId = "A285862E-BE3D-4D67-A40D-0E28E121AD88";
paths = (
{
closed = 1;
nodes = (
"50 271 LINE",
"50 231 LINE",
"292 -11 LINE",
"328 25 LINE",
"154 199 LINE",
"125 220 LINE",
"128 229 LINE",
"164 226 LINE",
"750 226 LINE",
"750 276 LINE",
"164 276 LINE",
"128 273 LINE",
"125 282 LINE",
"154 303 LINE",
"328 477 LINE",
"292 513 LINE"
);
}
);
width = 800;
}
);
note = arrowleft;
unicode = 2190;
},
{
glyphname = northWestArrow;
lastChange = "2020-04-22 11:03:18 +0000";
layers = (
{
layerId = "A285862E-BE3D-4D67-A40D-0E28E121AD88";
paths = (
{
closed = 1;
nodes = (
"109 484 LINE",
"80 455 LINE",
"80 113 LINE",
"130 114 LINE",
"130 359 LINE",
"125 394 LINE",
"133 398 LINE",
"156 371 LINE",
"539 -12 LINE",
"576 25 LINE",
"193 408 LINE",
"166 431 LINE",
"170 439 LINE",
"205 434 LINE",
"450 434 LINE",
"451 484 LINE"
);
}
);
width = 608;
}
);
note = uni2196;
unicode = 2196;
},
{
glyphname = leftRightArrow;
lastChange = "2020-04-22 11:01:20 +0000";
layers = (
{
layerId = "A285862E-BE3D-4D67-A40D-0E28E121AD88";
paths = (
{
closed = 1;
nodes = (
"50 265 LINE",
"50 225 LINE",
"292 -17 LINE",
"328 19 LINE",
"154 193 LINE",
"125 214 LINE",
"128 223 LINE",
"164 220 LINE",
"400 220 LINE",
"400 270 LINE",
"164 270 LINE",
"128 267 LINE",
"125 276 LINE",
"154 297 LINE",
"328 471 LINE",
"292 507 LINE"
);
},
{
closed = 1;
nodes = (
"472 471 LINE",
"646 297 LINE",
"675 276 LINE",
"672 267 LINE",
"636 270 LINE",
"400 270 LINE",
"400 220 LINE",
"636 220 LINE",
"672 223 LINE",
"675 214 LINE",
"646 193 LINE",
"472 19 LINE",
"508 -17 LINE",
"750 225 LINE",
"750 265 LINE",
"508 507 LINE"
);
}
);
width = 800;
}
);
note = arrowboth;
unicode = 2194;
},
{
glyphname = upDownArrow;
lastChange = "2020-04-22 11:00:49 +0000";
layers = (
{
layerId = "A285862E-BE3D-4D67-A40D-0E28E121AD88";
paths = (
{
closed = 1;
nodes = (
"86 428 LINE",
"259 601 LINE",
"280 630 LINE",
"289 627 LINE",
"286 591 LINE",
"286 350 LINE",
"338 350 LINE",
"338 591 LINE",
"335 627 LINE",
"344 630 LINE",
"365 601 LINE",
"538 428 LINE",
"574 464 LINE",
"332 706 LINE",
"292 706 LINE",
"50 464 LINE"
);
},
{
closed = 1;
nodes = (
"292 -6 LINE",
"332 -6 LINE",
"574 236 LINE",
"538 272 LINE",
"365 99 LINE",
"344 70 LINE",
"335 73 LINE",
"338 109 LINE",
"338 350 LINE",
"286 350 LINE",
"286 109 LINE",
"289 73 LINE",
"280 70 LINE",
"259 99 LINE",
"86 272 LINE",
"50 236 LINE"
);
}
);
width = 620;
}
);
note = arrowupdn;
unicode = 2195;
},
{
glyphname = northEastArrow.case;
lastChange = "2020-04-22 11:03:40 +0000";
layers = (
{
layerId = "A285862E-BE3D-4D67-A40D-0E28E121AD88";
paths = (
{
closed = 1;
nodes = (
"170 650 LINE",
"415 650 LINE",
"450 655 LINE",
"454 647 LINE",
"427 624 LINE",
"32 229 LINE",
"69 192 LINE",
"464 587 LINE",
"487 614 LINE",
"495 610 LINE",
"490 575 LINE",
"490 330 LINE",
"540 329 LINE",
"540 671 LINE",
"511 700 LINE",
"169 700 LINE"
);
}
);
width = 620;
}
);
note = uni2197;
},
{
glyphname = rightArrow.case;
lastChange = "2020-04-22 11:01:31 +0000";
layers = (
{
layerId = "A285862E-BE3D-4D67-A40D-0E28E121AD88";
paths = (
{
closed = 1;
nodes = (
"472 573 LINE",
"646 399 LINE",
"675 378 LINE",
"672 369 LINE",
"636 372 LINE",
"50 372 LINE",
"50 322 LINE",
"636 322 LINE",
"672 325 LINE",
"675 316 LINE",
"646 295 LINE",
"472 121 LINE",
"508 85 LINE",
"750 327 LINE",
"750 367 LINE",
"508 609 LINE"
);
}
);
width = 800;
}
);
note = arrowright;
},
{
glyphname = leftArrow.case;
lastChange = "2020-04-22 11:01:36 +0000";
layers = (
{
layerId = "A285862E-BE3D-4D67-A40D-0E28E121AD88";
paths = (
{
closed = 1;
nodes = (
"50 367 LINE",
"50 327 LINE",
"292 85 LINE",
"328 121 LINE",
"154 295 LINE",
"125 316 LINE",
"128 325 LINE",
"164 322 LINE",
"750 322 LINE",
"750 372 LINE",
"164 372 LINE",
"128 369 LINE",
"125 378 LINE",
"154 399 LINE",
"328 573 LINE",
"292 609 LINE"
);
}
);
width = 800;
}
);
note = arrowleft;
},
{
glyphname = northWestArrow.case;
lastChange = "2020-04-22 11:03:47 +0000";
layers = (
{
layerId = "A285862E-BE3D-4D67-A40D-0E28E121AD88";
paths = (
{
closed = 1;
nodes = (
"109 700 LINE",
"80 671 LINE",
"80 329 LINE",
"130 330 LINE",
"130 575 LINE",
"125 610 LINE",
"133 614 LINE",
"156 587 LINE",
"551 192 LINE",
"588 229 LINE",
"193 624 LINE",
"166 647 LINE",
"170 655 LINE",
"205 650 LINE",
"450 650 LINE",
"451 700 LINE"
);
}
);
width = 600;
}
);
note = uni2196;
},
{
glyphname = leftRightArrow.case;
lastChange = "2020-04-22 11:01:47 +0000";
layers = (
{
layerId = "A285862E-BE3D-4D67-A40D-0E28E121AD88";
paths = (
{
closed = 1;
nodes = (
"50 367 LINE",
"50 327 LINE",
"292 85 LINE",
"328 121 LINE",
"154 295 LINE",
"125 316 LINE",
"128 325 LINE",
"164 322 LINE",
"400 322 LINE",
"400 372 LINE",
"164 372 LINE",
"128 369 LINE",
"125 378 LINE",
"154 399 LINE",
"328 573 LINE",
"292 609 LINE"
);
},
{
closed = 1;
nodes = (
"472 573 LINE",
"646 399 LINE",
"675 378 LINE",
"672 369 LINE",
"636 372 LINE",
"400 372 LINE",
"400 322 LINE",
"636 322 LINE",
"672 325 LINE",
"675 316 LINE",
"646 295 LINE",
"472 121 LINE",
"508 85 LINE",
"750 327 LINE",
"750 367 LINE",
"508 609 LINE"
);
}
);
width = 800;
}
);
note = arrowboth;
},
{
glyphname = lozenge;
lastChange = "2017-07-18 09:12:28 +0000";
layers = (
{
layerId = "A285862E-BE3D-4D67-A40D-0E28E121AD88";
paths = (
{
closed = 1;
nodes = (
"271 0 LINE",
"349 0 LINE",
"553 350 LINE",
"349 700 LINE",
"271 700 LINE",
"67 350 LINE"
);
},
{
closed = 1;
nodes = (
"306 662 LINE",
"314 662 LINE",
"493 350 LINE",
"314 38 LINE",
"306 38 LINE",
"127 350 LINE"
);
}
);
width = 620;
}
);
note = lozenge;
unicode = 25CA;
},
{
glyphname = at;
lastChange = "2017-11-11 16:32:32 +0000";
layers = (
{
layerId = "A285862E-BE3D-4D67-A40D-0E28E121AD88";
paths = (
{
closed = 1;
nodes = (
"82 -136 OFFCURVE",
"146 -200 OFFCURVE",
"270 -200 CURVE SMOOTH",
"918 -200 LINE",
"918 -154 LINE",
"268 -154 LINE SMOOTH",
"178 -154 OFFCURVE",
"132 -108 OFFCURVE",
"132 -18 CURVE SMOOTH",
"132 518 LINE SMOOTH",
"132 608 OFFCURVE",
"178 654 OFFCURVE",
"268 654 CURVE SMOOTH",
"752 654 LINE SMOOTH",
"842 654 OFFCURVE",
"888 608 OFFCURVE",
"888 518 CURVE SMOOTH",
"888 90 LINE SMOOTH",
"888 57 OFFCURVE",
"875 44 OFFCURVE",
"842 44 CURVE SMOOTH",
"738 44 LINE SMOOTH",
"722 44 OFFCURVE",
"715 49 OFFCURVE",
"715 66 CURVE SMOOTH",
"715 476 LINE",
"667 476 LINE",
"667 383 LINE",
"657 383 LINE",
"642 423 OFFCURVE",
"598 490 OFFCURVE",
"494 490 CURVE SMOOTH",
"378 490 OFFCURVE",
"285 389 OFFCURVE",
"285 247 CURVE SMOOTH",
"285 229 LINE SMOOTH",
"285 87 OFFCURVE",
"378 -14 OFFCURVE",
"494 -14 CURVE SMOOTH",
"598 -14 OFFCURVE",
"642 51 OFFCURVE",
"657 91 CURVE",
"667 91 LINE",
"667 66 LINE SMOOTH",
"667 25 OFFCURVE",
"689 0 OFFCURVE",
"735 0 CURVE SMOOTH",
"850 0 LINE SMOOTH",
"908 0 OFFCURVE",
"938 30 OFFCURVE",
"938 88 CURVE SMOOTH",
"938 512 LINE SMOOTH",
"938 636 OFFCURVE",
"874 700 OFFCURVE",
"750 700 CURVE SMOOTH",
"270 700 LINE SMOOTH",
"146 700 OFFCURVE",
"82 636 OFFCURVE",
"82 512 CURVE SMOOTH",
"82 -12 LINE SMOOTH"
);
},
{
closed = 1;
nodes = (
"337 244 LINE SMOOTH",
"337 366 OFFCURVE",
"405 444 OFFCURVE",
"501 444 CURVE SMOOTH",
"597 444 OFFCURVE",
"665 369 OFFCURVE",
"665 243 CURVE SMOOTH",
"665 233 LINE SMOOTH",
"665 107 OFFCURVE",
"597 32 OFFCURVE",
"501 32 CURVE SMOOTH",
"405 32 OFFCURVE",
"337 110 OFFCURVE",
"337 232 CURVE SMOOTH"
);
}
);
width = 1020;
}
);
note = at;
unicode = 0040;
},
{
glyphname = ampersand;
lastChange = "2019-10-07 18:50:25 +0000";
layers = (
{
layerId = "A285862E-BE3D-4D67-A40D-0E28E121AD88";
paths = (
{
closed = 1;
nodes = (
"263 700 LINE SMOOTH",
"157 700 OFFCURVE",
"62 636 OFFCURVE",
"62 516 CURVE SMOOTH",
"62 426 OFFCURVE",
"117 379 OFFCURVE",
"175 360 CURVE",
"175 350 LINE",
"115 328 OFFCURVE",
"54 273 OFFCURVE",
"54 183 CURVE SMOOTH",
"54 65 OFFCURVE",
"147 0 OFFCURVE",
"259 0 CURVE SMOOTH",
"479 0 LINE",
"479 330 LINE",
"580 330 LINE",
"580 376 LINE",
"479 376 LINE",
"479 496 LINE",
"429 496 LINE",
"429 376 LINE",
"265 376 LINE SMOOTH",
"183 376 OFFCURVE",
"114 419 OFFCURVE",
"114 515 CURVE SMOOTH",
"114 611 OFFCURVE",
"183 654 OFFCURVE",
"265 654 CURVE SMOOTH",
"399 654 LINE",
"399 700 LINE"
);
},
{
closed = 1;
nodes = (
"429 330 LINE",
"429 46 LINE",
"261 46 LINE SMOOTH",
"175 46 OFFCURVE",
"106 90 OFFCURVE",
"106 188 CURVE SMOOTH",
"106 286 OFFCURVE",
"175 330 OFFCURVE",
"261 330 CURVE SMOOTH"
);
}
);
width = 612;
},
{
associatedMasterId = "A285862E-BE3D-4D67-A40D-0E28E121AD88";
layerId = "F5FC7C43-D20E-4D15-9A4F-7E7579410929";
name = v1;
paths = (
{
closed = 1;
nodes = (
"56 76 OFFCURVE",
"128 -15 OFFCURVE",
"258 -15 CURVE SMOOTH",
"352.085 -15 OFFCURVE",
"417.83 32.364 OFFCURVE",
"470.473 100 CURVE",
"481.403 100 LINE",
"584 0 LINE",
"652 0 LINE",
"505 144 LINE",
"505 153 LINE",
"640 407 LINE",
"586 407 LINE",
"470 188 LINE",
"460 188 LINE",
"298 346 LINE SMOOTH",
"227 415 OFFCURVE",
"168 469 OFFCURVE",
"168 543 CURVE SMOOTH",
"168 547 LINE SMOOTH",
"168 621 OFFCURVE",
"220 668 OFFCURVE",
"298 668 CURVE SMOOTH",
"376 668 OFFCURVE",
"434 623 OFFCURVE",
"434 531 CURVE SMOOTH",
"434 496 LINE",
"486 496 LINE",
"486 534 LINE SMOOTH",
"486 643 OFFCURVE",
"414 714 OFFCURVE",
"298 714 CURVE SMOOTH",
"182 714 OFFCURVE",
"116 641 OFFCURVE",
"116 549 CURVE SMOOTH",
"116 543 LINE SMOOTH",
"116 483.521 OFFCURVE",
"142.333 438.671 OFFCURVE",
"185 391.155 CURVE",
"185 381.007 LINE",
"125.715 340.624 OFFCURVE",
"56 271 OFFCURVE",
"56 178 CURVE SMOOTH"
);
},
{
closed = 1;
nodes = (
"108 182 LINE SMOOTH",
"108 255 OFFCURVE",
"161 310 OFFCURVE",
"219 347 CURVE",
"228 347 LINE",
"436 144 LINE",
"436 133 LINE",
"390 70 OFFCURVE",
"336 31 OFFCURVE",
"260 31 CURVE SMOOTH",
"162 31 OFFCURVE",
"108 104 OFFCURVE",
"108 178 CURVE SMOOTH"
);
}
);
width = 680;
}
);
note = ampersand;
unicode = 0026;
},
{
glyphname = paragraph;
lastChange = "2020-04-26 14:20:43 +0000";
layers = (
{
layerId = "A285862E-BE3D-4D67-A40D-0E28E121AD88";
paths = (
{
closed = 1;
nodes = (
"34 498 LINE SMOOTH",
"34 378 OFFCURVE",
"126 312 OFFCURVE",
"256 312 CURVE SMOOTH",
"264 312 LINE",
"264 0 LINE",
"318 0 LINE",
"318 646 LINE",
"413 646 LINE",
"413 0 LINE",
"467 0 LINE",
"467 694 LINE",
"256 694 LINE SMOOTH",
"126 694 OFFCURVE",
"34 628 OFFCURVE",
"34 508 CURVE SMOOTH"
);
},
{
closed = 1;
nodes = (
"88 585 OFFCURVE",
"141 646 OFFCURVE",
"258 646 CURVE SMOOTH",
"264 646 LINE",
"264 360 LINE",
"258 360 LINE SMOOTH",
"139 360 OFFCURVE",
"88 421 OFFCURVE",
"88 500 CURVE SMOOTH",
"88 506 LINE SMOOTH"
);
}
);
width = 555;
}
);
note = paragraph.cap;
rightMetricsKey = I;
unicode = 00B6;
},
{
glyphname = section;
lastChange = "2017-07-19 13:34:00 +0000";
layers = (
{
layerId = "A285862E-BE3D-4D67-A40D-0E28E121AD88";
paths = (
{
closed = 1;
nodes = (
"75 566 LINE SMOOTH",
"75 531 OFFCURVE",
"85 502 OFFCURVE",
"105 478 CURVE",
"82 453 OFFCURVE",
"75 429 OFFCURVE",
"75 397 CURVE SMOOTH",
"75 318 OFFCURVE",
"126 275 OFFCURVE",
"251 254 CURVE SMOOTH",
"352 237 OFFCURVE",
"396 213 OFFCURVE",
"396 146 CURVE SMOOTH",
"396 81 OFFCURVE",
"349 34 OFFCURVE",
"267 34 CURVE SMOOTH",
"163 34 OFFCURVE",
"104 93 OFFCURVE",
"104 189 CURVE SMOOTH",
"104 208 LINE",
"50 208 LINE",
"50 184 LINE SMOOTH",
"50 60 OFFCURVE",
"133 -14 OFFCURVE",
"266 -14 CURVE SMOOTH",
"388 -14 OFFCURVE",
"450 52 OFFCURVE",
"450 145 CURVE SMOOTH",
"450 151 LINE SMOOTH",
"450 183 OFFCURVE",
"441 209 OFFCURVE",
"424 235 CURVE",
"444 258 OFFCURVE",
"452 284 OFFCURVE",
"452 317 CURVE SMOOTH",
"452 396 OFFCURVE",
"388 427 OFFCURVE",
"280 451 CURVE SMOOTH",
"185 472 OFFCURVE",
"129 493 OFFCURVE",
"129 569 CURVE SMOOTH",
"129 637 OFFCURVE",
"187 666 OFFCURVE",
"254 666 CURVE SMOOTH",
"323 666 OFFCURVE",
"392 631 OFFCURVE",
"392 551 CURVE SMOOTH",
"392 517 LINE",
"446 517 LINE",
"446 554 LINE SMOOTH",
"446 659 OFFCURVE",
"367 714 OFFCURVE",
"254 714 CURVE SMOOTH",
"157 714 OFFCURVE",
"75 661 OFFCURVE",
"75 570 CURVE SMOOTH"
);
},
{
closed = 1;
nodes = (
"162 320 OFFCURVE",
"129 345 OFFCURVE",
"129 397 CURVE SMOOTH",
"129 416 OFFCURVE",
"134 432 OFFCURVE",
"143 444 CURVE",
"170 430 OFFCURVE",
"208 415 OFFCURVE",
"254 406 CURVE SMOOTH",
"349 387 OFFCURVE",
"398 367 OFFCURVE",
"398 313 CURVE SMOOTH",
"398 293 OFFCURVE",
"391 279 OFFCURVE",
"384 268 CURVE",
"357 282 OFFCURVE",
"329 292 OFFCURVE",
"276 301 CURVE SMOOTH"
);
}
);
width = 512;
}
);
note = section.cap;
unicode = 00A7;
},
{
glyphname = copyright;
lastChange = "2020-04-26 14:20:43 +0000";
layers = (
{
layerId = "A285862E-BE3D-4D67-A40D-0E28E121AD88";
paths = (
{
closed = 1;
nodes = (
"224 282 LINE SMOOTH",
"224 174 OFFCURVE",
"282 120 OFFCURVE",
"375 120 CURVE SMOOTH",
"467 120 OFFCURVE",
"516 181 OFFCURVE",
"516 267 CURVE SMOOTH",
"516 288 LINE",
"462 288 LINE",
"462 266 LINE SMOOTH",
"462 198 OFFCURVE",
"428 168 OFFCURVE",
"374 168 CURVE SMOOTH",
"325 168 OFFCURVE",
"278 202 OFFCURVE",
"278 269 CURVE SMOOTH",
"278 426 LINE SMOOTH",
"278 498 OFFCURVE",
"320 534 OFFCURVE",
"374 534 CURVE SMOOTH",
"438 534 OFFCURVE",
"462 491 OFFCURVE",
"462 439 CURVE SMOOTH",
"462 411 LINE",
"516 411 LINE",
"516 433 LINE SMOOTH",
"516 521 OFFCURVE",
"462 582 OFFCURVE",
"373 582 CURVE SMOOTH",
"286 582 OFFCURVE",
"224 525 OFFCURVE",
"224 413 CURVE SMOOTH"
);
},
{
closed = 1;
nodes = (
"88 187 LINE SMOOTH",
"88 59 OFFCURVE",
"151 0 OFFCURVE",
"269 0 CURVE SMOOTH",
"467 0 LINE SMOOTH",
"585 0 OFFCURVE",
"648 59 OFFCURVE",
"648 187 CURVE SMOOTH",
"648 513 LINE SMOOTH",
"648 641 OFFCURVE",
"585 700 OFFCURVE",
"467 700 CURVE SMOOTH",
"269 700 LINE SMOOTH",
"151 700 OFFCURVE",
"88 641 OFFCURVE",
"88 513 CURVE SMOOTH"
);
},
{
closed = 1;
nodes = (
"138 608 OFFCURVE",
"175 654 OFFCURVE",
"262 654 CURVE SMOOTH",
"475 654 LINE SMOOTH",
"561 654 OFFCURVE",
"598 608 OFFCURVE",
"598 517 CURVE SMOOTH",
"598 183 LINE SMOOTH",
"598 92 OFFCURVE",
"561 46 OFFCURVE",
"475 46 CURVE SMOOTH",
"262 46 LINE SMOOTH",
"175 46 OFFCURVE",
"138 92 OFFCURVE",
"138 183 CURVE SMOOTH",
"138 517 LINE SMOOTH"
);
}
);
width = 736;
}
);
leftMetricsKey = I;
note = copyright;
rightMetricsKey = I;
unicode = 00A9;
},
{
glyphname = registered;
lastChange = "2020-04-26 21:44:45 +0000";
layers = (
{
layerId = "A285862E-BE3D-4D67-A40D-0E28E121AD88";
paths = (
{
closed = 1;
nodes = (
"60 384 OFFCURVE",
"150 298 OFFCURVE",
"270 298 CURVE SMOOTH",
"390 298 OFFCURVE",
"480 384 OFFCURVE",
"480 506 CURVE SMOOTH",
"480 628 OFFCURVE",
"390 714 OFFCURVE",
"270 714 CURVE SMOOTH",
"150 714 OFFCURVE",
"60 628 OFFCURVE",
"60 506 CURVE SMOOTH"
);
},
{
closed = 1;
nodes = (
"100 609 OFFCURVE",
"167 676 OFFCURVE",
"270 676 CURVE SMOOTH",
"373 676 OFFCURVE",
"440 609 OFFCURVE",
"440 506 CURVE SMOOTH",
"440 403 OFFCURVE",
"373 336 OFFCURVE",
"270 336 CURVE SMOOTH",
"167 336 OFFCURVE",
"100 403 OFFCURVE",
"100 506 CURVE SMOOTH"
);
},
{
closed = 1;
nodes = (
"198 397 LINE",
"236 397 LINE",
"236 480 LINE",
"291 480 LINE SMOOTH",
"304 480 OFFCURVE",
"312 472 OFFCURVE",
"312 459 CURVE SMOOTH",
"312 397 LINE",
"350 397 LINE",
"350 461 LINE SMOOTH",
"350 477 OFFCURVE",
"340 493 OFFCURVE",
"318 495 CURVE",
"318 501 LINE",
"346 511 OFFCURVE",
"358 530 OFFCURVE",
"358 557 CURVE SMOOTH",
"358 590 OFFCURVE",
"332 619 OFFCURVE",
"283 619 CURVE SMOOTH",
"198 619 LINE"
);
},
{
closed = 1;
nodes = (
"285 585 LINE SMOOTH",
"307 585 OFFCURVE",
"320 569 OFFCURVE",
"320 550 CURVE SMOOTH",
"320 531 OFFCURVE",
"307 514 OFFCURVE",
"285 514 CURVE SMOOTH",
"236 514 LINE",
"236 585 LINE"
);
}
);
width = 540;
}
);
note = registered;
unicode = 00AE;
},
{
glyphname = trademark;
lastChange = "2020-04-26 21:44:43 +0000";
layers = (
{
layerId = "A285862E-BE3D-4D67-A40D-0E28E121AD88";
paths = (
{
closed = 1;
nodes = (
"54 666 LINE",
"130 666 LINE",
"130 478 LINE",
"168 478 LINE",
"168 666 LINE",
"244 666 LINE",
"244 700 LINE",
"54 700 LINE"
);
},
{
closed = 1;
nodes = (
"274 478 LINE",
"312 478 LINE",
"312 666 LINE",
"316 666 LINE",
"372 478 LINE",
"430 478 LINE",
"486 666 LINE",
"490 666 LINE",
"490 478 LINE",
"528 478 LINE",
"528 700 LINE",
"459 700 LINE",
"403 512 LINE",
"399 512 LINE",
"343 700 LINE",
"274 700 LINE"
);
}
);
width = 582;
}
);
note = trademark;
unicode = 2122;
},
{
glyphname = degree;
lastChange = "2018-01-05 17:04:27 +0000";
layers = (
{
layerId = "A285862E-BE3D-4D67-A40D-0E28E121AD88";
paths = (
{
closed = 1;
nodes = (
"56 516 OFFCURVE",
"117 460 OFFCURVE",
"186 460 CURVE SMOOTH",
"253 460 OFFCURVE",
"316 509 OFFCURVE",
"316 588 CURVE SMOOTH",
"316 665 OFFCURVE",
"260 716 OFFCURVE",
"186 716 CURVE SMOOTH",
"114 716 OFFCURVE",
"56 660 OFFCURVE",
"56 588 CURVE SMOOTH"
);
},
{
closed = 1;
nodes = (
"106 636 OFFCURVE",
"140 668 OFFCURVE",
"186 668 CURVE SMOOTH",
"232 668 OFFCURVE",
"266 636 OFFCURVE",
"266 588 CURVE SMOOTH",
"266 540 OFFCURVE",
"232 508 OFFCURVE",
"186 508 CURVE SMOOTH",
"140 508 OFFCURVE",
"106 540 OFFCURVE",
"106 588 CURVE SMOOTH"
);
}
);
width = 372;
}
);
note = degree;
unicode = 00B0;
},
{
glyphname = prime;
lastChange = "2018-01-05 12:05:36 +0000";
layers = (
{
layerId = "A285862E-BE3D-4D67-A40D-0E28E121AD88";
paths = (
{
closed = 1;
nodes = (
"117 460 LINE",
"149 460 LINE",
"198 700 LINE",
"127 700 LINE"
);
}
);
width = 310;
}
);
note = uni2032;
unicode = 2032;
},
{
glyphname = primedbl;
lastChange = "2018-01-05 12:05:38 +0000";
layers = (
{
layerId = "A285862E-BE3D-4D67-A40D-0E28E121AD88";
paths = (
{
closed = 1;
nodes = (
"118 460 LINE",
"150 460 LINE",
"199 700 LINE",
"128 700 LINE"
);
},
{
closed = 1;
nodes = (
"246 460 LINE",
"279 460 LINE",
"328 700 LINE",
"256 700 LINE"
);
}
);
width = 440;
}
);
note = uni2033;
unicode = 2033;
},
{
glyphname = bar;
lastChange = "2020-04-26 14:20:43 +0000";
layers = (
{
layerId = "A285862E-BE3D-4D67-A40D-0E28E121AD88";
paths = (
{
closed = 1;
nodes = (
"88 806 LINE",
"88 -246 LINE",
"138 -246 LINE",
"138 806 LINE"
);
}
);
width = 226;
}
);
leftMetricsKey = I;
note = bar;
rightMetricsKey = I;
unicode = 007C;
},
{
glyphname = brokenbar;
lastChange = "2020-04-26 14:20:43 +0000";
layers = (
{
layerId = "A285862E-BE3D-4D67-A40D-0E28E121AD88";
paths = (
{
closed = 1;
nodes = (
"88 -246 LINE",
"138 -246 LINE",
"138 194 LINE",
"88 194 LINE"
);
},
{
closed = 1;
nodes = (
"138 806 LINE",
"88 806 LINE",
"88 366 LINE",
"138 366 LINE"
);
}
);
width = 226;
}
);
leftMetricsKey = I;
note = brokenbar;
rightMetricsKey = I;
unicode = 00A6;
},
{
glyphname = dagger;
lastChange = "2017-07-18 09:12:28 +0000";
layers = (
{
layerId = "A285862E-BE3D-4D67-A40D-0E28E121AD88";
paths = (
{
closed = 1;
nodes = (
"283 452 LINE",
"283 0 LINE",
"337 0 LINE",
"337 452 LINE",
"513 452 LINE",
"513 500 LINE",
"337 500 LINE",
"337 700 LINE",
"283 700 LINE",
"283 500 LINE",
"107 500 LINE",
"107 452 LINE"
);
}
);
width = 620;
}
);
note = dagger.cap;
unicode = 2020;
},
{
glyphname = daggerdbl;
lastChange = "2017-11-11 16:37:34 +0000";
layers = (
{
layerId = "A285862E-BE3D-4D67-A40D-0E28E121AD88";
paths = (
{
closed = 1;
nodes = (
"283 200 LINE",
"283 0 LINE",
"337 0 LINE",
"337 200 LINE",
"513 200 LINE",
"513 254 LINE",
"337 254 LINE",
"337 452 LINE",
"513 452 LINE",
"513 500 LINE",
"337 500 LINE",
"337 700 LINE",
"283 700 LINE",
"283 500 LINE",
"107 500 LINE",
"107 452 LINE",
"283 452 LINE",
"283 254 LINE",
"107 254 LINE",
"107 200 LINE"
);
}
);
width = 620;
}
);
note = daggerdbl.cap;
unicode = 2021;
},
{
glyphname = at.case;
lastChange = "2017-11-11 16:38:23 +0000";
layers = (
{
layerId = "A285862E-BE3D-4D67-A40D-0E28E121AD88";
paths = (
{
closed = 1;
nodes = (
"96 -6 OFFCURVE",
"160 -70 OFFCURVE",
"284 -70 CURVE SMOOTH",
"888 -70 LINE",
"888 -24 LINE",
"282 -24 LINE SMOOTH",
"192 -24 OFFCURVE",
"146 22 OFFCURVE",
"146 112 CURVE SMOOTH",
"146 588 LINE SMOOTH",
"146 678 OFFCURVE",
"192 724 OFFCURVE",
"282 724 CURVE SMOOTH",
"722 724 LINE SMOOTH",
"812 724 OFFCURVE",
"858 678 OFFCURVE",
"858 588 CURVE SMOOTH",
"858 204 LINE SMOOTH",
"858 171 OFFCURVE",
"845 158 OFFCURVE",
"812 158 CURVE SMOOTH",
"730 158 LINE SMOOTH",
"714 158 OFFCURVE",
"707 163 OFFCURVE",
"707 180 CURVE SMOOTH",
"707 590 LINE",
"659 590 LINE",
"659 497 LINE",
"649 497 LINE",
"634 537 OFFCURVE",
"590 604 OFFCURVE",
"486 604 CURVE SMOOTH",
"370 604 OFFCURVE",
"277 503 OFFCURVE",
"277 361 CURVE SMOOTH",
"277 343 LINE SMOOTH",
"277 201 OFFCURVE",
"370 100 OFFCURVE",
"486 100 CURVE SMOOTH",
"590 100 OFFCURVE",
"634 165 OFFCURVE",
"649 205 CURVE",
"659 205 LINE",
"659 180 LINE SMOOTH",
"659 139 OFFCURVE",
"681 114 OFFCURVE",
"727 114 CURVE SMOOTH",
"820 114 LINE SMOOTH",
"878 114 OFFCURVE",
"908 144 OFFCURVE",
"908 202 CURVE SMOOTH",
"908 582 LINE SMOOTH",
"908 706 OFFCURVE",
"844 770 OFFCURVE",
"720 770 CURVE SMOOTH",
"284 770 LINE SMOOTH",
"160 770 OFFCURVE",
"96 706 OFFCURVE",
"96 582 CURVE SMOOTH",
"96 118 LINE SMOOTH"
);
},
{
closed = 1;
nodes = (
"589 558 OFFCURVE",
"657 483 OFFCURVE",
"657 357 CURVE SMOOTH",
"657 347 LINE SMOOTH",
"657 221 OFFCURVE",
"589 146 OFFCURVE",
"493 146 CURVE SMOOTH",
"397 146 OFFCURVE",
"329 224 OFFCURVE",
"329 346 CURVE SMOOTH",
"329 358 LINE SMOOTH",
"329 480 OFFCURVE",
"397 558 OFFCURVE",
"493 558 CURVE SMOOTH"
);
}
);
width = 1000;
}
);
note = at.cap;
},
{
glyphname = bar.case;
lastChange = "2020-04-26 14:20:43 +0000";
layers = (
{
layerId = "A285862E-BE3D-4D67-A40D-0E28E121AD88";
paths = (
{
closed = 1;
nodes = (
"88 856 LINE",
"88 -156 LINE",
"138 -156 LINE",
"138 856 LINE"
);
}
);
width = 226;
}
);
leftMetricsKey = I;
note = bar;
rightMetricsKey = I;
},
{
glyphname = brokenbar.case;
lastChange = "2020-04-26 14:20:43 +0000";
layers = (
{
layerId = "A285862E-BE3D-4D67-A40D-0E28E121AD88";
paths = (
{
closed = 1;
nodes = (
"88 -156 LINE",
"138 -156 LINE",
"138 264 LINE",
"88 264 LINE"
);
},
{
closed = 1;
nodes = (
"138 856 LINE",
"88 856 LINE",
"88 436 LINE",
"138 436 LINE"
);
}
);
width = 226;
}
);
leftMetricsKey = I;
note = brokenbar;
rightMetricsKey = I;
},
{
glyphname = dieresiscomb;
lastChange = "2020-05-13 21:04:49 +0000";
layers = (
{
anchors = (
{
name = _top;
position = "{197, 484}";
},
{
name = top;
position = "{197, 680}";
}
);
layerId = "A285862E-BE3D-4D67-A40D-0E28E121AD88";
paths = (
{
closed = 1;
nodes = (
"60 604 OFFCURVE",
"81 582 OFFCURVE",
"109 582 CURVE SMOOTH",
"137 582 OFFCURVE",
"158 604 OFFCURVE",
"158 631 CURVE SMOOTH",
"158 658 OFFCURVE",
"137 680 OFFCURVE",
"109 680 CURVE SMOOTH",
"81 680 OFFCURVE",
"60 658 OFFCURVE",
"60 631 CURVE SMOOTH"
);
},
{
closed = 1;
nodes = (
"236 604 OFFCURVE",
"257 582 OFFCURVE",
"285 582 CURVE SMOOTH",
"313 582 OFFCURVE",
"334 604 OFFCURVE",
"334 631 CURVE SMOOTH",
"334 658 OFFCURVE",
"313 680 OFFCURVE",
"285 680 CURVE SMOOTH",
"257 680 OFFCURVE",
"236 658 OFFCURVE",
"236 631 CURVE SMOOTH"
);
}
);
width = 394;
}
);
unicode = 0308;
},
{
glyphname = dotaccentcomb;
lastChange = "2020-05-13 21:04:49 +0000";
layers = (
{
anchors = (
{
name = _top;
position = "{111, 484}";
}
);
layerId = "A285862E-BE3D-4D67-A40D-0E28E121AD88";
paths = (
{
closed = 1;
nodes = (
"60 602 OFFCURVE",
"81 580 OFFCURVE",
"111 580 CURVE SMOOTH",
"141 580 OFFCURVE",
"162 602 OFFCURVE",
"162 631 CURVE SMOOTH",
"162 660 OFFCURVE",
"141 682 OFFCURVE",
"111 682 CURVE SMOOTH",
"81 682 OFFCURVE",
"60 660 OFFCURVE",
"60 631 CURVE SMOOTH"
);
}
);
width = 222;
}
);
unicode = 0307;
},
{
glyphname = gravecomb;
lastChange = "2020-05-13 21:04:49 +0000";
layers = (
{
anchors = (
{
name = _top;
position = "{160, 484}";
}
);
layerId = "A285862E-BE3D-4D67-A40D-0E28E121AD88";
paths = (
{
closed = 1;
nodes = (
"60 700 LINE",
"150 570 LINE",
"203 570 LINE",
"125 700 LINE"
);
}
);
width = 263;
}
);
unicode = 0300;
},
{
glyphname = acutecomb;
lastChange = "2020-05-13 21:04:49 +0000";
layers = (
{
anchors = (
{
name = _ringacute;
position = "{60, 570}";
},
{
name = _top;
position = "{103, 484}";
}
);
layerId = "A285862E-BE3D-4D67-A40D-0E28E121AD88";
paths = (
{
closed = 1;
nodes = (
"60 570 LINE",
"112 570 LINE",
"202 700 LINE",
"138 700 LINE"
);
}
);
width = 262;
}
);
unicode = 0301;
},
{
glyphname = hungarumlautcomb;
lastChange = "2020-05-13 21:04:49 +0000";
layers = (
{
anchors = (
{
name = _top;
position = "{172, 484}";
}
);
layerId = "A285862E-BE3D-4D67-A40D-0E28E121AD88";
paths = (
{
closed = 1;
nodes = (
"60 570 LINE",
"111 570 LINE",
"184 700 LINE",
"124 700 LINE"
);
},
{
closed = 1;
nodes = (
"195 570 LINE",
"248 570 LINE",
"331 700 LINE",
"269 700 LINE"
);
}
);
width = 391;
}
);
unicode = 030B;
},
{
glyphname = circumflexcomb;
lastChange = "2020-05-13 21:04:49 +0000";
layers = (
{
anchors = (
{
name = _top;
position = "{217, 484}";
},
{
name = side;
position = "{374, 570}";
},
{
name = top;
position = "{217, 650}";
}
);
layerId = "A285862E-BE3D-4D67-A40D-0E28E121AD88";
paths = (
{
closed = 1;
nodes = (
"212 662 LINE",
"222 662 LINE",
"310 570 LINE",
"374 570 LINE",
"249 700 LINE",
"185 700 LINE",
"60 570 LINE",
"124 570 LINE"
);
}
);
width = 434;
}
);
unicode = 0302;
},
{
glyphname = caroncomb;
lastChange = "2020-05-13 21:04:49 +0000";
layers = (
{
anchors = (
{
name = _top;
position = "{217, 484}";
}
);
layerId = "A285862E-BE3D-4D67-A40D-0E28E121AD88";
paths = (
{
closed = 1;
nodes = (
"222 608 LINE",
"212 608 LINE",
"124 700 LINE",
"60 700 LINE",
"185 570 LINE",
"249 570 LINE",
"374 700 LINE",
"310 700 LINE"
);
}
);
width = 434;
}
);
unicode = 030C;
},
{
glyphname = brevecomb;
lastChange = "2020-05-13 21:04:49 +0000";
layers = (
{
anchors = (
{
name = _top;
position = "{192, 484}";
},
{
name = top;
position = "{192, 650}";
}
);
layerId = "A285862E-BE3D-4D67-A40D-0E28E121AD88";
paths = (
{
closed = 1;
nodes = (
"277 690 LINE SMOOTH",
"277 641 OFFCURVE",
"248 603 OFFCURVE",
"192 603 CURVE SMOOTH",
"136 603 OFFCURVE",
"107 641 OFFCURVE",
"107 690 CURVE SMOOTH",
"107 700 LINE",
"60 700 LINE",
"60 690 LINE SMOOTH",
"60 609 OFFCURVE",
"114 562 OFFCURVE",
"192 562 CURVE SMOOTH",
"270 562 OFFCURVE",
"324 609 OFFCURVE",
"324 690 CURVE SMOOTH",
"324 700 LINE",
"277 700 LINE"
);
}
);
width = 384;
}
);
unicode = 0306;
},
{
glyphname = ringcomb;
lastChange = "2020-05-13 21:04:49 +0000";
layers = (
{
anchors = (
{
name = _top;
position = "{155, 484}";
},
{
name = ringacute;
position = "{152, 700}";
}
);
layerId = "A285862E-BE3D-4D67-A40D-0E28E121AD88";
paths = (
{
closed = 1;
nodes = (
"60 585 OFFCURVE",
"101 546 OFFCURVE",
"155 546 CURVE SMOOTH",
"209 546 OFFCURVE",
"250 585 OFFCURVE",
"250 639 CURVE SMOOTH",
"250 693 OFFCURVE",
"209 732 OFFCURVE",
"155 732 CURVE SMOOTH",
"101 732 OFFCURVE",
"60 693 OFFCURVE",
"60 639 CURVE SMOOTH"
);
},
{
closed = 1;
nodes = (
"104 669 OFFCURVE",
"125 690 OFFCURVE",
"155 690 CURVE SMOOTH",
"185 690 OFFCURVE",
"206 669 OFFCURVE",
"206 639 CURVE SMOOTH",
"206 609 OFFCURVE",
"185 588 OFFCURVE",
"155 588 CURVE SMOOTH",
"125 588 OFFCURVE",
"104 609 OFFCURVE",
"104 639 CURVE SMOOTH"
);
}
);
width = 310;
}
);
unicode = 030A;
},
